<svg width="256" height="413" viewBox="0 0 256 413" fill="none" xmlns="http://www.w3.org/2000/svg">
<g clip-path="url(#clip0_172_3339)">
<g clip-path="url(#clip1_172_3339)">
<g clip-path="url(#clip2_172_3339)">
<mask id="mask0_172_3339" style="mask-type:alpha" maskUnits="userSpaceOnUse" x="0" y="-21" width="257" height="456">
<path d="M213.295 -20.6008L19.6391 -10.4517C8.30299 -9.85759 -0.405106 -0.186269 0.188992 11.1498L21.3291 414.526C21.9232 425.862 31.5945 434.57 42.9306 433.976L236.587 423.827C247.923 423.233 256.631 413.562 256.037 402.226L234.897 -1.15072C234.303 -12.4868 224.631 -21.1949 213.295 -20.6008Z" fill="#C5C3C4"/>
</mask>
<g mask="url(#mask0_172_3339)">
<mask id="mask1_172_3339" style="mask-type:luminance" maskUnits="userSpaceOnUse" x="74" y="-37" width="469" height="469">
<path d="M519.401 -36.643L74.9727 -13.3516L98.2641 431.076L542.692 407.785L519.401 -36.643Z" fill="white"/>
</mask>
<g mask="url(#mask1_172_3339)">
<path opacity="0.15" d="M99.6634 -14.6455L74.9727 -13.3516L76.2666 11.3389L100.957 10.0449L99.6634 -14.6455Z" stroke="black" stroke-width="0.278149"/>
<path opacity="0.15" d="M124.355 -15.9395L99.6641 -14.6455L100.958 10.045L125.649 8.75097L124.355 -15.9395Z" stroke="black" stroke-width="0.278149"/>
<path opacity="0.15" d="M149.046 -17.2334L124.355 -15.9395L125.649 8.75101L150.34 7.45703L149.046 -17.2334Z" stroke="black" stroke-width="0.278149"/>
<path opacity="0.15" d="M173.738 -18.5274L149.047 -17.2334L150.341 7.45707L175.032 6.16308L173.738 -18.5274Z" stroke="black" stroke-width="0.278149"/>
<path opacity="0.15" d="M198.425 -19.8213L173.734 -18.5273L175.028 6.16312L199.719 4.86914L198.425 -19.8213Z" stroke="black" stroke-width="0.278149"/>
<path opacity="0.15" d="M223.117 -21.1153L198.426 -19.8213L199.72 4.86918L224.41 3.57519L223.117 -21.1153Z" stroke="black" stroke-width="0.278149"/>
<path opacity="0.15" d="M247.808 -22.4092L223.117 -21.1152L224.411 3.57523L249.102 2.28125L247.808 -22.4092Z" stroke="black" stroke-width="0.278149"/>
<path opacity="0.15" d="M100.956 10.0449L76.2656 11.3389L77.5596 36.0293L102.25 34.7353L100.956 10.0449Z" stroke="black" stroke-width="0.278149"/>
<path d="M76.3759 13.4225C77.5264 13.3622 78.4102 12.3807 78.3499 11.2302C78.2896 10.0796 77.308 9.19576 76.1575 9.25605C75.0069 9.31635 74.1231 10.2979 74.1834 11.4485C74.2437 12.599 75.2253 13.4828 76.3759 13.4225Z" fill="black"/>
<path opacity="0.15" d="M125.648 8.75093L100.957 10.0449L102.251 34.7354L126.942 33.4414L125.648 8.75093Z" stroke="black" stroke-width="0.278149"/>
<path d="M101.067 12.1286C102.218 12.0683 103.102 11.0867 103.042 9.9362C102.981 8.78559 102 7.90179 100.849 7.96213C99.6982 8.02241 98.8145 9.00396 98.8748 10.1546C98.9351 11.3051 99.9166 12.1889 101.067 12.1286Z" fill="black"/>
<path opacity="0.15" d="M150.339 7.45699L125.648 8.75098L126.942 33.4414L151.633 32.1475L150.339 7.45699Z" stroke="black" stroke-width="0.278149"/>
<path d="M125.758 10.8347C126.91 10.7743 127.793 9.79277 127.733 8.64225C127.673 7.49165 126.691 6.60785 125.54 6.66818C124.39 6.72847 123.506 7.71002 123.566 8.86062C123.627 10.0111 124.608 10.8949 125.758 10.8347Z" fill="black"/>
<path opacity="0.15" d="M175.031 6.16304L150.34 7.45703L151.634 32.1475L176.325 30.8535L175.031 6.16304Z" stroke="black" stroke-width="0.278149"/>
<path d="M150.446 9.54071C151.597 9.48037 152.481 8.49882 152.42 7.34831C152.36 6.1977 151.379 5.3139 150.227 5.37424C149.077 5.43452 148.193 6.41607 148.254 7.56668C148.314 8.71719 149.295 9.60099 150.446 9.54071Z" fill="black"/>
<path opacity="0.15" d="M199.722 4.8691L175.031 6.16309L176.325 30.8536L201.016 29.5596L199.722 4.8691Z" stroke="black" stroke-width="0.278149"/>
<path d="M175.137 8.24676C176.288 8.18643 177.172 7.20488 177.112 6.05436C177.052 4.90376 176.07 4.01996 174.919 4.08029C173.769 4.14058 172.885 5.12213 172.945 6.27273C173.005 7.42325 173.987 8.30705 175.137 8.24676Z" fill="black"/>
<path opacity="0.15" d="M224.409 3.57515L199.719 4.86914L201.013 29.5596L225.703 28.2656L224.409 3.57515Z" stroke="black" stroke-width="0.278149"/>
<path d="M199.829 6.95281C200.98 6.89248 201.864 5.91093 201.803 4.76042C201.743 3.60981 200.761 2.72601 199.61 2.78635C198.46 2.84663 197.576 3.82818 197.637 4.97879C197.697 6.1293 198.678 7.0131 199.829 6.95281Z" fill="black"/>
<path opacity="0.15" d="M249.101 2.28121L224.41 3.5752L225.704 28.2657L250.395 26.9717L249.101 2.28121Z" stroke="black" stroke-width="0.278149"/>
<path d="M224.52 5.65887C225.671 5.59854 226.555 4.61699 226.495 3.46647C226.434 2.31587 225.453 1.43207 224.302 1.4924C223.151 1.55269 222.268 2.53424 222.328 3.68484C222.388 4.83536 223.37 5.71916 224.52 5.65887Z" fill="black"/>
<path opacity="0.15" d="M102.253 34.7363L77.5625 36.0303L78.8565 60.7207L103.547 59.4267L102.253 34.7363Z" stroke="black" stroke-width="0.278149"/>
<path d="M77.6727 38.113C78.8233 38.0527 79.707 37.0711 79.6467 35.9206C79.5864 34.77 78.6049 33.8862 77.4544 33.9465C76.3038 34.0068 75.42 34.9883 75.4803 36.1389C75.5406 37.2895 76.5221 38.1733 77.6727 38.113Z" fill="black"/>
<path opacity="0.15" d="M126.945 33.4414L102.254 34.7354L103.548 59.4257L128.239 58.1317L126.945 33.4414Z" stroke="black" stroke-width="0.278149"/>
<path d="M102.36 36.8191C103.511 36.7588 104.395 35.7771 104.335 34.6266C104.274 33.476 103.293 32.5922 102.142 32.6526C100.991 32.7128 100.107 33.6944 100.168 34.845C100.228 35.9955 101.21 36.8794 102.36 36.8191Z" fill="black"/>
<path opacity="0.15" d="M151.632 32.1474L126.941 33.4414L128.235 58.1318L152.926 56.8378L151.632 32.1474Z" stroke="black" stroke-width="0.278149"/>
<path d="M127.051 35.5252C128.203 35.4648 129.086 34.4832 129.026 33.3327C128.966 32.1821 127.984 31.2983 126.833 31.3586C125.683 31.4189 124.799 32.4004 124.859 33.5511C124.919 34.7016 125.901 35.5855 127.051 35.5252Z" fill="black"/>
<path opacity="0.15" d="M176.324 30.8535L151.633 32.1475L152.927 56.8378L177.618 55.5439L176.324 30.8535Z" stroke="black" stroke-width="0.278149"/>
<path d="M151.743 34.2312C152.894 34.1709 153.778 33.1893 153.717 32.0387C153.657 30.8881 152.676 30.0043 151.524 30.0647C150.374 30.125 149.49 31.1065 149.551 32.2571C149.611 33.4076 150.592 34.2915 151.743 34.2312Z" fill="black"/>
<path opacity="0.15" d="M201.015 29.5595L176.324 30.8535L177.618 55.5439L202.309 54.2499L201.015 29.5595Z" stroke="black" stroke-width="0.278149"/>
<path d="M176.434 32.9373C177.585 32.8769 178.469 31.8953 178.409 30.7448C178.348 29.5942 177.367 28.7104 176.216 28.7707C175.065 28.831 174.182 29.8126 174.242 30.9632C174.302 32.1137 175.284 32.9976 176.434 32.9373Z" fill="black"/>
<path opacity="0.15" d="M225.706 28.2656L201.016 29.5596L202.31 54.2499L227 52.956L225.706 28.2656Z" stroke="black" stroke-width="0.278149"/>
<path d="M201.122 31.6433C202.273 31.583 203.157 30.6014 203.096 29.4508C203.036 28.3002 202.054 27.4164 200.903 27.4768C199.753 27.5371 198.869 28.5186 198.929 29.6692C198.99 30.8197 199.971 31.7036 201.122 31.6433Z" fill="black"/>
<path opacity="0.15" d="M250.394 26.9716L225.703 28.2656L226.997 52.956L251.688 51.662L250.394 26.9716Z" stroke="black" stroke-width="0.278149"/>
<path d="M225.813 30.3494C226.964 30.2891 227.848 29.3074 227.788 28.1569C227.727 27.0063 226.746 26.1225 225.595 26.1828C224.444 26.2431 223.561 27.2247 223.621 28.3753C223.681 29.5258 224.663 30.4097 225.813 30.3494Z" fill="black"/>
<path opacity="0.15" d="M103.546 59.4267L78.8555 60.7207L80.1495 85.4113L104.84 84.1174L103.546 59.4267Z" stroke="black" stroke-width="0.278149"/>
<path d="M78.9657 62.8035C80.1162 62.7432 81 61.7615 80.9397 60.611C80.8794 59.4605 79.8979 58.5766 78.7473 58.6369C77.5967 58.6972 76.7129 59.6789 76.7732 60.8294C76.8335 61.9799 77.8151 62.8638 78.9657 62.8035Z" fill="black"/>
<path opacity="0.15" d="M128.238 58.1328L103.547 59.4268L104.841 84.1174L129.532 82.8234L128.238 58.1328Z" stroke="black" stroke-width="0.278149"/>
<path d="M103.653 61.5095C104.804 61.4492 105.688 60.4676 105.627 59.3171C105.567 58.1665 104.586 57.2827 103.434 57.343C102.284 57.4033 101.4 58.3849 101.461 59.5354C101.521 60.6859 102.503 61.5698 103.653 61.5095Z" fill="black"/>
<path opacity="0.15" d="M152.925 56.8388L128.234 58.1328L129.528 82.8235L154.219 81.5295L152.925 56.8388Z" stroke="black" stroke-width="0.278149"/>
<path d="M128.344 60.2156C129.495 60.1553 130.379 59.1736 130.319 58.0231C130.259 56.8726 129.277 55.9887 128.126 56.049C126.976 56.1093 126.092 57.091 126.152 58.2415C126.212 59.392 127.194 60.2759 128.344 60.2156Z" fill="black"/>
<path opacity="0.15" d="M177.617 55.5439L152.926 56.8379L154.22 81.5285L178.911 80.2345L177.617 55.5439Z" stroke="black" stroke-width="0.278149"/>
<path d="M153.036 58.9217C154.187 58.8613 155.071 57.8797 155.01 56.7292C154.95 55.5787 153.969 54.6948 152.817 54.7551C151.667 54.8154 150.783 55.797 150.844 56.9475C150.904 58.0981 151.885 58.9819 153.036 58.9217Z" fill="black"/>
<path opacity="0.15" d="M202.308 54.25L177.617 55.5439L178.911 80.2346L203.602 78.9406L202.308 54.25Z" stroke="black" stroke-width="0.278149"/>
<path d="M177.727 57.6277C178.878 57.5674 179.762 56.5857 179.702 55.4352C179.641 54.2847 178.66 53.4008 177.509 53.4612C176.358 53.5214 175.475 54.5031 175.535 55.6536C175.595 56.8041 176.577 57.688 177.727 57.6277Z" fill="black"/>
<path opacity="0.15" d="M226.999 52.956L202.309 54.25L203.603 78.9406L228.293 77.6467L226.999 52.956Z" stroke="black" stroke-width="0.278149"/>
<path d="M202.415 56.3338C203.566 56.2734 204.449 55.2918 204.389 54.1413C204.329 52.9908 203.347 52.1069 202.196 52.1672C201.046 52.2275 200.162 53.2091 200.222 54.3596C200.283 55.5102 201.264 56.394 202.415 56.3338Z" fill="black"/>
<path opacity="0.15" d="M251.687 51.6621L226.996 52.9561L228.29 77.6467L252.981 76.3527L251.687 51.6621Z" stroke="black" stroke-width="0.278149"/>
<path d="M227.106 55.0398C228.257 54.9795 229.141 53.9978 229.081 52.8473C229.02 51.6968 228.039 50.8129 226.888 50.8733C225.737 50.9335 224.854 51.9152 224.914 53.0657C224.974 54.2162 225.956 55.1001 227.106 55.0398Z" fill="black"/>
<path opacity="0.15" d="M104.839 84.1171L80.1484 85.4111L81.4424 110.101L106.133 108.807L104.839 84.1171Z" stroke="black" stroke-width="0.278149"/>
<path d="M80.2587 87.4941C81.4092 87.4338 82.293 86.4523 82.2327 85.302C82.1724 84.1508 81.1908 83.267 80.0403 83.3273C78.8897 83.3876 78.0059 84.3691 78.0662 85.5203C78.1265 86.6707 79.1081 87.5544 80.2587 87.4941Z" fill="black"/>
<path opacity="0.15" d="M129.531 82.8232L104.84 84.1172L106.134 108.807L130.825 107.513L129.531 82.8232Z" stroke="black" stroke-width="0.278149"/>
<path d="M104.95 86.2002C106.101 86.1398 106.985 85.1584 106.924 84.008C106.864 82.8568 105.883 81.9731 104.731 82.0334C103.581 82.0937 102.697 83.0752 102.758 84.2264C102.818 85.3767 103.799 86.2604 104.95 86.2002Z" fill="black"/>
<path opacity="0.15" d="M154.222 81.5293L129.531 82.8232L130.825 107.513L155.516 106.219L154.222 81.5293Z" stroke="black" stroke-width="0.278149"/>
<path d="M129.641 84.9062C130.792 84.8459 131.676 83.8644 131.616 82.7141C131.555 81.5628 130.574 80.6791 129.423 80.7395C128.272 80.7998 127.389 81.7812 127.449 82.9324C127.509 84.0828 128.491 84.9665 129.641 84.9062Z" fill="black"/>
<path opacity="0.15" d="M178.913 80.2353L154.223 81.5293L155.517 106.219L180.207 104.925L178.913 80.2353Z" stroke="black" stroke-width="0.278149"/>
<path d="M154.329 83.6123C155.48 83.5519 156.364 82.5705 156.303 81.4201C156.243 80.2689 155.261 79.3852 154.11 79.4455C152.96 79.5058 152.076 80.4873 152.137 81.6385C152.197 82.7888 153.178 83.6725 154.329 83.6123Z" fill="black"/>
<path opacity="0.15" d="M203.601 78.9414L178.91 80.2354L180.204 104.925L204.895 103.631L203.601 78.9414Z" stroke="black" stroke-width="0.278149"/>
<path d="M179.02 82.3183C180.171 82.258 181.055 81.2765 180.995 80.1262C180.934 78.975 179.953 78.0912 178.802 78.1516C177.651 78.2119 176.768 79.1933 176.828 80.3446C176.888 81.4949 177.87 82.3786 179.02 82.3183Z" fill="black"/>
<path opacity="0.15" d="M228.292 77.6474L203.602 78.9414L204.896 103.631L229.586 102.337L228.292 77.6474Z" stroke="black" stroke-width="0.278149"/>
<path d="M203.711 81.0244C204.863 80.964 205.746 79.9826 205.686 78.8322C205.626 77.681 204.644 76.7973 203.493 76.8576C202.343 76.9179 201.459 77.8994 201.519 79.0506C201.58 80.2009 202.561 81.0847 203.711 81.0244Z" fill="black"/>
<path opacity="0.15" d="M252.984 76.3535L228.293 77.6475L229.587 102.337L254.278 101.043L252.984 76.3535Z" stroke="black" stroke-width="0.278149"/>
<path d="M228.403 79.7304C229.554 79.6701 230.438 78.6886 230.377 77.5383C230.317 76.3871 229.336 75.5034 228.184 75.5637C227.034 75.624 226.15 76.6054 226.211 77.7567C226.271 78.907 227.253 79.7907 228.403 79.7304Z" fill="black"/>
<path opacity="0.15" d="M106.132 108.807L81.4414 110.101L82.7354 134.791L107.426 133.497L106.132 108.807Z" stroke="black" stroke-width="0.278149"/>
<path d="M81.5517 112.185C82.7022 112.124 83.586 111.143 83.5256 109.992C83.4653 108.841 82.4838 107.957 81.3333 108.018C80.1827 108.078 79.2989 109.06 79.3592 110.21C79.4195 111.361 80.401 112.245 81.5517 112.185Z" fill="black"/>
<path opacity="0.15" d="M130.824 107.513L106.133 108.807L107.427 133.497L132.118 132.203L130.824 107.513Z" stroke="black" stroke-width="0.278149"/>
<path d="M106.243 110.891C107.394 110.83 108.278 109.849 108.217 108.698C108.157 107.547 107.176 106.664 106.024 106.724C104.874 106.784 103.99 107.766 104.051 108.916C104.111 110.067 105.092 110.951 106.243 110.891Z" fill="black"/>
<path opacity="0.15" d="M155.515 106.219L130.824 107.513L132.118 132.203L156.809 130.909L155.515 106.219Z" stroke="black" stroke-width="0.278149"/>
<path d="M130.934 109.597C132.085 109.536 132.969 108.555 132.909 107.404C132.848 106.253 131.867 105.37 130.716 105.43C129.565 105.49 128.682 106.472 128.742 107.622C128.802 108.773 129.784 109.657 130.934 109.597Z" fill="black"/>
<path opacity="0.15" d="M180.206 104.925L155.516 106.219L156.81 130.909L181.5 129.616L180.206 104.925Z" stroke="black" stroke-width="0.278149"/>
<path d="M155.622 108.303C156.773 108.242 157.657 107.261 157.596 106.11C157.536 104.959 156.554 104.076 155.403 104.136C154.253 104.196 153.369 105.178 153.429 106.328C153.49 107.479 154.471 108.363 155.622 108.303Z" fill="black"/>
<path opacity="0.15" d="M204.898 103.631L180.207 104.925L181.501 129.616L206.192 128.322L204.898 103.631Z" stroke="black" stroke-width="0.278149"/>
<path d="M180.313 107.009C181.464 106.948 182.348 105.967 182.288 104.816C182.227 103.665 181.246 102.782 180.095 102.842C178.944 102.902 178.061 103.884 178.121 105.034C178.181 106.185 179.163 107.069 180.313 107.009Z" fill="black"/>
<path opacity="0.15" d="M229.585 102.337L204.895 103.631L206.189 128.322L230.879 127.028L229.585 102.337Z" stroke="black" stroke-width="0.278149"/>
<path d="M205.004 105.715C206.156 105.654 207.039 104.673 206.979 103.522C206.919 102.371 205.937 101.488 204.786 101.548C203.636 101.608 202.752 102.59 202.812 103.74C202.873 104.891 203.854 105.775 205.004 105.715Z" fill="black"/>
<path opacity="0.15" d="M254.277 101.043L229.586 102.337L230.88 127.028L255.571 125.734L254.277 101.043Z" stroke="black" stroke-width="0.278149"/>
<path d="M229.696 104.421C230.847 104.361 231.731 103.379 231.67 102.228C231.61 101.077 230.629 100.194 229.477 100.254C228.327 100.314 227.443 101.296 227.504 102.446C227.564 103.597 228.545 104.481 229.696 104.421Z" fill="black"/>
<path opacity="0.15" d="M107.429 133.498L82.7383 134.792L84.0323 159.483L108.723 158.189L107.429 133.498Z" stroke="black" stroke-width="0.278149"/>
<path d="M82.8485 136.875C83.999 136.815 84.8828 135.832 84.8225 134.682C84.7622 133.532 83.7807 132.648 82.6302 132.708C81.4796 132.769 80.5957 133.75 80.656 134.9C80.7163 136.051 81.6979 136.935 82.8485 136.875Z" fill="black"/>
<path opacity="0.15" d="M132.12 132.203L107.43 133.497L108.724 158.188L133.414 156.894L132.12 132.203Z" stroke="black" stroke-width="0.278149"/>
<path d="M107.536 135.581C108.687 135.521 109.571 134.538 109.51 133.388C109.45 132.238 108.469 131.354 107.317 131.414C106.167 131.475 105.283 132.456 105.344 133.606C105.404 134.757 106.385 135.641 107.536 135.581Z" fill="black"/>
<path opacity="0.15" d="M156.808 130.909L132.117 132.203L133.411 156.894L158.102 155.6L156.808 130.909Z" stroke="black" stroke-width="0.278149"/>
<path d="M132.227 134.287C133.378 134.227 134.262 133.244 134.202 132.094C134.141 130.944 133.16 130.06 132.009 130.12C130.858 130.181 129.975 131.162 130.035 132.312C130.095 133.463 131.077 134.347 132.227 134.287Z" fill="black"/>
<path opacity="0.15" d="M181.499 129.615L156.809 130.909L158.103 155.6L182.793 154.306L181.499 129.615Z" stroke="black" stroke-width="0.278149"/>
<path d="M156.918 132.993C158.07 132.933 158.953 131.95 158.893 130.8C158.833 129.65 157.851 128.766 156.7 128.826C155.55 128.887 154.666 129.868 154.726 131.018C154.787 132.169 155.768 133.053 156.918 132.993Z" fill="black"/>
<path opacity="0.15" d="M206.191 128.321L181.5 129.615L182.794 154.306L207.485 153.012L206.191 128.321Z" stroke="black" stroke-width="0.278149"/>
<path d="M181.61 131.699C182.761 131.639 183.645 130.656 183.584 129.506C183.524 128.356 182.543 127.472 181.392 127.532C180.241 127.593 179.357 128.574 179.418 129.725C179.478 130.875 180.46 131.759 181.61 131.699Z" fill="black"/>
<path opacity="0.15" d="M230.882 127.027L206.191 128.321L207.485 153.012L232.176 151.718L230.882 127.027Z" stroke="black" stroke-width="0.278149"/>
<path d="M206.297 130.405C207.449 130.345 208.332 129.363 208.272 128.212C208.212 127.062 207.23 126.178 206.079 126.238C204.929 126.299 204.045 127.28 204.105 128.431C204.166 129.581 205.147 130.466 206.297 130.405Z" fill="black"/>
<path opacity="0.15" d="M255.57 125.733L230.879 127.027L232.173 151.718L256.864 150.424L255.57 125.733Z" stroke="black" stroke-width="0.278149"/>
<path d="M230.989 129.111C232.14 129.051 233.024 128.069 232.963 126.918C232.903 125.768 231.922 124.884 230.77 124.945C229.62 125.005 228.736 125.986 228.797 127.137C228.857 128.287 229.838 129.172 230.989 129.111Z" fill="black"/>
<path opacity="0.15" d="M108.722 158.188L84.0312 159.482L85.3252 184.172L110.016 182.878L108.722 158.188Z" stroke="black" stroke-width="0.278149"/>
<path d="M84.1415 161.565C85.292 161.505 86.1758 160.524 86.1155 159.373C86.0552 158.222 85.0736 157.338 83.9231 157.399C82.7725 157.459 81.8887 158.44 81.9491 159.592C82.0093 160.742 82.9909 161.626 84.1415 161.565Z" fill="black"/>
<path opacity="0.15" d="M133.413 156.894L108.723 158.188L110.017 182.878L134.707 181.584L133.413 156.894Z" stroke="black" stroke-width="0.278149"/>
<path d="M108.829 160.271C109.98 160.211 110.864 159.23 110.803 158.079C110.743 156.928 109.761 156.044 108.61 156.105C107.46 156.165 106.576 157.146 106.637 158.298C106.697 159.448 107.678 160.332 108.829 160.271Z" fill="black"/>
<path opacity="0.15" d="M158.101 155.601L133.41 156.895L134.704 181.584L159.395 180.29L158.101 155.601Z" stroke="black" stroke-width="0.278149"/>
<path d="M133.52 158.978C134.671 158.917 135.555 157.936 135.495 156.785C135.434 155.634 134.453 154.75 133.302 154.811C132.151 154.871 131.268 155.853 131.328 157.004C131.388 158.154 132.37 159.038 133.52 158.978Z" fill="black"/>
<path opacity="0.15" d="M182.792 154.307L158.102 155.601L159.396 180.29L184.086 178.996L182.792 154.307Z" stroke="black" stroke-width="0.278149"/>
<path d="M158.211 157.684C159.363 157.623 160.246 156.642 160.186 155.491C160.126 154.34 159.144 153.456 157.993 153.517C156.843 153.577 155.959 154.559 156.019 155.71C156.08 156.86 157.061 157.744 158.211 157.684Z" fill="black"/>
<path opacity="0.15" d="M207.484 153.013L182.793 154.307L184.087 178.996L208.778 177.702L207.484 153.013Z" stroke="black" stroke-width="0.278149"/>
<path d="M182.903 156.39C184.054 156.329 184.938 155.348 184.878 154.197C184.817 153.046 183.836 152.163 182.684 152.223C181.534 152.283 180.65 153.265 180.711 154.416C180.771 155.566 181.753 156.45 182.903 156.39Z" fill="black"/>
<path opacity="0.15" d="M232.175 151.719L207.484 153.013L208.778 177.703L233.469 176.409L232.175 151.719Z" stroke="black" stroke-width="0.278149"/>
<path d="M207.59 155.096C208.742 155.035 209.625 154.054 209.565 152.904C209.505 151.752 208.523 150.869 207.372 150.929C206.222 150.989 205.338 151.971 205.398 153.122C205.459 154.272 206.44 155.156 207.59 155.096Z" fill="black"/>
<path opacity="0.15" d="M256.863 150.425L232.172 151.719L233.466 176.409L258.157 175.115L256.863 150.425Z" stroke="black" stroke-width="0.278149"/>
<path d="M232.282 153.802C233.433 153.741 234.317 152.76 234.256 151.61C234.196 150.458 233.215 149.575 232.063 149.635C230.913 149.695 230.029 150.677 230.09 151.828C230.15 152.978 231.131 153.862 232.282 153.802Z" fill="black"/>
<path opacity="0.15" d="M110.015 182.878L85.3242 184.172L86.6182 208.863L111.309 207.569L110.015 182.878Z" stroke="black" stroke-width="0.278149"/>
<path d="M85.4345 186.256C86.585 186.196 87.4688 185.214 87.4084 184.063C87.3482 182.912 86.3666 182.029 85.2161 182.089C84.0655 182.149 83.1817 183.131 83.242 184.281C83.3023 185.432 84.2839 186.316 85.4345 186.256Z" fill="black"/>
<path opacity="0.15" d="M134.706 181.584L110.016 182.878L111.31 207.569L136 206.275L134.706 181.584Z" stroke="black" stroke-width="0.278149"/>
<path d="M110.126 184.962C111.277 184.902 112.16 183.92 112.1 182.769C112.04 181.619 111.058 180.735 109.907 180.795C108.757 180.855 107.873 181.837 107.933 182.987C107.994 184.138 108.975 185.022 110.126 184.962Z" fill="black"/>
<path opacity="0.15" d="M159.398 180.29L134.707 181.584L136.001 206.275L160.692 204.981L159.398 180.29Z" stroke="black" stroke-width="0.278149"/>
<path d="M134.817 183.668C135.968 183.608 136.852 182.626 136.792 181.475C136.731 180.325 135.75 179.441 134.599 179.501C133.448 179.561 132.564 180.543 132.625 181.693C132.685 182.845 133.667 183.728 134.817 183.668Z" fill="black"/>
<path opacity="0.15" d="M184.089 178.996L159.398 180.29L160.692 204.981L185.383 203.687L184.089 178.996Z" stroke="black" stroke-width="0.278149"/>
<path d="M159.504 182.374C160.656 182.314 161.539 181.332 161.479 180.181C161.419 179.031 160.437 178.147 159.286 178.207C158.136 178.268 157.252 179.249 157.312 180.399C157.373 181.551 158.354 182.434 159.504 182.374Z" fill="black"/>
<path opacity="0.15" d="M208.777 177.702L184.086 178.996L185.38 203.687L210.071 202.393L208.777 177.702Z" stroke="black" stroke-width="0.278149"/>
<path d="M184.196 181.08C185.347 181.02 186.231 180.038 186.17 178.887C186.11 177.737 185.129 176.853 183.977 176.913C182.827 176.974 181.943 177.955 182.004 179.105C182.064 180.257 183.045 181.14 184.196 181.08Z" fill="black"/>
<path opacity="0.15" d="M233.468 176.408L208.777 177.702L210.071 202.393L234.762 201.099L233.468 176.408Z" stroke="black" stroke-width="0.278149"/>
<path d="M208.887 179.786C210.038 179.726 210.922 178.744 210.862 177.593C210.802 176.443 209.82 175.559 208.669 175.619C207.519 175.68 206.635 176.661 206.695 177.811C206.755 178.963 207.737 179.846 208.887 179.786Z" fill="black"/>
<path opacity="0.15" d="M258.159 175.114L233.469 176.408L234.763 201.099L259.453 199.805L258.159 175.114Z" stroke="black" stroke-width="0.278149"/>
<path d="M233.579 178.492C234.73 178.432 235.614 177.45 235.553 176.299C235.493 175.149 234.511 174.265 233.36 174.325C232.21 174.386 231.326 175.367 231.387 176.517C231.447 177.669 232.428 178.552 233.579 178.492Z" fill="black"/>
<path opacity="0.15" d="M111.308 207.569L86.6172 208.863L87.9112 233.554L112.602 232.26L111.308 207.569Z" stroke="black" stroke-width="0.278149"/>
<path d="M86.7274 210.945C87.8779 210.885 88.7617 209.904 88.7014 208.753C88.6411 207.603 87.6596 206.719 86.5091 206.779C85.3585 206.84 84.4747 207.821 84.5349 208.972C84.5952 210.122 85.5768 211.006 86.7274 210.945Z" fill="black"/>
<path opacity="0.15" d="M135.999 206.274L111.309 207.568L112.603 232.259L137.293 230.965L135.999 206.274Z" stroke="black" stroke-width="0.278149"/>
<path d="M111.418 209.651C112.57 209.591 113.453 208.61 113.393 207.459C113.333 206.309 112.351 205.425 111.2 205.486C110.05 205.546 109.166 206.527 109.226 207.678C109.287 208.828 110.268 209.712 111.418 209.651Z" fill="black"/>
<path opacity="0.15" d="M160.691 204.98L136 206.274L137.294 230.965L161.985 229.671L160.691 204.98Z" stroke="black" stroke-width="0.278149"/>
<path d="M136.11 208.357C137.261 208.297 138.145 207.316 138.084 206.165C138.024 205.015 137.043 204.131 135.892 204.192C134.741 204.252 133.857 205.233 133.918 206.384C133.978 207.534 134.96 208.418 136.11 208.357Z" fill="black"/>
<path opacity="0.15" d="M185.382 203.686L160.691 204.98L161.985 229.671L186.676 228.377L185.382 203.686Z" stroke="black" stroke-width="0.278149"/>
<path d="M160.797 207.064C161.949 207.003 162.832 206.022 162.772 204.871C162.712 203.721 161.73 202.837 160.579 202.898C159.429 202.958 158.545 203.939 158.605 205.09C158.666 206.24 159.647 207.124 160.797 207.064Z" fill="black"/>
<path opacity="0.15" d="M210.074 202.393L185.383 203.687L186.677 228.377L211.368 227.083L210.074 202.393Z" stroke="black" stroke-width="0.278149"/>
<path d="M185.489 205.77C186.64 205.709 187.524 204.728 187.463 203.577C187.403 202.427 186.422 201.543 185.27 201.604C184.12 201.664 183.236 202.645 183.297 203.796C183.357 204.946 184.338 205.83 185.489 205.77Z" fill="black"/>
<path opacity="0.15" d="M234.761 201.099L210.07 202.393L211.364 227.083L236.055 225.789L234.761 201.099Z" stroke="black" stroke-width="0.278149"/>
<path d="M210.18 204.476C211.331 204.415 212.215 203.434 212.155 202.283C212.095 201.133 211.113 200.249 209.962 200.31C208.811 200.37 207.928 201.352 207.988 202.502C208.048 203.652 209.03 204.536 210.18 204.476Z" fill="black"/>
<path opacity="0.15" d="M259.452 199.805L234.762 201.099L236.056 225.789L260.746 224.495L259.452 199.805Z" stroke="black" stroke-width="0.278149"/>
<path d="M234.872 203.182C236.023 203.121 236.906 202.14 236.846 200.99C236.786 199.839 235.804 198.956 234.653 199.016C233.503 199.076 232.619 200.058 232.679 201.208C232.74 202.358 233.721 203.242 234.872 203.182Z" fill="black"/>
<path opacity="0.15" d="M112.605 232.26L87.9141 233.554L89.208 258.244L113.899 256.95L112.605 232.26Z" stroke="black" stroke-width="0.278149"/>
<path d="M88.0243 235.637C89.1748 235.576 90.0586 234.595 89.9983 233.445C89.938 232.293 88.9565 231.41 87.8059 231.47C86.6553 231.53 85.7715 232.512 85.8319 233.663C85.8922 234.813 86.8737 235.697 88.0243 235.637Z" fill="black"/>
<path opacity="0.15" d="M137.296 230.966L112.605 232.26L113.899 256.95L138.59 255.656L137.296 230.966Z" stroke="black" stroke-width="0.278149"/>
<path d="M112.711 234.343C113.863 234.282 114.746 233.301 114.686 232.151C114.626 230.999 113.644 230.116 112.493 230.176C111.343 230.236 110.459 231.218 110.519 232.369C110.58 233.519 111.561 234.403 112.711 234.343Z" fill="black"/>
<path opacity="0.15" d="M161.984 229.672L137.293 230.966L138.587 255.656L163.278 254.362L161.984 229.672Z" stroke="black" stroke-width="0.278149"/>
<path d="M137.403 233.049C138.554 232.988 139.438 232.007 139.377 230.857C139.317 229.705 138.336 228.822 137.184 228.882C136.034 228.942 135.15 229.924 135.211 231.075C135.271 232.225 136.253 233.109 137.403 233.049Z" fill="black"/>
<path opacity="0.15" d="M186.675 228.378L161.984 229.672L163.278 254.362L187.969 253.068L186.675 228.378Z" stroke="black" stroke-width="0.278149"/>
<path d="M162.094 231.755C163.245 231.695 164.129 230.713 164.069 229.563C164.009 228.411 163.027 227.528 161.876 227.588C160.726 227.648 159.842 228.63 159.902 229.781C159.962 230.931 160.944 231.815 162.094 231.755Z" fill="black"/>
<path opacity="0.15" d="M211.367 227.084L186.676 228.378L187.97 253.068L212.66 251.774L211.367 227.084Z" stroke="black" stroke-width="0.278149"/>
<path d="M186.786 230.461C187.937 230.401 188.821 229.419 188.76 228.269C188.7 227.118 187.719 226.234 186.567 226.294C185.417 226.354 184.533 227.336 184.594 228.487C184.654 229.637 185.635 230.521 186.786 230.461Z" fill="black"/>
<path opacity="0.15" d="M236.058 225.79L211.367 227.084L212.661 251.774L237.352 250.48L236.058 225.79Z" stroke="black" stroke-width="0.278149"/>
<path d="M211.473 229.167C212.624 229.107 213.508 228.125 213.448 226.975C213.387 225.824 212.406 224.94 211.255 225C210.104 225.061 209.221 226.042 209.281 227.193C209.341 228.344 210.323 229.227 211.473 229.167Z" fill="black"/>
<path opacity="0.15" d="M260.745 224.496L236.055 225.79L237.349 250.48L262.039 249.186L260.745 224.496Z" stroke="black" stroke-width="0.278149"/>
<path d="M236.165 227.873C237.316 227.813 238.2 226.831 238.139 225.681C238.079 224.53 237.097 223.646 235.946 223.706C234.796 223.767 233.912 224.748 233.972 225.899C234.033 227.05 235.014 227.933 236.165 227.873Z" fill="black"/>
<path opacity="0.15" d="M113.898 256.949L89.207 258.243L90.501 282.934L115.192 281.64L113.898 256.949Z" stroke="black" stroke-width="0.278149"/>
<path d="M89.3173 260.327C90.4678 260.267 91.3516 259.285 91.2913 258.134C91.231 256.984 90.2494 256.1 89.0989 256.16C87.9483 256.221 87.0645 257.202 87.1248 258.352C87.1851 259.504 88.1667 260.387 89.3173 260.327Z" fill="black"/>
<path opacity="0.15" d="M138.589 255.655L113.898 256.949L115.192 281.64L139.883 280.346L138.589 255.655Z" stroke="black" stroke-width="0.278149"/>
<path d="M114.004 259.033C115.156 258.973 116.039 257.991 115.979 256.84C115.919 255.69 114.937 254.806 113.786 254.866C112.636 254.927 111.752 255.908 111.812 257.059C111.873 258.21 112.854 259.093 114.004 259.033Z" fill="black"/>
<path opacity="0.15" d="M163.277 254.361L138.586 255.655L139.88 280.346L164.571 279.052L163.277 254.361Z" stroke="black" stroke-width="0.278149"/>
<path d="M138.696 257.739C139.847 257.679 140.731 256.697 140.67 255.546C140.61 254.396 139.629 253.512 138.477 253.572C137.327 253.633 136.443 254.614 136.504 255.765C136.564 256.916 137.545 257.8 138.696 257.739Z" fill="black"/>
<path opacity="0.15" d="M187.968 253.067L163.277 254.361L164.571 279.052L189.262 277.758L187.968 253.067Z" stroke="black" stroke-width="0.278149"/>
<path d="M163.387 256.445C164.538 256.385 165.422 255.403 165.362 254.252C165.302 253.102 164.32 252.218 163.169 252.279C162.019 252.339 161.135 253.32 161.195 254.471C161.255 255.622 162.237 256.506 163.387 256.445Z" fill="black"/>
<path opacity="0.15" d="M212.659 251.773L187.969 253.067L189.263 277.758L213.953 276.464L212.659 251.773Z" stroke="black" stroke-width="0.278149"/>
<path d="M188.079 255.151C189.23 255.091 190.114 254.11 190.053 252.958C189.993 251.808 189.011 250.924 187.86 250.985C186.71 251.045 185.826 252.026 185.887 253.177C185.947 254.328 186.928 255.212 188.079 255.151Z" fill="black"/>
<path opacity="0.15" d="M237.351 250.479L212.66 251.773L213.954 276.464L238.645 275.17L237.351 250.479Z" stroke="black" stroke-width="0.278149"/>
<path d="M212.77 253.857C213.921 253.797 214.805 252.816 214.745 251.664C214.684 250.514 213.703 249.63 212.552 249.691C211.401 249.751 210.518 250.732 210.578 251.883C210.638 253.034 211.62 253.918 212.77 253.857Z" fill="black"/>
<path opacity="0.15" d="M262.042 249.186L237.352 250.479L238.646 275.17L263.336 273.876L262.042 249.186Z" stroke="black" stroke-width="0.278149"/>
<path d="M237.458 252.563C238.609 252.503 239.492 251.522 239.432 250.37C239.372 249.22 238.39 248.336 237.239 248.397C236.089 248.457 235.205 249.438 235.265 250.589C235.326 251.74 236.307 252.624 237.458 252.563Z" fill="black"/>
<path opacity="0.15" d="M115.191 281.641L90.5 282.935L91.794 307.625L116.485 306.331L115.191 281.641Z" stroke="black" stroke-width="0.278149"/>
<path d="M90.6102 285.017C91.7607 284.956 92.6445 283.975 92.5842 282.825C92.5239 281.674 91.5424 280.79 90.3919 280.851C89.2413 280.911 88.3575 281.893 88.4178 283.043C88.478 284.193 89.4596 285.077 90.6102 285.017Z" fill="black"/>
<path opacity="0.15" d="M139.882 280.347L115.191 281.641L116.485 306.331L141.176 305.037L139.882 280.347Z" stroke="black" stroke-width="0.278149"/>
<path d="M115.301 283.723C116.452 283.662 117.336 282.681 117.276 281.531C117.216 280.38 116.234 279.497 115.083 279.557C113.933 279.617 113.049 280.599 113.109 281.749C113.169 282.899 114.151 283.783 115.301 283.723Z" fill="black"/>
<path opacity="0.15" d="M164.574 279.053L139.883 280.347L141.177 305.037L165.868 303.743L164.574 279.053Z" stroke="black" stroke-width="0.278149"/>
<path d="M139.993 282.429C141.144 282.368 142.028 281.387 141.967 280.237C141.907 279.086 140.926 278.203 139.774 278.263C138.624 278.323 137.74 279.305 137.801 280.455C137.861 281.605 138.842 282.489 139.993 282.429Z" fill="black"/>
<path opacity="0.15" d="M189.265 277.758L164.574 279.052L165.868 303.742L190.559 302.448L189.265 277.758Z" stroke="black" stroke-width="0.278149"/>
<path d="M164.68 281.135C165.831 281.074 166.715 280.093 166.655 278.943C166.595 277.792 165.613 276.909 164.462 276.969C163.311 277.029 162.428 278.011 162.488 279.161C162.548 280.311 163.53 281.195 164.68 281.135Z" fill="black"/>
<path opacity="0.15" d="M213.952 276.464L189.262 277.758L190.556 302.449L215.246 301.155L213.952 276.464Z" stroke="black" stroke-width="0.278149"/>
<path d="M189.372 279.841C190.523 279.781 191.407 278.799 191.346 277.649C191.286 276.498 190.304 275.615 189.153 275.675C188.003 275.735 187.119 276.717 187.179 277.867C187.24 279.017 188.221 279.901 189.372 279.841Z" fill="black"/>
<path opacity="0.15" d="M238.644 275.17L213.953 276.464L215.247 301.155L239.938 299.861L238.644 275.17Z" stroke="black" stroke-width="0.278149"/>
<path d="M214.063 278.547C215.214 278.487 216.098 277.505 216.038 276.355C215.977 275.204 214.996 274.321 213.845 274.381C212.694 274.441 211.811 275.423 211.871 276.573C211.931 277.724 212.913 278.607 214.063 278.547Z" fill="black"/>
<path opacity="0.15" d="M263.335 273.876L238.645 275.17L239.939 299.861L264.629 298.567L263.335 273.876Z" stroke="black" stroke-width="0.278149"/>
<path d="M238.754 277.253C239.906 277.193 240.789 276.211 240.729 275.061C240.669 273.911 239.687 273.027 238.536 273.087C237.386 273.147 236.502 274.129 236.562 275.279C236.623 276.43 237.604 277.313 238.754 277.253Z" fill="black"/>
<path opacity="0.15" d="M116.488 306.331L91.7969 307.625L93.0908 332.315L117.782 331.021L116.488 306.331Z" stroke="black" stroke-width="0.278149"/>
<path d="M91.9032 309.708C93.0537 309.648 93.9375 308.666 93.8772 307.516C93.8169 306.365 92.8354 305.481 91.6848 305.541C90.5342 305.602 89.6504 306.583 89.7108 307.734C89.7711 308.885 90.7526 309.768 91.9032 309.708Z" fill="black"/>
<path opacity="0.15" d="M141.175 305.037L116.484 306.331L117.778 331.021L142.469 329.727L141.175 305.037Z" stroke="black" stroke-width="0.278149"/>
<path d="M116.594 308.414C117.745 308.354 118.629 307.372 118.569 306.222C118.509 305.071 117.527 304.187 116.376 304.247C115.226 304.308 114.342 305.289 114.402 306.44C114.462 307.591 115.444 308.474 116.594 308.414Z" fill="black"/>
<path opacity="0.15" d="M165.867 303.743L141.176 305.037L142.47 329.727L167.16 328.433L165.867 303.743Z" stroke="black" stroke-width="0.278149"/>
<path d="M141.286 307.12C142.437 307.06 143.321 306.078 143.26 304.928C143.2 303.777 142.219 302.893 141.067 302.953C139.917 303.014 139.033 303.995 139.094 305.146C139.154 306.297 140.135 307.18 141.286 307.12Z" fill="black"/>
<path opacity="0.15" d="M190.558 302.449L165.867 303.743L167.161 328.433L191.852 327.139L190.558 302.449Z" stroke="black" stroke-width="0.278149"/>
<path d="M165.973 305.826C167.124 305.766 168.008 304.784 167.948 303.634C167.887 302.483 166.906 301.599 165.755 301.659C164.604 301.72 163.721 302.701 163.781 303.852C163.841 305.003 164.823 305.886 165.973 305.826Z" fill="black"/>
<path opacity="0.15" d="M215.249 301.155L190.559 302.449L191.853 327.139L216.543 325.845L215.249 301.155Z" stroke="black" stroke-width="0.278149"/>
<path d="M190.665 304.532C191.816 304.472 192.7 303.49 192.639 302.34C192.579 301.189 191.597 300.305 190.446 300.365C189.296 300.426 188.412 301.407 188.472 302.558C188.533 303.709 189.514 304.592 190.665 304.532Z" fill="black"/>
<path opacity="0.15" d="M239.937 299.861L215.246 301.155L216.54 325.845L241.231 324.551L239.937 299.861Z" stroke="black" stroke-width="0.278149"/>
<path d="M215.356 303.238C216.507 303.178 217.391 302.196 217.331 301.046C217.27 299.895 216.289 299.011 215.138 299.072C213.987 299.132 213.104 300.113 213.164 301.264C213.224 302.415 214.206 303.299 215.356 303.238Z" fill="black"/>
<path opacity="0.15" d="M264.628 298.567L239.938 299.861L241.231 324.551L265.922 323.257L264.628 298.567Z" stroke="black" stroke-width="0.278149"/>
<path d="M240.047 301.944C241.199 301.884 242.082 300.902 242.022 299.752C241.962 298.601 240.98 297.717 239.829 297.778C238.679 297.838 237.795 298.819 237.855 299.971C237.916 301.121 238.897 302.005 240.047 301.944Z" fill="black"/>
<path opacity="0.15" d="M117.781 331.02L93.0898 332.314L94.3838 357.005L119.075 355.711L117.781 331.02Z" stroke="black" stroke-width="0.278149"/>
<path d="M93.2001 334.398C94.3506 334.338 95.2344 333.357 95.1741 332.205C95.1138 331.055 94.1322 330.171 92.9817 330.232C91.8311 330.292 90.9473 331.273 91.0076 332.424C91.0679 333.575 92.0495 334.459 93.2001 334.398Z" fill="black"/>
<path opacity="0.15" d="M142.472 329.727L117.781 331.021L119.075 355.711L143.766 354.417L142.472 329.727Z" stroke="black" stroke-width="0.278149"/>
<path d="M117.887 333.104C119.038 333.044 119.922 332.063 119.862 330.911C119.802 329.761 118.82 328.877 117.669 328.938C116.519 328.998 115.635 329.979 115.695 331.13C115.755 332.281 116.737 333.165 117.887 333.104Z" fill="black"/>
<path opacity="0.15" d="M167.159 328.433L142.469 329.727L143.763 354.417L168.453 353.123L167.159 328.433Z" stroke="black" stroke-width="0.278149"/>
<path d="M142.579 331.811C143.73 331.75 144.614 330.769 144.553 329.617C144.493 328.467 143.511 327.583 142.36 327.644C141.21 327.704 140.326 328.686 140.387 329.836C140.447 330.987 141.428 331.871 142.579 331.811Z" fill="black"/>
<path opacity="0.15" d="M191.851 327.139L167.16 328.433L168.454 353.123L193.145 351.829L191.851 327.139Z" stroke="black" stroke-width="0.278149"/>
<path d="M167.27 330.517C168.421 330.456 169.305 329.475 169.245 328.324C169.184 327.173 168.203 326.289 167.052 326.35C165.901 326.41 165.018 327.392 165.078 328.542C165.138 329.693 166.12 330.577 167.27 330.517Z" fill="black"/>
<path opacity="0.15" d="M216.542 325.845L191.852 327.139L193.146 351.829L217.836 350.535L216.542 325.845Z" stroke="black" stroke-width="0.278149"/>
<path d="M191.961 329.223C193.113 329.162 193.996 328.181 193.936 327.03C193.876 325.879 192.894 324.996 191.743 325.056C190.593 325.116 189.709 326.098 189.769 327.248C189.83 328.399 190.811 329.283 191.961 329.223Z" fill="black"/>
<path opacity="0.15" d="M241.234 324.551L216.543 325.845L217.837 350.535L242.528 349.241L241.234 324.551Z" stroke="black" stroke-width="0.278149"/>
<path d="M216.649 327.929C217.8 327.868 218.684 326.887 218.624 325.736C218.563 324.585 217.582 323.702 216.431 323.762C215.28 323.822 214.397 324.804 214.457 325.954C214.517 327.105 215.499 327.989 216.649 327.929Z" fill="black"/>
<path opacity="0.15" d="M265.921 323.257L241.23 324.551L242.524 349.242L267.215 347.948L265.921 323.257Z" stroke="black" stroke-width="0.278149"/>
<path d="M241.34 326.635C242.492 326.574 243.375 325.593 243.315 324.442C243.255 323.291 242.273 322.408 241.122 322.468C239.972 322.528 239.088 323.51 239.148 324.66C239.209 325.811 240.19 326.695 241.34 326.635Z" fill="black"/>
<path opacity="0.15" d="M119.074 355.712L94.3828 357.006L95.6768 381.697L120.368 380.403L119.074 355.712Z" stroke="black" stroke-width="0.278149"/>
<path d="M94.4931 359.089C95.6436 359.029 96.5273 358.046 96.467 356.896C96.4067 355.745 95.4252 354.862 94.2747 354.922C93.1241 354.982 92.2403 355.964 92.3006 357.114C92.3609 358.265 93.3425 359.149 94.4931 359.089Z" fill="black"/>
<path opacity="0.15" d="M143.765 354.418L119.074 355.712L120.368 380.403L145.059 379.109L143.765 354.418Z" stroke="black" stroke-width="0.278149"/>
<path d="M119.18 357.795C120.331 357.735 121.215 356.752 121.155 355.602C121.095 354.452 120.113 353.568 118.962 353.628C117.811 353.688 116.928 354.67 116.988 355.82C117.048 356.971 118.03 357.855 119.18 357.795Z" fill="black"/>
<path opacity="0.15" d="M168.452 353.124L143.762 354.418L145.056 379.109L169.746 377.815L168.452 353.124Z" stroke="black" stroke-width="0.278149"/>
<path d="M143.876 356.501C145.027 356.441 145.91 355.458 145.85 354.308C145.79 353.158 144.808 352.274 143.657 352.334C142.507 352.394 141.623 353.376 141.683 354.526C141.744 355.677 142.725 356.561 143.876 356.501Z" fill="black"/>
<path opacity="0.15" d="M193.148 351.829L168.457 353.123L169.751 377.814L194.442 376.52L193.148 351.829Z" stroke="black" stroke-width="0.278149"/>
<path d="M168.563 355.207C169.714 355.147 170.598 354.164 170.538 353.014C170.477 351.864 169.496 350.98 168.345 351.04C167.194 351.101 166.311 352.082 166.371 353.232C166.431 354.383 167.413 355.267 168.563 355.207Z" fill="black"/>
<path opacity="0.15" d="M217.835 350.535L193.145 351.829L194.439 376.52L219.129 375.226L217.835 350.535Z" stroke="black" stroke-width="0.278149"/>
<path d="M193.254 353.913C194.406 353.853 195.289 352.87 195.229 351.72C195.169 350.57 194.187 349.686 193.036 349.746C191.886 349.807 191.002 350.788 191.062 351.938C191.123 353.089 192.104 353.973 193.254 353.913Z" fill="black"/>
<path opacity="0.15" d="M242.527 349.241L217.836 350.535L219.13 375.226L243.821 373.932L242.527 349.241Z" stroke="black" stroke-width="0.278149"/>
<path d="M217.946 352.619C219.097 352.559 219.981 351.576 219.92 350.426C219.86 349.276 218.879 348.392 217.727 348.452C216.577 348.513 215.693 349.494 215.754 350.644C215.814 351.795 216.795 352.679 217.946 352.619Z" fill="black"/>
<path opacity="0.15" d="M267.218 347.947L242.527 349.241L243.821 373.932L268.512 372.638L267.218 347.947Z" stroke="black" stroke-width="0.278149"/>
<path d="M242.633 351.325C243.785 351.265 244.668 350.282 244.608 349.132C244.548 347.982 243.566 347.098 242.415 347.158C241.265 347.219 240.381 348.2 240.441 349.351C240.501 350.501 241.483 351.385 242.633 351.325Z" fill="black"/>
<path opacity="0.15" d="M120.367 380.402L95.6758 381.696L96.9697 406.386L121.66 405.092L120.367 380.402Z" stroke="black" stroke-width="0.278149"/>
<path d="M95.786 383.779C96.9365 383.719 97.8203 382.737 97.7601 381.587C97.6997 380.436 96.7182 379.552 95.5677 379.612C94.4171 379.673 93.5332 380.654 93.5936 381.805C93.6539 382.956 94.6354 383.84 95.786 383.779Z" fill="black"/>
<path opacity="0.15" d="M145.058 379.108L120.367 380.402L121.661 405.092L146.352 403.798L145.058 379.108Z" stroke="black" stroke-width="0.278149"/>
<path d="M120.477 382.485C121.628 382.425 122.512 381.444 122.452 380.293C122.391 379.142 121.41 378.258 120.259 378.319C119.108 378.379 118.225 379.36 118.285 380.512C118.345 381.662 119.327 382.546 120.477 382.485Z" fill="black"/>
<path opacity="0.15" d="M169.749 377.814L145.059 379.108L146.353 403.798L171.043 402.504L169.749 377.814Z" stroke="black" stroke-width="0.278149"/>
<path d="M145.168 381.191C146.32 381.131 147.203 380.15 147.143 378.999C147.083 377.848 146.101 376.964 144.95 377.025C143.8 377.085 142.916 378.066 142.976 379.218C143.037 380.368 144.018 381.252 145.168 381.191Z" fill="black"/>
<path opacity="0.15" d="M194.441 376.52L169.75 377.814L171.044 402.504L195.735 401.21L194.441 376.52Z" stroke="black" stroke-width="0.278149"/>
<path d="M169.856 379.897C171.007 379.837 171.891 378.856 171.831 377.705C171.77 376.554 170.789 375.67 169.638 375.731C168.487 375.791 167.604 376.772 167.664 377.924C167.724 379.074 168.706 379.958 169.856 379.897Z" fill="black"/>
<path opacity="0.15" d="M219.128 375.227L194.438 376.521L195.731 401.21L220.422 399.916L219.128 375.227Z" stroke="black" stroke-width="0.278149"/>
<path d="M194.547 378.603C195.699 378.543 196.582 377.562 196.522 376.411C196.462 375.26 195.48 374.376 194.329 374.437C193.179 374.497 192.295 375.478 192.355 376.63C192.416 377.78 193.397 378.664 194.547 378.603Z" fill="black"/>
<path opacity="0.15" d="M243.82 373.933L219.129 375.227L220.423 399.916L245.114 398.622L243.82 373.933Z" stroke="black" stroke-width="0.278149"/>
<path d="M219.239 377.31C220.39 377.249 221.274 376.268 221.213 375.117C221.153 373.966 220.172 373.082 219.02 373.143C217.87 373.203 216.986 374.185 217.047 375.336C217.107 376.486 218.088 377.37 219.239 377.31Z" fill="black"/>
<path opacity="0.15" d="M268.511 372.639L243.82 373.933L245.114 398.622L269.805 397.328L268.511 372.639Z" stroke="black" stroke-width="0.278149"/>
<path d="M243.93 376.016C245.081 375.955 245.965 374.974 245.905 373.823C245.845 372.672 244.863 371.789 243.712 371.849C242.561 371.909 241.678 372.891 241.738 374.042C241.798 375.192 242.78 376.076 243.93 376.016Z" fill="black"/>
<path opacity="0.15" d="M121.663 405.092L96.9727 406.386L98.2666 431.076L122.957 429.782L121.663 405.092Z" stroke="black" stroke-width="0.278149"/>
<path d="M97.079 408.47C98.2295 408.409 99.1133 407.427 99.053 406.277C98.9927 405.126 98.0111 404.243 96.8606 404.303C95.71 404.363 94.8262 405.345 94.8865 406.495C94.9468 407.645 95.9284 408.53 97.079 408.47Z" fill="black"/>
<path opacity="0.15" d="M146.351 403.798L121.66 405.092L122.954 429.783L147.645 428.489L146.351 403.798Z" stroke="black" stroke-width="0.278149"/>
<path d="M121.77 407.176C122.921 407.115 123.805 406.133 123.745 404.983C123.684 403.832 122.703 402.949 121.552 403.009C120.401 403.069 119.518 404.051 119.578 405.201C119.638 406.351 120.62 407.236 121.77 407.176Z" fill="black"/>
<path opacity="0.15" d="M171.042 402.504L146.352 403.798L147.646 428.489L172.336 427.195L171.042 402.504Z" stroke="black" stroke-width="0.278149"/>
<path d="M146.461 405.882C147.613 405.821 148.496 404.839 148.436 403.689C148.376 402.538 147.394 401.655 146.243 401.715C145.093 401.775 144.209 402.757 144.269 403.907C144.33 405.057 145.311 405.942 146.461 405.882Z" fill="black"/>
<path opacity="0.15" d="M195.734 401.21L171.043 402.504L172.337 427.195L197.028 425.901L195.734 401.21Z" stroke="black" stroke-width="0.278149"/>
<path d="M171.149 404.588C172.3 404.528 173.184 403.545 173.124 402.395C173.063 401.245 172.082 400.361 170.931 400.421C169.78 400.481 168.897 401.463 168.957 402.613C169.017 403.764 169.999 404.648 171.149 404.588Z" fill="black"/>
<path opacity="0.15" d="M220.425 399.916L195.734 401.21L197.028 425.901L221.719 424.607L220.425 399.916Z" stroke="black" stroke-width="0.278149"/>
<path d="M195.84 403.294C196.992 403.234 197.875 402.251 197.815 401.101C197.755 399.951 196.773 399.067 195.622 399.127C194.472 399.187 193.588 400.169 193.648 401.319C193.709 402.47 194.69 403.354 195.84 403.294Z" fill="black"/>
<path opacity="0.15" d="M245.113 398.622L220.422 399.916L221.716 424.607L246.407 423.313L245.113 398.622Z" stroke="black" stroke-width="0.278149"/>
<path d="M220.532 402C221.683 401.94 222.567 400.957 222.506 399.807C222.446 398.657 221.465 397.773 220.313 397.833C219.163 397.894 218.279 398.875 218.34 400.025C218.4 401.176 219.381 402.06 220.532 402Z" fill="black"/>
<path opacity="0.15" d="M269.804 397.328L245.113 398.622L246.407 423.313L271.098 422.019L269.804 397.328Z" stroke="black" stroke-width="0.278149"/>
<path d="M245.223 400.706C246.374 400.646 247.258 399.663 247.198 398.513C247.137 397.363 246.156 396.479 245.005 396.539C243.854 396.6 242.971 397.581 243.031 398.731C243.091 399.882 244.073 400.766 245.223 400.706Z" fill="black"/>
</g>
<path d="M80.8812 367.028C117.571 374.827 153.637 351.406 161.435 314.716C169.234 278.026 145.813 241.96 109.123 234.162C72.4328 226.363 36.3675 249.784 28.5688 286.475C20.7701 323.164 44.1911 359.23 80.8812 367.028Z" fill="#DED1BC" stroke="#021839" stroke-width="1.83374" stroke-miterlimit="10"/>
<path d="M140.21 310.203C138.417 318.643 134.424 326.047 128.956 331.953C126.539 334.565 123.833 336.891 120.9 338.869C119.516 339.807 118.086 340.666 116.608 341.444C111.977 343.895 106.915 345.57 101.635 346.336C98.0506 346.859 94.3549 346.959 90.6269 346.593C88.89 346.43 87.1471 346.163 85.3982 345.791C72.5286 343.055 62.0548 335.2 55.6557 324.823C53.8848 321.953 52.4274 318.887 51.3133 315.684C50.3185 312.801 49.6046 309.809 49.192 306.745C48.7787 303.728 48.6756 300.641 48.8895 297.518C49.0316 295.35 49.3347 293.174 49.7998 290.986C55.107 266.018 79.6457 250.083 104.613 255.389C121.797 259.042 134.697 271.8 139.345 287.547C141.028 293.238 141.628 299.322 140.966 305.503C140.796 307.071 140.543 308.639 140.21 310.203Z" fill="#FFCC00" stroke="#021839" stroke-width="1.83374" stroke-linecap="round" stroke-linejoin="round"/>
<path d="M140.965 305.504C138.663 303.637 135.885 302.264 132.781 301.604C126.374 300.242 120.031 302.212 115.57 306.353C115.587 306.319 115.586 306.277 115.594 306.242C115.13 306.593 114.626 306.87 114.108 307.06C113.232 307.389 112.307 307.483 111.387 307.287C109.957 306.984 108.787 306.032 108.017 304.71C107.937 304.736 107.862 304.757 107.783 304.778C107.028 305.002 106.235 305.044 105.451 304.877C103.693 304.504 102.334 303.16 101.628 301.342L101.63 301.333C101.594 301.26 101.569 301.18 101.539 301.098C100.504 301.623 99.371 301.818 98.2454 301.578C98.0841 301.545 97.929 301.502 97.7714 301.45C95.1614 300.609 94.137 297.425 95.5169 295.056C97.2618 292.095 99.4915 289.499 102.088 287.361C103.316 286.347 104.621 285.434 105.993 284.642C112.011 281.137 119.303 279.771 126.653 281.334C131.092 282.277 135.082 284.189 138.439 286.81C138.75 287.045 139.052 287.296 139.347 287.542C139.431 287.831 139.517 288.131 139.598 288.43C141.082 293.863 141.597 299.644 140.962 305.498L140.965 305.504Z" fill="white" stroke="#021839" stroke-width="1.83374" stroke-linecap="round" stroke-linejoin="round"/>
<path d="M140.209 310.203C138.416 318.642 134.423 326.047 128.955 331.953C126.539 334.565 123.832 336.891 120.899 338.869C118.812 338.899 116.691 338.691 114.556 338.237C112.723 337.848 110.966 337.292 109.292 336.589C105.282 334.902 101.79 332.37 98.9846 329.252C97.1996 327.265 95.7022 325.049 94.5225 322.661C96.6981 322.767 98.8426 322.534 100.878 321.978C104.189 321.083 107.223 319.357 109.688 316.999C112.122 314.675 114.002 311.719 115.055 308.33C115.248 307.729 115.407 307.116 115.54 306.488C115.549 306.448 115.558 306.403 115.558 306.361C118.296 303.821 121.73 302.104 125.459 301.458C127.71 301.074 130.066 301.078 132.432 301.548C132.546 301.563 132.657 301.587 132.774 301.611C135.877 302.271 138.655 303.644 140.958 305.512C140.789 307.079 140.535 308.646 140.203 310.212L140.209 310.203Z" fill="#48648E" stroke="#021839" stroke-width="1.83374" stroke-linecap="round" stroke-linejoin="round"/>
<path d="M128.956 331.953C126.54 334.565 123.833 336.891 120.9 338.869C119.515 339.807 118.086 340.666 116.608 341.444C111.977 343.894 106.915 345.57 101.635 346.336C98.0506 346.859 94.3548 346.958 90.6269 346.593C88.89 346.43 87.1471 346.163 85.3983 345.791C72.5286 343.055 62.0549 335.2 55.6557 324.822C53.8848 321.953 52.4274 318.887 51.3133 315.684C50.3185 312.801 49.6047 309.809 49.192 306.745C48.7788 303.728 48.6757 300.641 48.8895 297.518C55.5437 295.385 62.5978 294.302 69.542 295.257C77.699 296.372 84.8997 301.259 90.2508 307.351C94.2139 311.858 96.9454 317.463 100.884 321.974C101.649 322.854 102.46 323.687 103.336 324.464C107.51 328.177 112.748 330.434 118.216 331.409C121.747 332.042 125.358 332.205 128.956 331.953Z" fill="#8ECDDE" stroke="#021839" stroke-width="1.83374" stroke-linecap="round" stroke-linejoin="round"/>
<path d="M140.21 310.203C138.417 318.643 134.424 326.047 128.956 331.953C126.539 334.565 123.833 336.891 120.9 338.869C119.516 339.807 118.086 340.666 116.608 341.444C111.977 343.895 106.915 345.57 101.635 346.336C98.0506 346.859 94.3549 346.959 90.6269 346.593C88.89 346.43 87.147 346.163 85.3982 345.791C72.5286 343.055 62.0548 335.2 55.6557 324.823C53.8848 321.953 52.4274 318.887 51.3133 315.684C50.3185 312.801 49.6046 309.809 49.192 306.745C48.7787 303.728 48.6756 300.641 48.8895 297.518C49.0316 295.35 49.3347 293.174 49.7998 290.986C55.107 266.018 79.6457 250.083 104.613 255.389C121.797 259.042 134.697 271.8 139.345 287.547C141.028 293.238 141.628 299.322 140.966 305.503C140.796 307.071 140.543 308.639 140.21 310.203Z" stroke="#021839" stroke-width="1.83374" stroke-linecap="round" stroke-linejoin="round"/>
<path d="M51.0578 343.475L49.8833 342.335L55.6353 334.176L56.8592 335.364L53.5804 339.828L52.3751 341.169L53.6914 340.089L58.389 336.848L59.2378 337.671L56.0897 342.416L54.9438 343.834L56.3736 342.538L60.8071 339.195L62.021 340.372L53.9101 346.243L52.7456 345.113L55.8269 340.456L56.8302 339.264L55.6689 340.302L51.0578 343.475Z" fill="#021839"/>
<path d="M57.1914 348.912L58.1722 347.551L59.1095 348.226L62.9282 342.926L61.9908 342.25L62.9555 340.911L66.2027 343.251L65.238 344.589L64.323 343.93L60.5044 349.231L61.4195 349.89L60.4387 351.252L57.1914 348.912Z" fill="#021839"/>
<path d="M62.7196 352.723L67.6022 344.156L69.1795 345.055L65.1753 352.081L67.4694 353.388L66.5909 354.93L62.7196 352.723Z" fill="#021839"/>
<path d="M72.8291 347.048L75.1772 348.028C75.7102 348.25 76.1301 348.53 76.4695 348.895C77.1336 349.589 77.3181 350.576 76.7779 351.87L75.2368 355.564C74.9666 356.211 74.6405 356.671 74.2352 356.964C73.4445 357.573 72.4332 357.568 71.3671 357.123L69.0316 356.148L72.8291 347.048ZM73.8785 349.14L71.2727 355.385L71.9073 355.65C72.6055 355.941 73.1864 355.692 73.5995 354.702L75.0295 351.275C75.4479 350.272 75.1985 349.691 74.5005 349.4L73.8785 349.14Z" fill="#021839"/>
<path d="M81.4137 360.403L76.8851 359.184L79.4489 349.662L83.8978 350.86L83.4794 352.414L80.7305 351.674L80.094 354.037L82.511 354.688L82.0891 356.256L79.6721 355.605L79.0177 358.035L81.8464 358.797L81.4137 360.403Z" fill="#021839"/>
<path d="M86.3101 357.418L85.8301 361.156L84.1249 360.936L85.3813 351.156L88.0141 351.494C89.8556 351.73 90.5283 352.538 90.3198 354.161L90.1691 355.334C90.0465 356.289 89.627 356.748 88.9116 356.92C89.5912 357.243 89.7583 357.777 89.6338 358.746L89.35 360.956C89.3132 361.242 89.3823 361.459 89.5268 361.63L87.6716 361.392C87.5611 361.281 87.5381 361.028 87.5783 360.714L87.85 358.6C87.9394 357.904 87.7834 357.607 87.0468 357.512L86.3101 357.418ZM86.8937 352.875L86.5099 355.863L87.342 355.969C88.0377 356.059 88.3508 355.78 88.435 355.125L88.5751 354.034C88.6575 353.393 88.4215 353.071 87.7122 352.981L86.8937 352.875Z" fill="#021839"/>
<path d="M93.859 361.776L92.2499 361.786L92.1932 351.925L93.7747 351.916L96.0759 357.459L96.4262 358.571L96.3222 357.237L96.2916 351.902L97.9006 351.892L97.9574 361.753L96.4171 361.762L94.0606 356.178L93.7099 354.997L93.8284 356.468L93.859 361.776Z" fill="#021839"/>
<path d="M105.617 360.911L100.966 361.51L99.7057 351.73L104.275 351.141L104.481 352.737L101.657 353.101L101.97 355.529L104.453 355.209L104.66 356.819L102.177 357.139L102.499 359.635L105.404 359.26L105.617 360.911Z" fill="#021839"/>
<path d="M110.73 359.945C108.743 360.446 107.844 359.75 107.434 358.123L107.112 356.843L108.899 356.392L109.214 357.647C109.369 358.26 109.673 358.566 110.367 358.392C110.994 358.234 111.109 357.793 110.975 357.26L110.851 356.766C110.784 356.5 110.664 356.303 110.466 356.139C110.096 355.85 109.534 355.708 108.934 355.575C108.587 355.492 108.237 355.396 107.902 355.254C107.212 354.988 106.637 354.509 106.389 353.522L106.288 353.122C105.915 351.641 106.503 350.543 108.224 350.11C109.944 349.676 110.929 350.322 111.282 351.722L111.544 352.762L109.851 353.189L109.616 352.256C109.457 351.628 109.16 351.405 108.573 351.553C108 351.698 107.868 352.129 108.011 352.702L108.079 352.969C108.142 353.222 108.259 353.405 108.447 353.528C108.811 353.791 109.355 353.924 109.942 354.059C110.289 354.142 110.63 354.255 110.987 354.378C111.677 354.643 112.269 355.132 112.521 356.133L112.706 356.866C113.089 358.387 112.451 359.512 110.73 359.945Z" fill="#021839"/>
<path d="M118.344 357.485C116.442 358.246 115.458 357.677 114.835 356.119L114.344 354.894L116.055 354.208L116.535 355.409C116.77 355.997 117.112 356.26 117.777 355.994C118.376 355.753 118.432 355.301 118.228 354.791L118.039 354.318C117.937 354.062 117.792 353.884 117.574 353.749C117.168 353.511 116.594 353.445 115.981 353.394C115.625 353.358 115.266 353.31 114.915 353.213C114.195 353.042 113.562 352.644 113.183 351.699L113.03 351.316C112.462 349.899 112.899 348.732 114.546 348.073C116.193 347.413 117.255 347.921 117.793 349.262L118.191 350.257L116.57 350.906L116.211 350.013C115.972 349.413 115.647 349.231 115.085 349.456C114.536 349.676 114.462 350.121 114.683 350.67L114.784 350.925C114.881 351.167 115.022 351.334 115.224 351.43C115.619 351.642 116.176 351.701 116.776 351.757C117.132 351.792 117.484 351.859 117.855 351.932C118.574 352.103 119.226 352.509 119.61 353.467L119.891 354.169C120.473 355.625 119.991 356.825 118.344 357.485Z" fill="#021839"/>
<path d="M50.9219 270.484L49.7166 271.915L39.9512 266.012L41.2071 264.52L46.5615 267.901L48.1874 269.168L46.8502 267.753L42.777 262.657L43.648 261.623L49.3114 264.831L51.0201 266.024L49.4279 264.498L45.2584 259.711L46.5042 258.232L53.849 267.01L52.6538 268.428L47.0968 265.288L45.657 264.241L46.9347 265.481L50.9219 270.484Z" fill="#021839"/>
<path d="M60.2806 259.214L58.3895 260.675L59.1592 262.186L57.5542 263.426L52.6424 252.976L54.2475 251.737L63.1657 259.092L61.5606 260.331L60.2806 259.214ZM57.5774 259.058L58.9211 258.02L56.0396 255.498L54.9791 254.33L55.8405 255.652L57.5774 259.058Z" fill="#021839"/>
<path d="M67.9063 256.354L60.5027 247.495L62.3454 246.54L66.6265 251.9L67.4833 253.316L66.8219 251.799L64.8861 245.225L66.7149 244.277L69.721 255.414L67.9063 256.354Z" fill="#021839"/>
<path d="M81.3133 251.163L76.1721 252.682L72.9782 241.872L78.029 240.38L78.5501 242.144L75.4292 243.066L76.2221 245.749L78.9661 244.939L79.4917 246.718L76.7478 247.529L77.563 250.288L80.7743 249.339L81.3133 251.163Z" fill="#021839"/>
<path d="M96.0824 249.942C94.0556 249.872 92.866 248.778 92.9472 246.405L93.1091 241.676C93.1881 239.365 94.4989 238.294 96.4786 238.362C98.4584 238.43 99.6928 239.588 99.6138 241.899L99.4519 246.628C99.3713 248.984 98.062 250.009 96.0824 249.942ZM96.1469 248.056C96.9639 248.084 97.3122 247.561 97.3519 246.398L97.5052 241.921C97.5455 240.742 97.2339 240.197 96.4168 240.168C95.5684 240.139 95.2511 240.679 95.2113 241.842L95.058 246.32C95.0183 247.483 95.2984 248.026 96.1469 248.056Z" fill="#021839"/>
<path d="M107.198 246.666L106.199 251.066L104.267 250.627L106.765 239.635L111.654 240.746L111.237 242.586L108.278 241.913L107.617 244.827L110.345 245.446L109.927 247.286L107.198 246.666Z" fill="#021839"/>
<path d="M119.773 255.947L120.726 254.282L121.873 254.938L125.581 248.456L124.435 247.801L125.372 246.163L129.342 248.436L128.406 250.073L127.287 249.433L123.578 255.914L124.697 256.554L123.744 258.219L119.773 255.947Z" fill="#021839"/>
<path d="M135.069 252.391L137.284 254.275C137.787 254.704 138.146 255.154 138.389 255.67C138.87 256.657 138.727 257.795 137.688 259.016L134.723 262.5C134.204 263.111 133.689 263.499 133.146 263.676C132.072 264.064 130.974 263.706 129.968 262.851L127.765 260.976L135.069 252.391ZM135.482 255.034L130.47 260.925L131.069 261.434C131.728 261.995 132.447 261.926 133.241 260.992L135.992 257.759C136.797 256.813 136.728 256.094 136.069 255.533L135.482 255.034Z" fill="#021839"/>
<path d="M139.304 272.884L135.964 268.691L144.781 261.667L148.062 265.787L146.623 266.933L144.596 264.388L142.407 266.131L144.19 268.369L142.739 269.525L140.956 267.287L138.706 269.079L140.792 271.699L139.304 272.884Z" fill="#021839"/>
<path d="M145.397 279.955L144.294 277.835L142.671 278.325L141.735 276.526L152.888 273.541L153.824 275.34L145.008 282.816L144.071 281.017L145.397 279.955ZM146.03 277.322L146.814 278.828L149.806 276.438L151.143 275.601L149.689 276.215L146.03 277.322Z" fill="#021839"/>
<path d="M147.229 289.785C146.573 287.536 147.329 286.48 149.169 285.943L150.618 285.519L151.209 287.541L149.79 287.956C149.097 288.159 148.759 288.519 148.989 289.303C149.197 290.013 149.705 290.127 150.308 289.95L150.866 289.787C151.168 289.698 151.387 289.553 151.566 289.32C151.88 288.884 152.019 288.238 152.144 287.546C152.224 287.146 152.318 286.742 152.467 286.354C152.741 285.554 153.264 284.877 154.381 284.551L154.834 284.418C156.508 283.928 157.789 284.554 158.358 286.5C158.926 288.447 158.231 289.6 156.647 290.063L155.47 290.407L154.91 288.491L155.966 288.182C156.676 287.974 156.917 287.625 156.724 286.962C156.534 286.313 156.036 286.18 155.387 286.369L155.086 286.458C154.799 286.542 154.594 286.683 154.462 286.902C154.177 287.329 154.049 287.956 153.92 288.632C153.84 289.033 153.725 289.427 153.601 289.839C153.327 290.64 152.794 291.337 151.662 291.667L150.832 291.91C149.111 292.413 147.798 291.732 147.229 289.785Z" fill="#021839"/>
</g>
</g>
</g>
</g>
<defs>
<clipPath id="clip0_172_3339">
<rect width="235.032" height="399.998" fill="white" transform="translate(0.292969 13.1123) rotate(-3)"/>
</clipPath>
<clipPath id="clip1_172_3339">
<rect width="235.032" height="399.998" fill="white" transform="translate(0.292969 13.1123) rotate(-3)"/>
</clipPath>
<clipPath id="clip2_172_3339">
<rect width="235.03" height="445.038" fill="white" transform="translate(-0.886719 -9.37598) rotate(-3)"/>
</clipPath>
</defs>
</svg>
