<svg width="257" height="413" viewBox="0 0 257 413" fill="none" xmlns="http://www.w3.org/2000/svg">
<g clip-path="url(#clip0_172_4315)">
<g clip-path="url(#clip1_172_4315)">
<g clip-path="url(#clip2_172_4315)">
<mask id="mask0_172_4315" style="mask-type:alpha" maskUnits="userSpaceOnUse" x="0" y="-24" width="257" height="461">
<path d="M213.269 -23.1519L20.0868 -13.0276C8.61996 -12.4266 -0.188612 -2.64371 0.412342 8.82317L21.7963 416.854C22.3973 428.321 32.1802 437.129 43.6471 436.528L236.83 426.404C248.297 425.803 257.105 416.02 256.504 404.553L235.12 -3.47736C234.519 -14.9442 224.736 -23.7528 213.269 -23.1519Z" fill="#C5C3C4"/>
</mask>
<g mask="url(#mask0_172_4315)">
<mask id="mask1_172_4315" style="mask-type:alpha" maskUnits="userSpaceOnUse" x="0" y="-24" width="257" height="461">
<path d="M213.269 -23.1519L20.0868 -13.0276C8.61996 -12.4266 -0.188612 -2.64371 0.412342 8.82317L21.7963 416.854C22.3973 428.321 32.1802 437.129 43.6471 436.528L236.83 426.404C248.297 425.803 257.105 416.02 256.504 404.553L235.12 -3.47736C234.519 -14.9442 224.736 -23.7528 213.269 -23.1519Z" fill="#C5C3C4"/>
</mask>
<g mask="url(#mask1_172_4315)">
<path d="M129.324 -42.9873L154.364 434.8" stroke="black" stroke-width="0.903962"/>
<path d="M89.2305 -40.8867L114.27 436.9" stroke="black" stroke-width="0.903962"/>
<path d="M172.273 -45.4434L200.328 489.871" stroke="black" stroke-width="0.903962"/>
<path d="M215.152 -47.6904L243.207 487.624" stroke="black" stroke-width="0.903962"/>
<path d="M908.788 173.035L102.656 215.282" stroke="black" stroke-width="0.903962"/>
<path d="M911.01 215.462L104.879 257.71" stroke="black" stroke-width="0.903962"/>
<path d="M913.284 258.793L107.152 301.041" stroke="black" stroke-width="0.903962"/>
<path d="M897.53 -41.8129L91.3984 0.43457" stroke="black" stroke-width="0.903962"/>
<path d="M915.506 301.221L109.375 343.469" stroke="black" stroke-width="0.903962"/>
<path d="M899.799 1.51717L93.668 43.7646" stroke="black" stroke-width="0.903962"/>
<path d="M917.776 344.552L111.645 386.8" stroke="black" stroke-width="0.903962"/>
<path d="M902.022 43.9458L95.8906 86.1934" stroke="black" stroke-width="0.903962"/>
<path d="M920.049 387.882L113.918 430.13" stroke="black" stroke-width="0.903962"/>
<path d="M904.295 87.2759L98.1641 129.523" stroke="black" stroke-width="0.903962"/>
<path d="M906.518 129.705L100.387 171.952" stroke="black" stroke-width="0.903962"/>
<path d="M64.933 231.239L169.566 247.958C174.399 248.731 177.689 253.279 176.918 258.107L164.43 336.261L42.2962 316.745L54.7843 238.591C55.5566 233.758 60.1055 230.468 64.933 231.239Z" fill="#FF7C80" stroke="black" stroke-width="0.903962" stroke-miterlimit="10"/>
<path d="M159.173 255.124L72.5793 241.286C67.7465 240.515 63.2028 243.806 62.4307 248.639L54.0901 300.836C53.3179 305.669 56.6096 310.212 61.4423 310.985L148.037 324.821C152.869 325.594 157.413 322.302 158.185 317.47L166.526 265.272C167.298 260.439 164.006 255.896 159.173 255.124Z" fill="#FFB3B9" stroke="black" stroke-width="0.903962" stroke-miterlimit="10"/>
<path d="M42.2981 316.752L25.7353 339.387L170.946 362.591L164.438 336.268L42.2981 316.752Z" fill="#FF7C80" stroke="black" stroke-width="0.903962" stroke-miterlimit="10"/>
<path d="M171.077 362.612L25.7327 339.387L23.3832 354.091L168.727 377.316L171.077 362.612Z" fill="#FF7C80" stroke="black" stroke-width="0.903962" stroke-miterlimit="10"/>
<path d="M67.9756 326.971L54.3755 324.798L53.8737 327.939L67.4738 330.112L67.9756 326.971Z" fill="#BA3F49"/>
<path d="M66.8388 334.096L53.2388 331.923L52.737 335.064L66.3371 337.237L66.8388 334.096Z" fill="#BA3F49"/>
<path d="M80.8584 332.512L67.2583 330.339L66.7565 333.479L80.3565 335.653L80.8584 332.512Z" fill="#BA3F49"/>
<path d="M94.581 331.223L80.9811 329.05L80.4792 332.191L94.0792 334.364L94.581 331.223Z" fill="#BA3F49"/>
<path d="M93.4443 338.348L79.8443 336.175L79.3425 339.316L92.9425 341.489L93.4443 338.348Z" fill="#BA3F49"/>
<path d="M107.46 336.763L93.8599 334.59L93.3581 337.73L106.958 339.903L107.46 336.763Z" fill="#BA3F49"/>
<path d="M120.667 335.391L107.067 333.218L106.565 336.359L120.165 338.532L120.667 335.391Z" fill="#BA3F49"/>
<path d="M119.531 342.516L105.93 340.343L105.428 343.483L119.028 345.656L119.531 342.516Z" fill="#BA3F49"/>
<path d="M133.542 340.931L119.942 338.757L119.44 341.898L133.041 344.071L133.542 340.931Z" fill="#BA3F49"/>
<path d="M147.269 339.642L133.669 337.469L133.167 340.609L146.767 342.782L147.269 339.642Z" fill="#BA3F49"/>
<path d="M146.128 346.767L132.529 344.594L132.026 347.734L145.627 349.907L146.128 346.767Z" fill="#BA3F49"/>
<path d="M101.264 257.758C92.8524 264.636 92.3928 279.87 84.0064 280.254C80.9226 280.393 78.5494 278.471 78.4972 275.629C78.4227 270.86 83.138 269.235 83.8875 271.204C82.805 271.64 82.0534 272.533 82.1104 273.6C82.1533 274.899 83.2503 275.654 84.499 275.604C87.7904 275.447 91.8287 265.844 94.1111 262.493C92.1431 264.659 88.9619 269.54 86.0316 269.68C84.4765 269.761 83.5931 268.63 83.5198 267.202C83.3635 263.587 87.6039 260.161 87.9665 257.891C88.2033 256.41 87.0421 255.593 85.5833 255.713C82.5079 255.978 80.4163 258.455 80.1282 260.258C79.9349 261.468 80.4447 262.409 81.5045 262.578C80.2922 264.609 76.1915 263.527 76.2868 260.224C76.3909 256.725 79.9784 253.752 84.7108 253.73C88.2082 253.708 90.6864 255.293 90.8442 257.618C91.0463 260.484 87.3503 263.814 87.4354 265.346C87.4529 265.879 87.7951 266.087 88.2283 266.083C90.3689 265.969 95.0585 260.089 98.1848 256.514C98.3121 256.358 98.608 256.252 98.9856 256.238C99.7788 256.188 100.957 256.576 101.273 257.77L101.264 257.758Z" fill="#DD1D35"/>
<path d="M98.3173 275.098C96.292 274.774 95.1955 273.409 95.5582 271.14C96.1735 267.29 100.508 263.453 103.93 263.726C105.775 263.895 106.69 265.152 106.31 266.889C105.879 268.795 103.209 269.984 101.139 269.654C100.795 269.598 100.453 269.492 100.149 269.37C99.7317 270.698 100.296 271.619 101.669 271.889C103.27 272.168 104.767 271.803 105.646 270.903L106.249 271.579C103.317 274.577 100.493 275.44 98.3237 275.093L98.3173 275.098ZM103.693 266.494C102.579 266.338 101.238 267.29 100.635 268.355C104.205 269.306 105.584 266.693 103.693 266.494Z" fill="#DD1D35"/>
<path d="M108.93 276.72C108.498 276.725 108.082 276.658 107.671 276.519C105.953 276.017 104.726 274.506 105.018 272.681C105.354 270.583 107.56 268.028 109.929 268.406C111.411 268.644 111.812 269.618 111.497 270.455C111.069 271.525 109.9 271.719 109.129 271.493C109.662 270.998 109.909 270.099 109.254 269.744C108.04 269.117 107.243 270.612 107.415 271.425C107.588 272.085 108.145 272.554 108.853 272.719C110.238 273.065 111.736 272.269 112.097 270.932C112.534 269.306 111.471 268.049 111.568 266.978C111.67 265.703 112.891 265.039 113.929 265.205C114.967 265.371 115.817 266.064 115.664 267.024C115.593 267.468 115.453 267.701 115.198 267.735C114.334 268.228 115.165 270.006 114.683 272.381C114.538 273.143 114.221 273.85 113.774 274.438C114.928 274.014 116.012 273.43 116.758 272.713L117.333 273.385C115.373 275.223 111.626 276.798 108.93 276.726L108.93 276.72Z" fill="#DD1D35"/>
<path d="M107.335 288.875C106.511 291.504 102.278 292.318 99.2242 291.347C101.926 292.637 103.502 294.989 103.57 297.231C103.701 301.326 99.7712 303.913 96.2644 303.353C93.7952 302.958 92.2679 301.121 92.5995 299.045C92.8477 297.492 94.0961 296.019 95.0633 296.304C94.6374 297.402 95.5699 298.69 97.2456 298.957C98.9213 299.225 100.114 298.278 100.386 296.574C100.737 294.377 99.0616 292.186 96.5147 291.352C93.1849 296.664 90.0229 302.207 85.2121 301.439C82.2491 300.965 80.3986 298.621 80.8517 295.786C81.7898 289.915 88.3706 288.332 89.3376 291.753C87.4122 291.446 85.5414 292.54 85.2382 294.438C85.0175 295.82 85.7669 296.827 87.1707 297.051C90.4279 297.572 93.8987 288.208 99.0541 283.188C96.0638 283.063 92.4781 283.958 91.9578 286.43C91.7661 287.31 92.0154 288.135 92.5764 288.577C89.9494 289.171 88.422 287.333 88.7103 285.53C89.1952 282.495 94.1439 280.832 99.715 281.722C99.9868 281.766 100.259 281.81 100.527 281.875C101.216 281.377 102.59 280.538 103.478 280.68C104.244 280.802 104.803 281.574 104.546 282.722C104.338 282.74 103.941 282.876 103.713 283.022C106.326 284.401 108.048 286.622 107.328 288.886L107.335 288.875ZM99.3274 290.202C101.819 290.6 104.356 289.288 104.704 287.112C104.932 285.681 104.08 284.532 102.443 283.843C100.652 285.224 99.0753 287.328 97.5988 289.624C98.157 289.941 98.7337 290.107 99.3274 290.202Z" fill="#DD1D35"/>
<path d="M116.028 307.774C114.594 309.621 112.465 310.596 110.839 310.336C110.345 310.257 109.87 310.056 109.519 309.722C107.947 308.309 108.439 304.769 110.484 302.261C108.695 303.95 106.626 304.86 105.344 304.655C104.307 304.489 103.871 303.583 104.1 302.152C104.715 298.301 109.691 293.303 112.626 293.772C114.008 293.993 114.676 295.186 114.713 296.558L116.331 294.512C117.672 294.852 118.353 295.467 118.27 296.165C118.113 297.608 115.047 300.987 113.654 303.827C112.862 305.469 112.629 306.929 113.736 307.761C114.007 307.957 114.364 308.111 114.735 308.17C115.202 308.245 115.678 308.144 116.04 307.77L116.028 307.774ZM109.986 301.391C110.399 301.332 110.964 301.143 111.383 300.727L114.046 297.384C114.033 297.001 113.8 296.714 113.329 296.638C111.209 296.3 107.762 301.064 109.665 301.368C109.765 301.384 109.864 301.4 109.99 301.397L109.986 301.391Z" fill="#DD1D35"/>
<path d="M126.328 305.067C124.896 306.586 123.241 307.613 121.882 307.395C120.672 307.202 119.915 306.097 119.907 304.548C119.416 305.556 119.13 306.421 119.083 306.999C115.713 306.079 115.969 304.151 117.245 302.33L125.692 290.17C127.055 290.513 127.783 291.01 127.517 292.033C127.389 292.518 125.63 295.123 123.717 298.078C125.224 296.878 127.054 296.18 128.241 296.371C129.351 296.548 129.786 297.454 129.535 299.029C129.283 300.606 128.418 302.391 127.261 303.93C128 303.895 128.694 303.681 129.255 303.162L129.858 303.839C128.668 304.809 127.455 305.099 126.321 305.072L126.328 305.067ZM123.029 302.919C124.636 301.736 126.056 298.718 124.746 298.509C124.053 298.399 123.232 299.126 122.719 299.625C122.179 300.477 121.69 301.332 121.198 302.165L120.867 302.669C121.34 302.415 122.116 302.619 123.03 302.912L123.029 302.919Z" fill="#DD1D35"/>
<path d="M131.614 308.871C129.589 308.547 128.492 307.183 128.855 304.913C129.471 301.062 133.806 297.226 137.227 297.499C139.072 297.669 139.987 298.924 139.607 300.662C139.177 302.568 136.506 303.758 134.436 303.426C134.092 303.372 133.75 303.266 133.446 303.143C133.028 304.47 133.593 305.391 134.966 305.662C136.567 305.94 138.064 305.577 138.943 304.675L139.546 305.353C136.614 308.349 133.79 309.213 131.62 308.866L131.614 308.871ZM136.989 300.266C135.877 300.112 134.534 301.064 133.932 302.128C137.501 303.08 138.881 300.467 136.989 300.266Z" fill="#DD1D35"/>
<path d="M140.41 306.861C141.77 307.079 142.58 308.17 142.364 309.524C142.147 310.878 141.029 311.713 139.67 311.495C138.311 311.278 137.479 310.183 137.703 308.779C137.927 307.375 139.057 306.645 140.41 306.861ZM142.647 306.183L141.24 305.481C141.902 301.336 145.051 295.415 148.359 293.69C150.816 292.415 154.128 293.701 153.303 296.153C150.225 296.116 144.191 302.362 142.641 306.188L142.647 306.183Z" fill="#DD1D35"/>
</g>
</g>
</g>
</g>
</g>
<defs>
<clipPath id="clip0_172_4315">
<rect width="235.032" height="399.998" fill="white" transform="translate(0.636719 13.1123) rotate(-3)"/>
</clipPath>
<clipPath id="clip1_172_4315">
<rect width="235.032" height="399.998" fill="white" transform="translate(0.636719 13.1123) rotate(-3)"/>
</clipPath>
<clipPath id="clip2_172_4315">
<rect width="235.03" height="450.173" fill="white" transform="translate(-0.675781 -11.9395) rotate(-3)"/>
</clipPath>
</defs>
</svg>
