<svg width="236" height="401" viewBox="0 0 236 401" fill="none" xmlns="http://www.w3.org/2000/svg">
<g clip-path="url(#clip0_172_4384)">
<g clip-path="url(#clip1_172_4384)">
<g clip-path="url(#clip2_172_4384)">
<mask id="mask0_172_4384" style="mask-type:alpha" maskUnits="userSpaceOnUse" x="0" y="-45" width="236" height="491">
<path d="M211.408 -44.1436H24.2159C11.0058 -44.1436 0.296875 -33.4347 0.296875 -20.2246V421.757C0.296875 434.967 11.0058 445.676 24.2159 445.676H211.408C224.618 445.676 235.327 434.967 235.327 421.757V-20.2246C235.327 -33.4347 224.618 -44.1436 211.408 -44.1436Z" fill="#C5C3C4"/>
</mask>
<g mask="url(#mask0_172_4384)">
<path d="M145.277 -91.7871V458.634" stroke="black" stroke-width="1.03996"/>
<path d="M99.0898 -91.7871V458.634" stroke="black" stroke-width="1.03996"/>
<path d="M194.766 -92.0225V524.671" stroke="black" stroke-width="1.03996"/>
<path d="M1027.77 203.325H99.0898" stroke="black" stroke-width="1.03996"/>
<path d="M1027.77 252.203H99.0898" stroke="black" stroke-width="1.03996"/>
<path d="M1027.77 302.12H99.0898" stroke="black" stroke-width="1.03996"/>
<path d="M1027.77 350.998H99.0898" stroke="black" stroke-width="1.03996"/>
<path d="M1027.77 5.7334H99.0898" stroke="black" stroke-width="1.03996"/>
<path d="M1027.77 400.916H99.0898" stroke="black" stroke-width="1.03996"/>
<path d="M1027.77 54.6113H99.0898" stroke="black" stroke-width="1.03996"/>
<path d="M1027.77 104.529H99.0898" stroke="black" stroke-width="1.03996"/>
<path d="M1027.77 153.407H99.0898" stroke="black" stroke-width="1.03996"/>
<path d="M90.2517 372.943C133.65 372.943 168.831 337.761 168.831 294.363C168.831 250.965 133.65 215.783 90.2517 215.783C46.8532 215.783 11.6719 250.965 11.6719 294.363C11.6719 337.761 46.8532 372.943 90.2517 372.943Z" fill="white" stroke="black" stroke-width="0.913719"/>
<path d="M132.266 291.268L131.461 292.269L132.632 292.019C133.821 292.355 134.776 293.307 135.05 294.595C135.444 296.45 134.275 298.266 132.417 298.661C131.262 298.907 130.118 298.539 129.323 297.788L128.347 296.868L128.558 298.192C129.616 304.856 125.249 311.272 118.544 312.698C114.946 313.462 111.411 312.631 108.608 310.726L108.196 310.446L107.953 310.881C106.956 312.657 105.214 314.006 103.06 314.465C100.363 315.038 97.7152 314.078 96.0239 312.177L95.6245 311.727L95.2987 312.233C93.5126 315 90.6678 317.098 87.1765 317.84C81.5859 319.029 76.0496 316.369 73.3733 311.675L73.0228 311.061L72.6069 311.633C71.5576 313.076 70.0162 314.142 68.1354 314.543C64.5633 315.302 61.0443 313.33 59.7603 310.06L59.565 309.563L59.1041 309.834C58.3988 310.247 57.6342 310.561 56.8225 310.733C52.9416 311.558 49.1264 309.089 48.3054 305.227C47.4844 301.364 49.9655 297.556 53.8464 296.731C54.2372 296.648 54.643 296.604 55.0637 296.583L55.6736 296.55L55.4702 295.974C55.2998 295.492 55.1539 295.013 55.0465 294.508C53.6712 288.037 57.8309 281.656 64.3294 280.274C67.2357 279.656 70.1332 280.153 72.5568 281.463L73.1374 281.777L73.2268 281.123C74.2898 273.339 80.1229 266.685 88.2699 264.952C95.5282 263.41 102.71 266.192 107.112 271.552L107.401 271.904L107.753 271.616C108.924 270.661 110.304 269.971 111.872 269.637C117.107 268.525 122.239 271.846 123.346 277.056C123.512 277.834 123.568 278.617 123.55 279.378L123.536 280.047L124.164 279.816C124.444 279.714 124.729 279.632 125.042 279.566C128.989 278.727 132.886 281.248 133.72 285.176C134.193 287.402 133.595 289.615 132.266 291.268Z" fill="#1EB24D" stroke="black" stroke-width="0.913719"/>
<path d="M76.3856 287.44L78.193 295.943L76.3618 296.332L74.5545 287.829L72.8795 288.185L72.5234 286.511L77.7187 285.406L78.0748 287.081L76.3856 287.44ZM82.88 295.11C81.0489 295.499 79.7396 294.784 79.284 292.64L78.3758 288.367C77.9323 286.281 78.8678 285.029 80.6563 284.648C82.4449 284.268 83.8089 285.031 84.2525 287.118L85.1607 291.39C85.6132 293.52 84.6686 294.729 82.88 295.11ZM82.5179 293.407C83.2561 293.25 83.4516 292.704 83.2283 291.653L82.3684 287.608C82.1421 286.543 81.7415 286.124 81.0033 286.281C80.2368 286.443 80.0727 286.997 80.296 288.048L81.1559 292.093C81.3792 293.144 81.7515 293.569 82.5179 293.407ZM87.6079 285.055L89.4152 293.557L87.5841 293.946L85.7767 285.444L84.1018 285.8L83.7457 284.125L88.941 283.021L89.2971 284.696L87.6079 285.055ZM94.0478 291L91.8902 291.459L91.9261 293.024L90.0949 293.413L90.1886 282.755L92.0198 282.367L96.4969 292.053L94.6658 292.442L94.0478 291ZM91.8615 289.789L93.3946 289.462L92.0063 286.211L91.591 284.817L91.7792 286.26L91.8615 289.789ZM96.8212 291.983L94.6577 281.806L96.5315 281.408L98.3056 289.754L101.031 289.174L101.42 291.005L96.8212 291.983ZM101.996 290.884L99.8323 280.706L101.706 280.307L103.48 288.654L106.205 288.075L106.595 289.906L101.996 290.884ZM107.356 289.744L106.581 286.096L103.12 280.007L105.023 279.602L106.829 283.076L107.127 283.918L107.056 283.028L107.337 279.11L109.224 278.709L108.469 285.694L109.244 289.343L107.356 289.744ZM81.5077 308.159C79.3928 308.609 78.4726 307.84 78.1046 306.109L77.8149 304.746L79.717 304.342L80.0006 305.676C80.1395 306.329 80.448 306.664 81.1862 306.507C81.8533 306.366 81.993 305.905 81.8722 305.337L81.7606 304.812C81.7002 304.528 81.581 304.317 81.3796 304.137C81 303.817 80.4145 303.644 79.7864 303.482C79.4236 303.38 79.058 303.265 78.7116 303.101C77.9935 302.794 77.4064 302.266 77.1832 301.216L77.0927 300.79C76.7578 299.214 77.4215 298.079 79.2527 297.69C81.0838 297.3 82.0972 298.02 82.4139 299.51L82.6494 300.618L80.8466 301L80.6354 300.007C80.4936 299.34 80.1888 299.093 79.5644 299.226C78.9539 299.355 78.7971 299.804 78.9269 300.415L78.9872 300.699C79.0445 300.968 79.1607 301.166 79.3531 301.303C79.7266 301.595 80.2949 301.756 80.9089 301.922C81.2717 302.023 81.6262 302.156 81.9978 302.299C82.7159 302.606 83.3202 303.146 83.5465 304.21L83.7124 304.991C84.0563 306.609 83.3389 307.771 81.5077 308.159ZM84.8161 307.293L82.6528 297.115L84.5265 296.717L86.3007 305.064L89.0261 304.484L89.4152 306.316L84.8161 307.293ZM93.5007 303.875L91.3431 304.334L91.3791 305.899L89.5479 306.288L89.6415 295.63L91.4727 295.241L95.9498 304.926L94.1186 305.316L93.5007 303.875ZM91.3144 302.663L92.8475 302.337L91.4593 299.086L91.0439 297.691L91.2321 299.135L91.3144 302.663ZM96.7651 304.754L95.9897 301.105L92.5293 295.017L94.4315 294.612L96.238 298.085L96.5355 298.927L96.4651 298.038L96.7451 294.12L98.6331 293.719L97.8776 300.704L98.6531 304.352L96.7651 304.754ZM105.859 302.82L101.019 303.849L98.8554 293.672L103.611 292.661L103.964 294.322L101.025 294.946L101.562 297.473L104.146 296.924L104.502 298.599L101.919 299.148L102.471 301.745L105.494 301.102L105.859 302.82ZM104.279 292.519L106.905 291.96C107.502 291.834 108.033 291.825 108.547 291.938C109.54 292.142 110.292 292.888 110.6 294.335L111.478 298.466C111.632 299.19 111.624 299.785 111.449 300.282C111.127 301.285 110.248 301.888 109.055 302.141L106.442 302.697L104.279 292.519ZM106.445 293.705L107.929 300.688L108.64 300.538C109.421 300.372 109.775 299.808 109.539 298.7L108.725 294.868C108.487 293.746 107.922 293.391 107.141 293.557L106.445 293.705Z" fill="black"/>
<path d="M38.4509 270.574L38.9836 269.508L34.6038 267.306L34.1728 268.168L33.1073 267.635C33.3423 266.922 33.1465 266.42 32.4883 265.88L33.0603 264.752L39.7045 268.089L40.2138 267.071L41.6006 267.768L39.8378 271.279L38.4509 270.581V270.574Z" fill="black"/>
<path d="M39.5869 265.982L36.3901 263.992C34.823 263.02 34.5958 261.68 35.4264 260.332C36.2569 258.992 37.5654 258.6 39.1324 259.58L42.3292 261.57C43.9354 262.573 44.1392 263.89 43.3008 265.229C42.4467 266.601 41.1931 266.977 39.5869 265.974V265.982ZM41.3655 262.95L38.2941 261.045C37.4949 260.551 36.9856 260.544 36.6408 261.092C36.2804 261.664 36.5625 262.119 37.3304 262.597L40.4018 264.501C41.1931 264.994 41.6788 265.01 42.0393 264.438C42.384 263.881 42.1568 263.435 41.3733 262.941L41.3655 262.95Z" fill="black"/>
<path d="M42.9299 260.709L39.9681 258.39C38.5187 257.253 38.4324 255.898 39.4041 254.652C40.3756 253.406 41.7155 253.163 43.165 254.299L46.1267 256.619C47.6154 257.786 47.6702 259.118 46.6986 260.364C45.7036 261.641 44.4186 261.876 42.9299 260.709ZM45.0219 257.887L42.1777 255.662C41.4333 255.083 40.932 255.02 40.5245 255.537C40.1093 256.07 40.3365 256.548 41.0495 257.104L43.8937 259.33C44.6223 259.902 45.1081 259.973 45.5234 259.439C45.9229 258.922 45.7506 258.459 45.0219 257.887Z" fill="black"/>
<path d="M44.0141 253.218L43.1523 252.355C42.4784 251.682 42.5411 250.89 43.1679 250.263C43.7948 249.636 44.594 249.574 45.2599 250.24L46.1218 251.101C46.7799 251.76 46.7564 252.528 46.0905 253.194C45.4166 253.868 44.6723 253.868 44.0141 253.218ZM45.2913 251.815L44.5313 251.054C44.2805 250.804 44.0611 250.78 43.8731 250.968C43.685 251.156 43.7163 251.376 43.9671 251.626L44.7271 252.387C44.9778 252.637 45.1972 252.661 45.3853 252.473C45.5733 252.285 45.542 252.065 45.2913 251.815ZM48.5037 256.798C48.3077 255.998 47.9474 254.863 47.5634 253.586L46.4352 249.903C46.1061 248.813 45.871 247.983 45.824 247.724L46.9837 246.557C46.9993 246.698 47.0542 246.964 47.1639 247.356C47.3989 248.155 47.728 249.276 48.1276 250.56L49.2559 254.228C49.5928 255.341 49.8199 256.148 49.8592 256.406L48.6761 257.598C48.6604 257.456 48.6055 257.19 48.4959 256.798H48.5037ZM50.4546 253.93L49.5771 253.052C48.9032 252.378 48.9424 251.571 49.5771 250.937C50.2039 250.31 51.0188 250.271 51.6848 250.937L52.5623 251.815C53.2205 252.473 53.197 253.24 52.531 253.907C51.8571 254.581 51.1128 254.604 50.4468 253.938L50.4546 253.93ZM51.7396 252.52L50.9561 251.744C50.7054 251.493 50.4859 251.469 50.2979 251.658C50.1099 251.846 50.1412 252.065 50.3841 252.316L51.1676 253.092C51.4106 253.327 51.6299 253.358 51.818 253.17C52.006 252.983 51.9746 252.763 51.7396 252.52Z" fill="black"/>
<path d="M54.5342 249.096L53.829 248.117L55.1923 247.129L55.8818 248.086C56.2187 248.556 56.5792 248.712 57.1119 248.328C57.5899 247.984 57.5429 247.568 57.2452 247.16L56.9709 246.785C56.822 246.581 56.6575 246.455 56.4303 246.385C56.015 246.268 55.4979 246.33 54.9416 246.424C54.6203 246.471 54.2913 246.51 53.9622 246.503C53.2883 246.51 52.6381 246.299 52.0974 245.546L51.8781 245.24C51.0631 244.113 51.1886 242.985 52.5048 242.036C53.8133 241.088 54.871 241.3 55.6389 242.373L56.2109 243.165L54.9181 244.096L54.401 243.384C54.0562 242.906 53.7271 242.819 53.2805 243.141C52.8418 243.455 52.8731 243.87 53.1943 244.3L53.3432 244.504C53.4843 244.701 53.641 244.81 53.8446 244.857C54.2443 244.958 54.7457 244.888 55.2863 244.802C55.6075 244.755 55.9367 244.739 56.2814 244.716C56.9552 244.716 57.6212 244.92 58.1697 245.687L58.5771 246.244C59.4154 247.403 59.2509 248.571 57.9425 249.519C56.4303 250.616 55.4352 250.326 54.5342 249.088V249.096Z" fill="black"/>
<path d="M55.9141 239.85L57.3402 239.011L61.0853 245.358L63.1617 244.136L63.9843 245.53L60.4899 247.599L55.922 239.857L55.9141 239.85Z" fill="black"/>
<path d="M65.4115 243.336L65.7483 244.645L64.2831 245.327L62.2852 236.339L63.7504 235.658L69.4074 242.937L67.9422 243.619L67.143 242.529L65.4193 243.336H65.4115ZM66.289 241.362L64.4868 238.893L63.8679 237.796L64.3066 238.973L65.0667 241.926L66.2968 241.354L66.289 241.362Z" fill="black"/>
<path d="M69.2255 239.614L65.5195 234.835L67.0943 234.256L69.0689 237.005L69.4292 237.687L69.2569 236.936L69.014 233.55L70.581 232.979L70.7926 239.042L71.9052 242.068L70.3382 242.64L69.2255 239.614Z" fill="black"/>
<path d="M76.945 240.562L75.3779 240.97L73.474 233.707L72.0401 234.082L71.6641 232.648L76.0987 231.481L76.4749 232.916L75.0332 233.291L76.9372 240.555L76.945 240.562Z" fill="black"/>
<path d="M78.6443 238.58L79.6785 238.4L78.66 232.531L77.6257 232.71L77.3672 231.23L80.9635 230.604L81.2221 232.084L80.2114 232.264L81.2299 238.133L82.2406 237.953L82.5071 239.458L78.9107 240.085L78.6522 238.58H78.6443Z" fill="black"/>
<path d="M82.8417 237.17L82.7399 235.971L84.4166 235.829L84.5184 237.004C84.5654 237.576 84.7927 237.898 85.4429 237.844C86.0306 237.796 86.203 237.412 86.156 236.911L86.1168 236.448C86.0933 236.197 86.0149 236.002 85.8661 235.829C85.5762 235.516 85.0904 235.304 84.5733 235.093C84.2756 234.967 83.9699 234.827 83.6957 234.654C83.1159 234.317 82.6694 233.8 82.591 232.876L82.5597 232.499C82.4421 231.112 83.1316 230.211 84.7456 230.07C86.3597 229.93 87.1511 230.657 87.2608 231.967L87.347 232.938L85.7642 233.071L85.6859 232.193C85.6389 231.606 85.4038 231.363 84.8554 231.41C84.3147 231.457 84.1345 231.825 84.1815 232.358L84.205 232.608C84.2286 232.844 84.3069 233.032 84.4557 233.165C84.7456 233.455 85.2158 233.652 85.7251 233.863C86.0228 233.988 86.3127 234.137 86.6183 234.301C87.1981 234.638 87.6603 235.171 87.7387 236.104L87.7936 236.793C87.9111 238.219 87.1746 239.136 85.5606 239.277C83.6957 239.434 82.9906 238.673 82.8652 237.154L82.8417 237.17Z" fill="black"/>
<path d="M90.2468 238.957L88.6641 238.933L88.813 229.945L92.8089 230.008L92.7854 231.513L90.3643 231.473L90.3252 233.856L92.5582 233.894L92.5347 235.399L90.3016 235.359L90.2468 238.957Z" fill="black"/>
<path d="M93.4692 237.492L94.5191 237.585L95.0441 231.654L93.9941 231.56L94.1273 230.063L97.7629 230.385L97.6297 231.881L96.6033 231.795L96.0783 237.727L97.1047 237.821L96.9715 239.348L93.3359 239.028L93.4692 237.499V237.492Z" fill="black"/>
<path d="M97.7852 239.426L99.3209 230.572L103.458 231.293L103.207 232.734L100.653 232.295L100.269 234.497L102.518 234.889L102.267 236.347L100.018 235.955L99.6265 238.212L102.259 238.666L102.001 240.163L97.7852 239.434V239.426Z" fill="black"/>
<path d="M107.345 232.265C107.855 232.406 108.263 232.61 108.615 232.899C109.296 233.456 109.571 234.326 109.234 235.556L108.263 239.074C108.09 239.693 107.847 240.148 107.518 240.453C106.875 241.096 105.959 241.205 104.94 240.923L102.715 240.305L105.113 231.638L107.345 232.258V232.265ZM104.65 239.364L105.253 239.529C105.92 239.709 106.414 239.419 106.68 238.479L107.58 235.211C107.847 234.255 107.558 233.761 106.891 233.573L106.296 233.409L104.65 239.356V239.364Z" fill="black"/>
<path d="M113.525 242.325L114.598 242.851L116.753 238.447L115.884 238.024L116.409 236.951C117.121 237.178 117.622 236.974 118.156 236.315L119.291 236.872L116.024 243.548L117.05 244.05L116.369 245.444L112.844 243.721L113.525 242.325Z" fill="black"/>
<path d="M118.132 243.415L120.09 240.203C121.046 238.627 122.387 238.384 123.734 239.208C125.081 240.03 125.481 241.331 124.526 242.906L122.566 246.118C121.58 247.732 120.263 247.944 118.915 247.129C117.536 246.291 117.144 245.037 118.132 243.423V243.415ZM121.179 245.163L123.052 242.075C123.538 241.268 123.546 240.758 122.99 240.421C122.409 240.069 121.963 240.352 121.493 241.127L119.62 244.214C119.135 245.005 119.119 245.491 119.699 245.844C120.255 246.181 120.702 245.954 121.187 245.163H121.179Z" fill="black"/>
<path d="M123.436 246.706L125.724 243.721C126.844 242.256 128.2 242.161 129.453 243.118C130.707 244.074 130.965 245.413 129.845 246.878L127.557 249.864C126.405 251.368 125.074 251.431 123.82 250.476C122.535 249.488 122.285 248.211 123.436 246.706ZM126.272 248.775L128.466 245.907C129.038 245.162 129.093 244.653 128.576 244.253C128.036 243.839 127.557 244.074 127.009 244.794L124.815 247.662C124.251 248.399 124.181 248.884 124.721 249.292C125.238 249.691 125.708 249.511 126.272 248.775Z" fill="black"/>
<path d="M127.405 252.238C128.203 252.034 129.332 251.666 130.609 251.265L134.284 250.106C135.373 249.769 136.204 249.527 136.462 249.48L137.637 250.631C137.496 250.647 137.23 250.71 136.838 250.819C136.039 251.063 134.918 251.4 133.641 251.815L129.983 252.974C128.87 253.327 128.063 253.554 127.812 253.601L126.613 252.426C126.755 252.41 127.021 252.347 127.412 252.238H127.405ZM130.287 254.165L131.158 253.28C131.823 252.598 132.63 252.637 133.273 253.264C133.908 253.883 133.954 254.698 133.297 255.372L132.427 256.257C131.777 256.923 131.009 256.9 130.335 256.25C129.653 255.583 129.63 254.839 130.287 254.165ZM130.938 247.716L131.784 246.847C132.451 246.164 133.242 246.22 133.876 246.847C134.511 247.465 134.574 248.265 133.916 248.939L133.069 249.808C132.419 250.474 131.651 250.451 130.977 249.801C130.296 249.135 130.287 248.39 130.938 247.724V247.716ZM131.706 255.426L132.473 254.635C132.717 254.384 132.741 254.165 132.552 253.977C132.364 253.789 132.145 253.821 131.894 254.071L131.127 254.863C130.892 255.105 130.868 255.324 131.056 255.513C131.244 255.701 131.464 255.67 131.706 255.426ZM132.349 248.97L133.101 248.202C133.344 247.951 133.367 247.732 133.18 247.544C132.991 247.356 132.772 247.387 132.521 247.638L131.768 248.406C131.526 248.656 131.502 248.876 131.69 249.064C131.879 249.252 132.098 249.221 132.349 248.97Z" fill="black"/>
<path d="M135.167 258.201L136.14 257.488L137.135 258.843L136.187 259.541C135.724 259.886 135.568 260.246 135.959 260.771C136.311 261.249 136.719 261.194 137.127 260.897L137.503 260.622C137.706 260.473 137.832 260.301 137.894 260.081C138.012 259.666 137.934 259.148 137.84 258.592C137.792 258.271 137.754 257.942 137.754 257.613C137.738 256.94 137.942 256.289 138.694 255.741L139 255.521C140.12 254.698 141.248 254.816 142.204 256.116C143.159 257.417 142.956 258.475 141.898 259.25L141.115 259.831L140.166 258.545L140.872 258.028C141.342 257.676 141.428 257.355 141.107 256.907C140.785 256.477 140.379 256.508 139.947 256.829L139.743 256.978C139.556 257.12 139.438 257.284 139.399 257.479C139.304 257.88 139.375 258.381 139.47 258.922C139.516 259.243 139.539 259.572 139.563 259.909C139.579 260.583 139.368 261.249 138.615 261.806L138.059 262.212C136.907 263.059 135.739 262.91 134.776 261.609C133.671 260.105 133.945 259.11 135.176 258.201H135.167Z" fill="black"/>
<path d="M144.421 259.485L145.274 260.904L138.959 264.712L140.205 266.773L138.818 267.612L136.719 264.132L144.412 259.485H144.421Z" fill="black"/>
<path d="M141.025 269.013L139.716 269.359L139.02 267.9L147.99 265.816L148.688 267.274L141.463 273.003L140.767 271.544L141.847 270.729L141.025 269.013ZM143.007 269.875L145.452 268.05L146.541 267.415L145.365 267.869L142.419 268.653L143.007 269.875Z" fill="black"/>
<path d="M144.79 272.799L149.538 269.046L150.133 270.62L147.406 272.618L146.725 272.986L147.477 272.806L150.862 272.532L151.45 274.092L145.386 274.358L142.369 275.502L141.781 273.943L144.797 272.806L144.79 272.799Z" fill="black"/>
<path d="M143.912 280.509L143.488 278.949L150.737 276.975L150.345 275.548L151.77 275.157L152.977 279.584L151.551 279.976L151.159 278.534L143.912 280.509Z" fill="black"/>
<path d="M145.907 282.186L146.095 283.221L151.948 282.139L151.76 281.106L153.241 280.831L153.899 284.42L152.418 284.693L152.23 283.683L146.377 284.764L146.565 285.775L145.061 286.05L144.402 282.461L145.907 282.186Z" fill="black"/>
<path d="M147.365 286.386L148.563 286.268L148.72 287.937L147.545 288.047C146.973 288.102 146.651 288.337 146.714 288.98C146.769 289.567 147.153 289.731 147.646 289.685L148.108 289.638C148.36 289.614 148.555 289.536 148.728 289.379C149.041 289.081 149.245 288.603 149.449 288.078C149.574 287.78 149.707 287.475 149.879 287.193C150.216 286.605 150.726 286.158 151.65 286.065L152.027 286.025C153.413 285.892 154.322 286.574 154.471 288.188C154.628 289.794 153.907 290.594 152.599 290.718L151.626 290.813L151.478 289.23L152.355 289.144C152.943 289.089 153.186 288.854 153.131 288.306C153.084 287.765 152.708 287.592 152.176 287.639L151.925 287.663C151.69 287.687 151.509 287.765 151.369 287.914C151.078 288.204 150.89 288.674 150.686 289.191C150.561 289.488 150.412 289.787 150.256 290.092C149.919 290.68 149.402 291.142 148.461 291.228L147.771 291.29C146.346 291.424 145.421 290.695 145.272 289.081C145.092 287.224 145.844 286.511 147.372 286.362L147.365 286.386Z" fill="black"/>
<path d="M145.641 293.815L145.617 292.232L154.604 292.082L154.667 296.079L153.163 296.102L153.124 293.68L150.742 293.72L150.781 295.953L149.277 295.977L149.237 293.744L145.641 293.806V293.815Z" fill="black"/>
<path d="M147.145 297.011L147.067 298.06L152.998 298.523L153.077 297.473L154.574 297.59L154.291 301.226L152.795 301.109L152.874 300.082L146.942 299.62L146.864 300.647L145.336 300.529L145.618 296.894L147.145 297.011Z" fill="black"/>
<path d="M145.252 301.336L154.121 302.778L153.447 306.923L151.998 306.688L152.413 304.126L150.212 303.766L149.843 306.014L148.385 305.779L148.754 303.53L146.49 303.162L146.059 305.795L144.562 305.551L145.244 301.328L145.252 301.336Z" fill="black"/>
<path d="M152.508 310.849C152.375 311.359 152.171 311.774 151.881 312.119C151.333 312.8 150.47 313.09 149.233 312.761L145.706 311.821C145.088 311.656 144.633 311.421 144.32 311.084C143.669 310.442 143.552 309.533 143.826 308.515L144.422 306.289L153.103 308.6L152.508 310.841V310.849ZM145.385 308.224L145.221 308.828C145.041 309.493 145.338 309.987 146.287 310.238L149.553 311.108C150.51 311.366 151.003 311.069 151.184 310.402L151.34 309.807L145.378 308.216L145.385 308.224Z" fill="black"/>
<path d="M142.509 317.118L141.992 318.191L146.411 320.307L146.826 319.437L147.899 319.954C147.68 320.668 147.883 321.169 148.55 321.694L148.001 322.838L141.294 319.633L140.8 320.659L139.398 319.985L141.09 316.444L142.493 317.11L142.509 317.118Z" fill="black"/>
<path d="M141.466 321.74L144.694 323.66C146.277 324.6 146.535 325.94 145.728 327.295C144.921 328.65 143.628 329.066 142.045 328.118L138.817 326.198C137.188 325.234 136.968 323.919 137.775 322.555C138.598 321.168 139.844 320.769 141.473 321.732L141.466 321.74ZM139.75 324.804L142.852 326.653C143.659 327.131 144.169 327.131 144.506 326.575C144.85 325.994 144.561 325.548 143.785 325.085L140.682 323.236C139.883 322.758 139.397 322.751 139.052 323.33C138.724 323.886 138.95 324.334 139.75 324.812V324.804Z" fill="black"/>
<path d="M138.239 327.061L141.248 329.318C142.721 330.423 142.838 331.778 141.89 333.04C140.942 334.301 139.61 334.576 138.138 333.471L135.128 331.215C133.616 330.078 133.529 328.746 134.478 327.484C135.449 326.192 136.726 325.925 138.239 327.061ZM136.202 329.921L139.093 332.084C139.845 332.648 140.355 332.703 140.746 332.178C141.153 331.637 140.911 331.159 140.19 330.619L137.298 328.456C136.555 327.899 136.069 327.837 135.669 328.378C135.278 328.903 135.465 329.364 136.202 329.921Z" fill="black"/>
<path d="M130.832 334.004L131.725 334.865C132.415 335.523 132.384 336.33 131.756 336.981C131.138 337.624 130.322 337.678 129.648 337.028L128.755 336.166C128.09 335.523 128.097 334.756 128.748 334.073C129.406 333.384 130.15 333.353 130.832 334.004ZM129.578 335.437L130.378 336.205C130.628 336.448 130.855 336.472 131.036 336.283C131.216 336.095 131.185 335.868 130.934 335.633L130.134 334.865C129.892 334.63 129.664 334.607 129.484 334.802C129.304 334.991 129.335 335.21 129.578 335.445V335.437ZM132.736 331.096C132.947 331.887 133.324 333.016 133.73 334.293L134.922 337.961C135.275 339.041 135.517 339.872 135.572 340.131L134.436 341.314C134.413 341.173 134.357 340.907 134.24 340.522C133.989 339.731 133.645 338.611 133.213 337.334L132.023 333.69C131.662 332.577 131.427 331.778 131.373 331.519L132.532 330.305C132.555 330.446 132.61 330.712 132.728 331.096H132.736ZM137.288 334.591L138.166 335.437C138.855 336.095 138.808 336.887 138.189 337.529C137.57 338.172 136.778 338.243 136.097 337.592L135.22 336.746C134.546 336.103 134.561 335.336 135.211 334.654C135.87 333.964 136.614 333.949 137.288 334.591ZM136.042 336.017L136.818 336.762C137.069 337.004 137.296 337.028 137.476 336.84C137.656 336.652 137.625 336.432 137.374 336.19L136.599 335.445C136.348 335.202 136.12 335.179 135.94 335.367C135.76 335.554 135.792 335.774 136.042 336.017Z" fill="black"/>
<path d="M126.845 338.924L127.565 339.888L126.226 340.899L125.512 339.959C125.168 339.496 124.8 339.347 124.283 339.739C123.813 340.092 123.867 340.507 124.173 340.907L124.455 341.275C124.605 341.479 124.776 341.597 125.004 341.666C125.419 341.777 125.936 341.699 126.492 341.597C126.813 341.541 127.143 341.502 127.472 341.502C128.146 341.479 128.796 341.683 129.36 342.419L129.587 342.717C130.425 343.829 130.316 344.958 129.023 345.937C127.731 346.917 126.673 346.72 125.882 345.663L125.294 344.88L126.563 343.923L127.088 344.621C127.44 345.091 127.769 345.177 128.208 344.84C128.64 344.519 128.6 344.104 128.271 343.672L128.122 343.469C127.981 343.281 127.817 343.164 127.613 343.132C127.213 343.038 126.711 343.124 126.171 343.218C125.849 343.273 125.521 343.297 125.184 343.32C124.51 343.344 123.836 343.14 123.272 342.388L122.856 341.839C121.995 340.695 122.136 339.528 123.428 338.549C124.925 337.427 125.92 337.694 126.845 338.908V338.924Z" fill="black"/>
<path d="M125.656 348.186L124.246 349.056L120.375 342.787L118.33 344.049L117.484 342.67L120.939 340.539L125.664 348.186H125.656Z" fill="black"/>
<path d="M116.098 344.886L115.737 343.586L117.187 342.873L119.357 351.822L117.908 352.534L112.117 345.365L113.567 344.651L114.389 345.726L116.098 344.886ZM115.26 346.877L117.109 349.306L117.751 350.388L117.289 349.22L116.474 346.282L115.26 346.877Z" fill="black"/>
<path d="M112.36 348.679L116.16 353.388L114.592 353.999L112.572 351.288L112.204 350.614L112.391 351.366L112.697 354.744L111.145 355.347L110.816 349.282L109.648 346.281L111.2 345.678L112.368 348.679H112.36Z" fill="black"/>
<path d="M104.641 347.879L106.2 347.441L108.245 354.665L109.671 354.266L110.079 355.692L105.667 356.946L105.259 355.52L106.693 355.112L104.648 347.888L104.641 347.879Z" fill="black"/>
<path d="M102.972 349.894L101.938 350.098L103.074 355.944L104.108 355.74L104.398 357.213L100.817 357.91L100.528 356.437L101.538 356.241L100.402 350.396L99.3914 350.592L99.1016 349.087L102.682 348.39L102.972 349.894Z" fill="black"/>
<path d="M98.795 351.399L98.9204 352.597L97.2515 352.769L97.1261 351.594C97.0635 351.022 96.8285 350.701 96.1859 350.771C95.5983 350.834 95.4416 351.218 95.4886 351.712L95.5356 352.174C95.5591 352.425 95.6453 352.62 95.802 352.793C96.0998 353.106 96.5855 353.303 97.1105 353.498C97.416 353.616 97.7138 353.749 97.9958 353.921C98.5835 354.25 99.038 354.76 99.1398 355.684L99.179 356.061C99.32 357.447 98.654 358.356 97.04 358.528C95.4338 358.693 94.6268 357.988 94.4857 356.679L94.3838 355.708L95.9666 355.543L96.0606 356.413C96.1233 357.001 96.3583 357.236 96.9068 357.181C97.4396 357.126 97.6198 356.75 97.565 356.217L97.5415 355.966C97.518 355.731 97.4317 355.551 97.2828 355.41C96.9851 355.128 96.515 354.932 96.0058 354.736C95.7001 354.618 95.4103 354.47 95.1046 354.314C94.5171 353.984 94.0469 353.467 93.9451 352.534L93.8746 351.845C93.7257 350.426 94.4466 349.494 96.0528 349.322C97.9097 349.126 98.6305 349.87 98.7872 351.39L98.795 351.399Z" fill="black"/>
<path d="M91.3153 349.752L92.898 349.729L93.0468 358.717L89.0509 358.779L89.0273 357.275L91.4484 357.236L91.4093 354.853L89.1762 354.893L89.1527 353.388L91.3858 353.35L91.3231 349.752H91.3153Z" fill="black"/>
<path d="M88.1721 351.282L87.1222 351.211L86.7226 357.15L87.7726 357.221L87.6706 358.726L84.0352 358.482L84.137 356.978L85.1634 357.048L85.5631 351.109L84.5366 351.038L84.6384 349.511L88.274 349.761L88.1721 351.289V351.282Z" fill="black"/>
<path d="M83.8245 349.433L82.4691 358.325L78.3164 357.691L78.5357 356.241L81.1057 356.633L81.4426 354.423L79.1861 354.079L79.4055 352.614L81.6621 352.958L82.0068 350.686L79.3663 350.287L79.5936 348.79L83.8245 349.433Z" fill="black"/>
<path d="M74.3888 356.782C73.8795 356.649 73.4643 356.452 73.1117 356.17C72.4222 355.629 72.1245 354.767 72.4457 353.53L73.3467 349.996C73.5035 349.377 73.7385 348.914 74.0675 348.601C74.7022 347.95 75.6111 347.817 76.6375 348.076L78.8706 348.648L76.6454 357.361L74.3967 356.789L74.3888 356.782ZM76.9431 349.628L76.3397 349.471C75.6738 349.298 75.1802 349.604 74.9373 350.552L74.0989 353.835C73.856 354.791 74.1538 355.285 74.8197 355.457L75.4152 355.607L76.9431 349.628Z" fill="black"/>
<path d="M68.0125 346.846L66.9313 346.345L64.8628 350.787L65.7403 351.195L65.2388 352.277C64.518 352.064 64.0244 352.277 63.4994 352.95L62.3477 352.417L65.4896 345.678L64.4553 345.192L65.1135 343.782L68.6707 345.443L68.0125 346.854V346.846Z" fill="black"/>
<path d="M63.3984 345.859L61.51 349.111C60.5855 350.701 59.2535 350.976 57.8823 350.185C56.519 349.393 56.0881 348.1 57.0205 346.502L58.9088 343.25C59.8568 341.612 61.1732 341.377 62.5364 342.169C63.9389 342.983 64.3464 344.221 63.3984 345.859ZM60.319 344.175L58.5013 347.301C58.0312 348.116 58.039 348.625 58.6032 348.954C59.1908 349.291 59.6375 349.001 60.0919 348.225L61.9097 345.099C62.3719 344.299 62.3876 343.806 61.7999 343.47C61.2358 343.14 60.797 343.375 60.3269 344.182L60.319 344.175Z" fill="black"/>
<path d="M58.0212 342.669L55.796 345.702C54.7069 347.191 53.3515 347.316 52.0821 346.376C50.8128 345.443 50.5229 344.111 51.6198 342.622L53.845 339.59C54.9655 338.062 56.2974 337.968 57.5668 338.9C58.8674 339.856 59.1495 341.133 58.0212 342.662V342.669ZM55.1379 340.663L52.9988 343.571C52.4425 344.33 52.3955 344.84 52.9205 345.223C53.469 345.624 53.939 345.38 54.4719 344.651L56.6109 341.745C57.1594 341 57.2221 340.514 56.6736 340.115C56.1486 339.731 55.6864 339.919 55.1379 340.663Z" fill="black"/>
<path d="M53.9319 337.201C53.1405 337.42 52.0202 337.812 50.743 338.227L47.0918 339.458C46.0105 339.817 45.1879 340.076 44.9292 340.131L43.7305 339.003C43.8715 338.979 44.1379 338.917 44.5219 338.799C45.3132 338.54 46.4258 338.18 47.7029 337.742L51.3385 336.511C52.4432 336.143 53.2424 335.893 53.501 335.837L54.7232 336.989C54.5822 337.013 54.3159 337.075 53.9319 337.193V337.201ZM50.4845 341.785L49.6538 342.67C49.0036 343.368 48.2122 343.328 47.5619 342.717C46.9116 342.106 46.8332 341.315 47.4757 340.625L48.3063 339.739C48.9409 339.065 49.7166 339.065 50.3982 339.708C51.0955 340.358 51.119 341.103 50.4766 341.785H50.4845ZM51.0093 335.328L50.1632 336.23C49.5128 336.926 48.7058 336.903 48.0476 336.284C47.3974 335.673 47.3346 334.858 47.985 334.177L48.8311 333.275C49.4658 332.601 50.2415 332.601 50.9232 333.244C51.6205 333.894 51.6597 334.638 51.0172 335.328H51.0093ZM49.0428 340.546L48.3063 341.331C48.0633 341.588 48.0476 341.808 48.2358 341.989C48.4316 342.169 48.651 342.138 48.886 341.879L49.6225 341.095C49.8655 340.837 49.8811 340.617 49.6931 340.437C49.4972 340.256 49.2778 340.288 49.0428 340.546ZM49.5598 334.082L48.8076 334.889C48.5648 335.148 48.5491 335.367 48.7371 335.547C48.9253 335.727 49.1524 335.696 49.3875 335.438L50.1397 334.631C50.3747 334.388 50.3903 334.16 50.2023 333.98C50.0143 333.8 49.7871 333.831 49.5598 334.082Z" fill="black"/>
<path d="M46.0472 331.394L45.0914 332.131L44.065 330.798L44.9974 330.078C45.4519 329.725 45.6007 329.357 45.2011 328.839C44.8407 328.369 44.4332 328.433 44.0337 328.738L43.6654 329.02C43.4695 329.169 43.3442 329.341 43.2815 329.568C43.1718 329.984 43.258 330.501 43.3598 331.057C43.4147 331.379 43.4617 331.707 43.4617 332.037C43.493 332.711 43.2972 333.368 42.5606 333.933L42.2628 334.16C41.1581 335.006 40.0298 334.913 39.0426 333.627C38.0554 332.342 38.2434 331.284 39.2855 330.485L40.0611 329.89L41.0328 331.151L40.3354 331.685C39.8653 332.044 39.7869 332.374 40.1239 332.813C40.453 333.243 40.8603 333.197 41.2913 332.867L41.4872 332.718C41.6753 332.57 41.785 332.405 41.8241 332.209C41.9103 331.809 41.8241 331.308 41.7301 330.767C41.6753 330.446 41.6439 330.125 41.6204 329.78C41.589 329.106 41.785 328.433 42.5371 327.861L43.0855 327.437C44.2217 326.567 45.3892 326.693 46.3764 327.978C47.5124 329.459 47.2539 330.462 46.0472 331.394Z" fill="black"/>
<path d="M36.7877 330.313L35.9023 328.91L42.1392 324.977L40.8542 322.939L42.2253 322.077L44.3957 325.509L36.7956 330.313H36.7877Z" fill="black"/>
<path d="M39.9831 320.699L41.2836 320.322L42.0123 321.765L33.0803 324.029L32.3516 322.587L39.4659 316.718L40.1946 318.16L39.129 318.99L39.9831 320.69V320.699ZM37.985 319.883L35.5718 321.756L34.4983 322.406L35.6658 321.929L38.5962 321.082L37.985 319.876V319.883Z" fill="black"/>
<path d="M36.1521 316.984L31.4824 320.832L30.8555 319.273L33.5431 317.219L34.2169 316.844L33.4726 317.039L30.0955 317.384L29.4766 315.84L35.5332 315.449L38.5263 314.25L39.1452 315.793L36.1521 316.992V316.984Z" fill="black"/>
<path d="M36.8739 309.266L37.3283 310.817L30.1277 312.941L30.543 314.358L29.1249 314.774L27.832 310.37L29.2502 309.955L29.6733 311.389L36.8739 309.266Z" fill="black"/>
<path d="M34.8436 307.621L34.632 306.586L28.8027 307.777L29.0142 308.812L27.5412 309.109L26.8125 305.536L28.2855 305.239L28.4892 306.25L34.3186 305.059L34.1149 304.048L35.6115 303.742L36.3402 307.315L34.8436 307.621Z" fill="black"/>
<path d="M33.3087 303.468L32.1098 303.609L31.914 301.94L33.0814 301.807C33.6534 301.744 33.9667 301.501 33.8962 300.858C33.8257 300.271 33.4419 300.114 32.9482 300.169L32.486 300.224C32.2352 300.255 32.0472 300.341 31.8748 300.498C31.5692 300.796 31.3733 301.29 31.1775 301.814C31.06 302.12 30.9346 302.426 30.7622 302.707C30.441 303.303 29.9395 303.766 29.0149 303.867L28.6388 303.906C27.2521 304.063 26.3353 303.405 26.1472 301.791C25.9592 300.184 26.6644 299.37 27.9729 299.22L28.9444 299.111L29.1246 300.694L28.2549 300.796C27.6673 300.867 27.4322 301.109 27.4949 301.65C27.5576 302.183 27.9259 302.355 28.4665 302.292L28.7172 302.261C28.9523 302.237 29.1325 302.151 29.2656 301.995C29.5478 301.697 29.7358 301.219 29.9238 300.71C30.0413 300.404 30.1824 300.114 30.3391 299.801C30.6603 299.205 31.1775 298.735 32.1098 298.626L32.7915 298.546C34.2097 298.382 35.1499 299.096 35.3379 300.701C35.5495 302.559 34.813 303.288 33.293 303.46L33.3087 303.468Z" fill="black"/>
<path d="M34.8778 295.976L34.9169 297.559L25.93 297.771L25.8359 293.775L27.3403 293.735L27.3951 296.156L29.7771 296.102L29.7223 293.868L31.2265 293.83L31.2815 296.063L34.8778 295.976Z" fill="black"/>
<path d="M33.3185 292.826L33.3812 291.777L27.4342 291.432L27.3716 292.482L25.8672 292.396L26.0787 288.752L27.5831 288.838L27.5204 289.865L33.4673 290.21L33.53 289.184L35.0579 289.27L34.8464 292.913L33.3185 292.826Z" fill="black"/>
<path d="M35.1273 288.47L26.2266 287.2L26.822 283.04L28.2715 283.243L27.9033 285.814L30.1128 286.127L30.434 283.87L31.8992 284.082L31.578 286.339L33.8502 286.66L34.2263 284.019L35.7306 284.231L35.1273 288.462V288.47Z" fill="black"/>
<path d="M27.6852 279.13C27.8106 278.621 28.0064 278.198 28.2807 277.845C28.8134 277.147 29.6753 276.842 30.9133 277.147L34.4548 278.018C35.0738 278.166 35.536 278.401 35.8573 278.723C36.5154 279.35 36.6565 280.259 36.4057 281.285L35.8573 283.526L27.1289 281.394L27.6774 279.146L27.6852 279.13ZM34.8544 281.607L35.0032 280.995C35.1678 280.329 34.8622 279.835 33.9142 279.608L30.6313 278.801C29.6675 278.566 29.1817 278.871 29.0172 279.538L28.8683 280.133L34.8544 281.598V281.607Z" fill="black"/>
</g>
</g>
</g>
</g>
<defs>
<clipPath id="clip0_172_4384">
<rect width="235.03" height="400" fill="white" transform="translate(0.296875 0.765625)"/>
</clipPath>
<clipPath id="clip1_172_4384">
<rect width="235.03" height="400" fill="white" transform="translate(0.296875 0.765625)"/>
</clipPath>
<clipPath id="clip2_172_4384">
<rect width="235.03" height="489.819" fill="white" transform="translate(0.296875 -44.1436)"/>
</clipPath>
</defs>
</svg>
