<svg width="170" height="39" viewBox="0 0 170 39" fill="none" xmlns="http://www.w3.org/2000/svg">
<path d="M19.8734 31.9769C9.72565 33.3058 -7.66845 30.3693 4.71225 7.95031C6.67595 4.39431 15.5107 -5.07879 27.839 7.09771L29.1151 1.59401H47.055H64.6323L62.6995 7.09771H137.177L138.407 1.59401H156.143L154.392 7.09771C161.791 6.53031 165.15 7.64881 169.855 10.7754L166.654 19.111C169.604 29.7492 158.122 33.0023 152.58 31.9769H108.606C100.699 39.7676 90.4749 38.5008 82.5719 36.8092L84.1429 31.9769H19.8734Z" fill="url(#paint0_linear_290_388)"/>
<path d="M14.105 27.6879C24.0879 27.6879 26.8012 20.5366 26.8012 14.8254C26.8012 10.3936 23.4842 8.08189 18.2581 8.08189C8.20644 8.08189 5.55664 15.1825 5.55664 20.951C5.55664 25.3566 8.84194 27.6879 14.105 27.6879ZM19.0118 19.2037C17.1345 19.2037 13.2105 17.6659 13.2105 16.1281C13.2105 15.3265 14.0433 14.5903 15.4142 14.5903C17.3215 14.5903 21.1837 16.1281 21.1837 17.6659C21.1837 18.497 20.3898 19.2037 19.0118 19.2037ZM33.3985 27.2478L34.4183 22.07C34.7059 20.5616 35.7575 18.9943 37.3225 18.9943C38.18 18.9943 38.5999 19.4131 38.5999 20.0643C38.5999 20.5322 38.3123 21.2111 38.023 21.8328L35.851 27.2478H43.1238L45.8021 18.0782C46.1532 16.807 46.3473 15.7747 46.3473 14.9453C46.3473 13.1392 45.2957 12.0202 42.7727 12.0202C39.5492 12.0202 37.1584 14.8291 35.9128 18.1076H35.4999L40.0944 6.54779H32.534L26.5386 27.2478H33.3985ZM51.2576 27.2478L52.2774 22.07C52.565 20.5616 53.6166 18.9943 55.1816 18.9943C56.0373 18.9943 56.459 19.4131 56.459 20.0643C56.459 20.5322 56.1696 21.2111 55.882 21.8328L53.7101 27.2478H60.9828L63.6612 18.0782C64.0123 16.807 64.2064 15.7747 64.2064 14.9453C64.2064 13.1392 63.1548 12.0202 60.6317 12.0202C57.4082 12.0202 55.0175 14.8291 53.7718 18.1076H53.359L57.9534 6.54779H50.393L44.3977 27.2478H51.2576ZM68.991 27.2478L70.011 22.07C70.392 20.151 71.382 18.9943 72.69 18.9943C73.577 18.9943 73.928 19.3772 73.928 19.9988C73.928 20.4749 73.711 21.1538 73.453 21.7755L71.282 27.2478H78.336L79.511 22.07C80.026 20.1788 80.913 18.9943 82.221 18.9943C83.117 18.9943 83.466 19.3772 83.466 20.0348C83.466 20.5043 83.24 21.1538 82.992 21.7755L80.694 27.2478H87.773L90.483 18.0782C90.833 16.7498 91.058 15.7175 91.058 14.8586C91.058 13.0247 90.1 12.0202 87.618 12.0202C84.712 12.0202 82.191 14.8291 80.952 18.1076H80.562C81.046 16.7203 81.333 15.5359 81.333 14.7064C81.333 13.0247 80.439 12.0202 78.078 12.0202C75.174 12.0202 72.721 14.8291 71.476 18.1076H71.095L73.328 12.4602H66.53L62.2567 27.2478H68.991ZM93.126 33.6085C101.232 33.6085 104.837 29.8834 106.237 25.0883L109.937 12.4602H102.859L101.964 17.6381C101.645 19.5293 100.468 20.7137 99.122 20.7137C98.202 20.7137 97.719 20.3604 97.719 19.6733C97.719 19.2332 97.945 18.5837 98.202 17.9342L100.5 12.4602H93.227L90.642 21.3632C90.323 22.5477 90.097 23.5227 90.097 24.2867C90.097 26.2433 91.436 27.3051 94.185 27.3051C97.112 27.3051 99.19 24.8789 100.429 21.6021H100.849L99.829 24.2295C98.903 26.6851 96.412 27.8973 94.053 27.8973C92.876 27.8973 91.249 27.7534 89.972 27.3345L88.438 33.1897C89.396 33.3124 91.537 33.6085 93.126 33.6085ZM112.709 27.6879C115.55 27.6879 118.136 25.7673 119.693 22.2221H120.114L117.785 27.2478H124.8L129.107 12.4602H121.928L121.321 18.1354H120.908C121.515 14.7997 119.98 12.0202 116.727 12.0202C111.719 12.0202 108.277 18.8226 108.277 23.1105C108.277 25.9194 110.029 27.6879 112.709 27.6879ZM119.124 21.4499C117.621 21.4499 115.005 20.3309 115.005 19.3199C115.005 18.7277 115.52 18.4316 116.282 18.4316C117.817 18.4316 120.363 19.5587 120.363 20.5043C120.363 21.0966 119.918 21.4499 119.124 21.4499ZM131.842 27.6879C134.685 27.6879 137.271 25.7673 138.827 22.2221H139.247L136.92 27.2478H143.935L149.931 6.54779H142.434L140.456 18.1354H140.043C140.682 14.7997 139.147 12.0202 135.861 12.0202C131.08 12.0202 127.412 18.317 127.412 23.1105C127.412 25.9194 129.164 27.6879 131.842 27.6879ZM138.259 21.4499C136.756 21.4499 134.139 20.3309 134.139 19.3199C134.139 18.7277 134.655 18.4316 135.417 18.4316C136.952 18.4316 139.498 19.5866 139.498 20.5043C139.498 21.0966 139.053 21.4499 138.259 21.4499ZM152.254 27.6879C157.168 27.6879 162.175 25.8245 162.175 22.0994C162.175 18.2009 153.757 19.2332 153.757 18.3743C153.757 17.8393 154.839 17.7821 156.365 17.7821C158.662 17.7821 160.711 18.4316 161.731 19.117L163.451 12.9379C161.567 12.3163 159.497 12.0202 157.394 12.0202C152.605 12.0202 147.886 13.7608 147.886 17.3126C147.886 21.2765 156.365 19.7682 156.365 20.8577C156.365 21.4205 155.252 21.5072 153.438 21.5072C151.647 21.5072 148.875 20.951 146.991 19.9416L145.045 26.7129C146.772 27.2184 150.276 27.6879 152.254 27.6879Z" stroke="black" stroke-width="4.90467"/>
<path d="M15.3254 27.9596C25.3134 27.9596 25.4122 20.1252 25.4122 14.0795C25.4122 9.37881 25.4687 7.79291 20.2382 7.79291C10.1937 7.79291 6.77734 14.7035 6.77734 20.8116C6.77734 25.4845 10.0667 27.9596 15.3254 27.9596ZM20.2382 18.9674C18.3606 18.9674 14.436 17.3381 14.436 15.7088C14.436 14.8629 15.2619 14.0795 16.6383 14.0795C18.5512 14.0795 22.4123 15.7088 22.4123 17.3381C22.4123 18.2116 21.6147 18.9674 20.2382 18.9674Z" fill="white"/>
<path d="M34.6196 27.4886L35.6431 22.0045C35.9325 20.4098 36.9842 18.7459 38.5442 18.7459C39.4054 18.7459 39.8218 19.1827 39.8218 19.876C39.8218 20.3752 39.5324 21.0962 39.2501 21.7549L37.076 27.4886H44.3535L47.0287 17.7752C47.3817 16.4302 47.5722 15.3348 47.5722 14.4543C47.5722 12.5407 46.5205 11.3552 44.0006 11.3552C40.7818 11.3552 38.3889 14.3295 37.1395 17.8099H36.7301L41.3183 5.55911H33.7584L27.7656 27.4886H34.6196Z" fill="white"/>
<path d="M52.4829 27.4886L53.5064 22.0045C53.7958 20.4098 54.8475 18.7459 56.4075 18.7459C57.2687 18.7459 57.6851 19.1827 57.6851 19.876C57.6851 20.3752 57.3957 21.0962 57.1134 21.7549L54.9393 27.4886H62.2168L64.892 17.7752C65.2449 16.4302 65.4355 15.3348 65.4355 14.4543C65.4355 12.5407 64.3838 11.3552 61.8638 11.3552C58.6451 11.3552 56.2522 14.3295 55.0028 17.8099H54.5934L59.1815 5.55911H51.6217L45.6289 27.4886H52.4829Z" fill="white"/>
<path d="M70.217 27.4884L71.241 22.0043C71.622 19.9659 72.61 18.7457 73.923 18.7457C74.812 18.7457 75.165 19.1547 75.165 19.8134C75.165 20.3126 74.939 21.0336 74.685 21.6923L72.518 27.4884H79.563L80.749 22.0043C81.257 20.0006 82.146 18.7457 83.459 18.7457C84.349 18.7457 84.702 19.1547 84.702 19.8411C84.702 20.3472 84.476 21.0336 84.222 21.6923L81.927 27.4884H89.007L91.718 17.775C92.071 16.3676 92.297 15.2722 92.297 14.3639C92.297 12.4157 91.337 11.355 88.845 11.355C85.944 11.355 83.424 14.3293 82.182 17.8097H81.8C82.28 16.3329 82.563 15.078 82.563 14.2045C82.563 12.4157 81.673 11.355 79.309 11.355C76.408 11.355 73.951 14.3293 72.709 17.8097H72.328L74.558 11.8264H67.761L63.4902 27.4884H70.217Z" fill="white"/>
<path d="M94.3639 34.2276C102.467 34.2276 106.067 30.2757 107.472 25.2007L111.171 11.8266H104.091L103.201 17.3038C102.877 19.3144 101.698 20.5624 100.357 20.5624C99.4319 20.5624 98.9589 20.188 98.9589 19.4669C98.9589 18.9955 99.1779 18.3091 99.4319 17.6227L101.733 11.8266H94.4559L91.8719 21.2557C91.5549 22.5037 91.3289 23.5436 91.3289 24.3548C91.3289 26.4209 92.6699 27.551 95.4159 27.551C98.3519 27.551 100.42 24.9788 101.67 21.5053H102.079L101.063 24.2924C100.138 26.8923 97.6459 28.175 95.2889 28.175C94.1099 28.175 92.4789 28.0224 91.2019 27.5857L89.6699 33.7839C90.6299 33.9087 92.7689 34.2276 94.3639 34.2276Z" fill="white"/>
<path d="M113.953 27.9603C116.791 27.9603 119.374 25.922 120.934 22.1642H121.351L119.021 27.4889H126.038L130.344 11.8269H123.172L122.565 17.8379H122.148C122.756 14.302 121.224 11.3554 117.97 11.3554C112.965 11.3554 109.521 18.559 109.521 23.1002C109.521 26.0814 111.271 27.9603 113.953 27.9603ZM120.363 21.3461C118.866 21.3461 116.247 20.1605 116.247 19.0928C116.247 18.4688 116.756 18.1499 117.525 18.1499C119.057 18.1499 121.605 19.3424 121.605 20.3477C121.605 20.9717 121.16 21.3461 120.363 21.3461Z" fill="white"/>
<path d="M133.091 27.96C135.929 27.96 138.512 25.9217 140.072 22.1639H140.489L138.159 27.4886H145.175L151.175 5.55911H143.679L141.703 17.8376H141.286C141.921 14.3017 140.397 11.3552 137.107 11.3552C132.322 11.3552 128.658 18.0248 128.658 23.0999C128.658 26.0811 130.409 27.96 133.091 27.96ZM139.5 21.3458C138.004 21.3458 135.385 20.1602 135.385 19.0925C135.385 18.4686 135.893 18.1496 136.663 18.1496C138.194 18.1496 140.743 19.3768 140.743 20.3474C140.743 20.9714 140.298 21.3458 139.5 21.3458Z" fill="white"/>
<path d="M153.5 27.9603C158.413 27.9603 163.424 25.9844 163.424 22.0394C163.424 17.9003 155.003 18.9958 155.003 18.0875C155.003 17.5259 156.09 17.4635 157.615 17.4635C159.916 17.4635 161.956 18.1499 162.98 18.871L164.702 12.3261C162.817 11.6674 160.742 11.3554 158.639 11.3554C153.853 11.3554 149.131 13.1997 149.131 16.9643C149.131 21.1589 157.615 19.5643 157.615 20.7221C157.615 21.3184 156.5 21.4085 154.686 21.4085C152.9 21.4085 150.119 20.8122 148.241 19.7515L146.293 26.9273C148.015 27.4542 151.523 27.9603 153.5 27.9603Z" fill="white"/>
<mask id="mask0_290_388" style="mask-type:luminance" maskUnits="userSpaceOnUse" x="11" y="11" width="14" height="13">
<path d="M24.3331 11.3847H11.7969V23.4116H24.3331V11.3847Z" fill="white"/>
</mask>
<g mask="url(#mask0_290_388)">
<path d="M24.3331 11.3847H11.7969V23.4116H24.3331V11.3847Z" fill="white"/>
<path d="M20.2261 11.7207L20.134 14.1318C20.1133 14.6864 20.2544 15.1672 20.5331 15.5406C20.8136 15.9126 21.2313 16.1786 21.7622 16.3044L24.0721 16.8499C24.2943 16.9017 24.3808 17.1328 24.266 17.3641C24.1832 17.5302 24.0176 17.6542 23.8482 17.6894L21.2465 18.235C20.6478 18.3632 20.0869 18.6245 19.6069 18.9987C19.1202 19.3785 18.7254 19.8597 18.4509 20.4075L17.248 22.8206C17.1332 23.0517 16.86 23.1978 16.6381 23.1462C16.4781 23.109 16.3877 22.9778 16.3953 22.8206L16.4874 20.4075C16.5081 19.8549 16.367 19.3721 16.0865 19.0004C15.8078 18.627 15.3898 18.3607 14.8589 18.2367L12.549 17.6915C12.3268 17.6396 12.2403 17.4082 12.3551 17.1772C12.4379 17.0111 12.6038 16.8871 12.7732 16.8519L15.3749 16.3064C15.9736 16.178 16.5345 15.9168 17.0145 15.5426C17.5016 15.1632 17.8965 14.6819 18.1705 14.1338L19.3751 11.7207C19.49 11.4896 19.7631 11.3435 19.9853 11.3951C20.1451 11.4323 20.2354 11.5635 20.2282 11.7207H20.2261ZM15.6364 36.1101L15.5443 38.5212C15.5236 39.0759 15.6647 39.5566 15.9434 39.9301C16.2239 40.3017 16.6419 40.568 17.1725 40.6938L19.4827 41.2393C19.7048 41.2911 19.7914 41.5222 19.6766 41.7533C19.5938 41.9196 19.4279 42.0436 19.2585 42.0789L16.6568 42.6244C16.0581 42.7525 15.4972 43.0137 15.0172 43.3878C14.5305 43.7678 14.1357 44.249 13.8612 44.7969L12.6583 47.21C12.5435 47.4411 12.2706 47.5872 12.0484 47.5353C11.8884 47.4984 11.798 47.367 11.8056 47.21L11.8977 44.7969C11.9184 44.244 11.7773 43.7615 11.4968 43.3898C11.2181 43.0161 10.8004 42.7501 10.2695 42.6261L7.9593 42.0806C7.7374 42.0287 7.65089 41.7977 7.76539 41.5666C7.84849 41.4002 8.01409 41.2762 8.18349 41.241L10.7852 40.6958C11.3839 40.5675 11.9448 40.3063 12.4248 39.9321C12.9119 39.5525 13.3068 39.0711 13.5808 38.5229L14.7857 36.1101C14.9006 35.8787 15.1734 35.7327 15.3956 35.7845C15.5556 35.8214 15.646 35.9529 15.6384 36.1101H15.6364Z" fill="black"/>
</g>
<mask id="mask1_290_388" style="mask-type:luminance" maskUnits="userSpaceOnUse" x="114" y="16" width="9" height="8">
<path d="M122.253 16.7094H114.799V23.8605H122.253V16.7094Z" fill="white"/>
</mask>
<g mask="url(#mask1_290_388)">
<path d="M122.253 16.7094H114.799V23.8605H122.253V16.7094Z" fill="white"/>
<path d="M119.81 16.9092L119.755 18.3428C119.743 18.6726 119.827 18.9585 119.993 19.1805C120.16 19.4017 120.408 19.5599 120.724 19.6346L122.097 19.959C122.229 19.9898 122.281 20.1272 122.212 20.2648C122.163 20.3635 122.065 20.4372 121.964 20.4582L120.417 20.7825C120.061 20.8588 119.727 21.0142 119.442 21.2366C119.153 21.4625 118.918 21.7486 118.755 22.0743L118.039 23.5092C117.971 23.6466 117.809 23.7334 117.677 23.7028C117.582 23.6806 117.528 23.6026 117.532 23.5092L117.587 22.0743C117.6 21.7457 117.516 21.4587 117.349 21.2377C117.183 21.0156 116.935 20.8573 116.619 20.7836L115.245 20.4594C115.113 20.4286 115.062 20.291 115.13 20.1536C115.179 20.0548 115.278 19.9811 115.379 19.9602L116.926 19.6358C117.282 19.5595 117.615 19.4042 117.901 19.1817C118.19 18.9561 118.425 18.6699 118.588 18.344L119.304 16.9092C119.373 16.7718 119.535 16.6849 119.667 16.7156C119.762 16.7377 119.816 16.8157 119.811 16.9092H119.81ZM117.081 31.411L117.026 32.8446C117.014 33.1744 117.098 33.4603 117.264 33.6823C117.431 33.9033 117.679 34.0617 117.995 34.1364L119.368 34.4608C119.5 34.4916 119.552 34.629 119.483 34.7664C119.434 34.8653 119.336 34.9391 119.235 34.96L117.688 35.2844C117.332 35.3606 116.998 35.5158 116.713 35.7383C116.424 35.9642 116.189 36.2504 116.026 36.5762L115.31 38.011C115.242 38.1484 115.08 38.2352 114.948 38.2044C114.853 38.1824 114.799 38.1043 114.803 38.011L114.858 36.5762C114.871 36.2474 114.787 35.9605 114.62 35.7395C114.454 35.5173 114.206 35.3591 113.89 35.2854L112.516 34.961C112.385 34.9302 112.333 34.7928 112.401 34.6554C112.451 34.5565 112.549 34.4827 112.65 34.4618L114.197 34.1376C114.553 34.0614 114.886 33.906 115.172 33.6835C115.461 33.4579 115.696 33.1716 115.859 32.8456L116.575 31.411C116.644 31.2734 116.806 31.1866 116.938 31.2174C117.033 31.2394 117.087 31.3175 117.082 31.411H117.081Z" fill="black"/>
</g>
<mask id="mask2_290_388" style="mask-type:luminance" maskUnits="userSpaceOnUse" x="133" y="15" width="8" height="8">
<path d="M140.888 15.7109H133.434V22.862H140.888V15.7109Z" fill="white"/>
</mask>
<g mask="url(#mask2_290_388)">
<path d="M140.888 15.7109H133.434V22.862H140.888V15.7109Z" fill="white"/>
<path d="M138.445 15.9107L138.39 17.3443C138.378 17.6741 138.462 17.96 138.628 18.182C138.794 18.4032 139.043 18.5613 139.358 18.6361L140.732 18.9604C140.864 18.9913 140.915 19.1287 140.847 19.2662C140.798 19.365 140.699 19.4387 140.599 19.4597L139.052 19.784C138.696 19.8603 138.362 20.0156 138.077 20.2381C137.787 20.464 137.553 20.7501 137.39 21.0758L136.674 22.5106C136.606 22.648 136.444 22.7349 136.312 22.7042C136.216 22.6821 136.163 22.6041 136.167 22.5106L136.222 21.0758C136.234 20.7472 136.15 20.4601 135.984 20.2391C135.818 20.0171 135.569 19.8588 135.254 19.785L133.88 19.4608C133.748 19.43 133.697 19.2925 133.765 19.1551C133.814 19.0563 133.913 18.9826 134.014 18.9616L135.561 18.6373C135.916 18.561 136.25 18.4056 136.535 18.1832C136.825 17.9576 137.06 17.6714 137.223 17.3455L137.939 15.9107C138.007 15.7732 138.17 15.6864 138.302 15.7171C138.397 15.7392 138.451 15.8172 138.446 15.9107H138.445ZM135.716 30.4125L135.661 31.8461C135.649 32.1759 135.733 32.4618 135.899 32.6838C136.065 32.9048 136.314 33.0631 136.629 33.1379L138.003 33.4622C138.135 33.4931 138.187 33.6305 138.118 33.7679C138.069 33.8668 137.97 33.9405 137.87 33.9615L136.323 34.2858C135.967 34.362 135.633 34.5173 135.348 34.7397C135.058 34.9657 134.824 35.2518 134.66 35.5776L133.945 37.0124C133.877 37.1498 133.715 37.2367 133.583 37.2059C133.487 37.1839 133.434 37.1057 133.438 37.0124L133.493 35.5776C133.505 35.2488 133.421 34.9619 133.255 34.7409C133.089 34.5187 132.841 34.3606 132.525 34.2868L131.151 33.9625C131.019 33.9317 130.968 33.7943 131.036 33.6569C131.085 33.5579 131.184 33.4842 131.285 33.4633L132.831 33.1391C133.188 33.0628 133.521 32.9075 133.806 32.685C134.096 32.4593 134.331 32.1731 134.494 31.8471L135.21 30.4125C135.278 30.2749 135.441 30.1881 135.573 30.2189C135.668 30.2408 135.722 30.319 135.717 30.4125H135.716Z" fill="black"/>
</g>
<mask id="mask3_290_388" style="mask-type:luminance" maskUnits="userSpaceOnUse" x="0" y="0" width="35" height="34">
<path d="M34.1239 5.26841L5.36328 0L-0.000528987 28.2492L28.7601 33.5176L34.1239 5.26841Z" fill="white"/>
</mask>
<g mask="url(#mask3_290_388)">
<path d="M28.7584 18.8931C27.3831 26.1363 20.5449 29.5885 14.3079 28.446C8.0708 27.3035 3.7173 23.268 5.0926 16.0247C6.468 8.7815 12.646 3.83 18.8829 4.9725C25.1199 6.115 30.1337 11.6498 28.7584 18.8931Z" fill="white" stroke="black" stroke-width="1.26106" stroke-linecap="round" stroke-linejoin="round"/>
<path d="M16.0264 8.735C14.9857 11.561 11.7881 13.5119 9.98707 12.9082C8.18607 12.3045 7.81167 9.8702 8.52587 7.3611C9.24007 4.852 11.4999 3.1234 13.5699 3.5026C15.6399 3.8818 17.0647 5.9153 16.0264 8.735Z" fill="white" stroke="black" stroke-width="1.26106" stroke-linecap="round" stroke-linejoin="round"/>
<path d="M16.789 8.2663C16.5853 11.5791 18.6953 14.2028 20.8613 14.2956C23.0273 14.3883 25.3137 12.32 25.2366 9.4658C25.1624 6.723 24.0724 5.2202 21.7719 4.4477C19.58 3.7117 16.9922 4.9608 16.789 8.2663Z" fill="white" stroke="black" stroke-width="1.26106" stroke-linecap="round" stroke-linejoin="round"/>
<path d="M20.8716 22.6793C20.2435 26.772 17.897 27.8515 14.4005 27.211C9.49648 26.3126 7.57498 24.4513 8.20318 20.3586C8.83128 16.2659 11.4621 13.3328 14.9586 13.9733C18.4551 14.6138 21.4997 18.5866 20.8716 22.6793Z" fill="black"/>
<path d="M20.4787 9.5443C20.4674 9.6055 20.4434 9.6638 20.408 9.7159C20.3726 9.7679 20.3264 9.8127 20.2722 9.8476C20.2179 9.8826 20.1567 9.907 20.092 9.9194C20.0273 9.9319 19.9604 9.9321 19.8952 9.9202C19.8299 9.9082 19.7676 9.8843 19.7118 9.8498C19.6561 9.8153 19.6079 9.7708 19.5701 9.719C19.5324 9.6673 19.5057 9.6091 19.4918 9.548C19.4778 9.4869 19.4768 9.424 19.4889 9.363C19.5001 9.3018 19.5241 9.2435 19.5595 9.1914C19.5949 9.1393 19.6411 9.0946 19.6953 9.0596C19.7496 9.0247 19.8108 9.0003 19.8755 8.9879C19.9402 8.9754 20.0071 8.9752 20.0723 8.9871C20.1376 8.9991 20.1999 9.023 20.2557 9.0575C20.3115 9.092 20.3596 9.1364 20.3974 9.1882C20.4351 9.24 20.4618 9.2981 20.4757 9.3592C20.4897 9.4203 20.4907 9.4832 20.4787 9.5443Z" stroke="black" stroke-width="1.26106" stroke-linecap="round" stroke-linejoin="round"/>
<path d="M13.5977 8.4569C13.5865 8.5181 13.5625 8.5764 13.527 8.6285C13.4916 8.6805 13.4454 8.7253 13.3912 8.7602C13.337 8.7952 13.2758 8.8196 13.2111 8.832C13.1464 8.8445 13.0795 8.8447 13.0142 8.8328C12.949 8.8208 12.8867 8.7969 12.8309 8.7624C12.7751 8.7278 12.7269 8.6834 12.6892 8.6316C12.6514 8.5799 12.6248 8.5217 12.6108 8.4606C12.5969 8.3995 12.5959 8.3366 12.6079 8.2756C12.6191 8.2144 12.6431 8.1561 12.6786 8.104C12.714 8.0519 12.7601 8.0072 12.8144 7.9722C12.8686 7.9373 12.9298 7.9129 12.9945 7.9005C13.0592 7.888 13.1261 7.8878 13.1914 7.8997C13.2566 7.9117 13.3189 7.9356 13.3747 7.9701C13.4305 8.0046 13.4787 8.049 13.5164 8.1008C13.5542 8.1526 13.5808 8.2107 13.5948 8.2718C13.6087 8.3329 13.6097 8.3958 13.5977 8.4569Z" stroke="black" stroke-width="1.26106" stroke-linecap="round" stroke-linejoin="round"/>
</g>
<path d="M22.8313 3.6844L18.4219 1.3891C21.3015 1.8877 26.0799 4.3067 28.026 6.4026L28.328 8.3355L22.8313 3.6844Z" fill="url(#paint1_linear_290_388)"/>
<defs>
<linearGradient id="paint0_linear_290_388" x1="2.30715" y1="18.3861" x2="168.991" y2="18.3861" gradientUnits="userSpaceOnUse">
<stop stop-color="#80E7FF"/>
<stop offset="0.24" stop-color="#726FF7"/>
<stop offset="0.5" stop-color="#F482AE"/>
<stop offset="0.75" stop-color="#DCF980"/>
<stop offset="1" stop-color="#7BFCE9"/>
</linearGradient>
<linearGradient id="paint1_linear_290_388" x1="19.5695" y1="1.812" x2="28.2072" y2="7.6107" gradientUnits="userSpaceOnUse">
<stop stop-color="#7BB6FC"/>
<stop offset="1" stop-color="#7798FA"/>
</linearGradient>
</defs>
</svg>
