<svg width="120" height="28" viewBox="0 0 120 28" fill="none" xmlns="http://www.w3.org/2000/svg">
<path fill-rule="evenodd" clip-rule="evenodd" d="M14.5184 25.3213C14.5184 25.4473 14.607 25.5555 14.733 25.578C14.859 25.6009 14.9851 25.532 15.0317 25.4143L21.1079 9.78223H22.6386C26.106 11.2239 28.5421 14.594 28.5421 18.5171C28.5421 23.7508 24.2067 27.9998 18.8632 27.9998H9.67892C4.33545 27.9998 0 23.7508 0 18.5171L0 18.2177H14.5184V25.3213Z" fill="#71717B"/>
<path fill-rule="evenodd" clip-rule="evenodd" d="M18.8632 28L9.67892 28C4.33545 28 0 23.751 0 18.5173L0 18.218L14.5184 18.218C14.5184 18.218 14.5184 18.218 14.5184 25.3216C14.5184 26.563 16.4505 28 18.8632 28Z" fill="#71717B"/>
<path fill-rule="evenodd" clip-rule="evenodd" d="M14.0285 2.67844C14.0285 2.55253 13.9398 2.44431 13.8138 2.42176C13.6878 2.39889 13.5618 2.46779 13.5152 2.58546L7.43898 18.2176H5.90826C2.44083 16.7759 0.00480791 13.4058 0.00480791 9.48269C0.00480791 4.24903 4.3402 2.71248e-05 9.68368 2.71248e-05L18.868 2.71248e-05C24.2114 2.71248e-05 28.5469 4.24903 28.5469 9.48269V9.78205L14.0285 9.78205V2.67844Z" fill="#71717B"/>
<path fill-rule="evenodd" clip-rule="evenodd" d="M9.68368 -1.34662e-05H18.868C24.2114 -1.34662e-05 28.5469 4.24899 28.5469 9.48265V9.78201L14.0285 9.78201C14.0285 9.78201 14.0285 9.78201 14.0285 2.6784C14.0285 1.43705 12.0964 -1.34662e-05 9.68368 -1.34662e-05Z" fill="#71717B"/>
<path d="M44.1094 6.04709C44.8153 6.04709 45.4491 6.07685 46.0098 6.13791C46.5702 6.19885 47.1411 6.33121 47.7324 6.53439C48.3239 6.73775 48.8118 7.01244 49.2061 7.34787C49.9843 8.02905 50.5873 9.19882 50.6797 10.7551H47.4004C47.2239 10.0533 46.8713 9.55415 46.3418 9.27951C45.802 9.00493 45.0126 8.87326 43.9746 8.87326C41.7011 8.87329 40.8086 9.37174 40.8086 10.4602C40.8088 11.3856 41.4729 11.8434 42.9365 11.9553L45.6777 12.1887C47.4632 12.3412 48.781 12.7592 49.6318 13.4406C50.4825 14.1223 50.9082 15.1496 50.9082 16.5227C50.9081 19.6242 48.6874 21.2511 43.7051 21.2512H43.6846C42.2726 21.2512 41.2443 21.1593 40.0508 20.7629C39.4594 20.5697 38.9613 20.3152 38.5566 19.9797C37.7474 19.3189 37.1143 18.119 37.0312 16.5627H40.2793C40.5387 17.8138 41.7424 18.4347 43.9121 18.4348C46.2377 18.4348 47.2969 17.8549 47.2969 16.6037C47.2969 15.5764 46.6741 15.1695 45.1064 15.0168L42.3447 14.7932C38.9613 14.5287 37.2702 13.094 37.2598 10.4797C37.2599 7.56137 39.3764 6.04717 44.1094 6.04709ZM79.4658 9.78928C83.2335 9.78928 84.9668 10.9688 84.9668 13.3283V20.9358H82.082L81.7812 19.8069L82.1641 19.0451C81.7279 19.7667 81.0644 20.3058 80.1826 20.6819C79.2996 21.0681 78.3542 21.2511 77.3584 21.2512C74.8994 21.2512 73.467 20.0717 73.4668 17.7932C73.4668 15.607 74.8778 14.5188 77.7012 14.5188H81.5518V13.6848C81.5518 12.657 80.8975 12.2903 79.3193 12.2903C77.8566 12.2903 77.2224 12.5955 77.0869 13.4602H74.0469C73.9954 12.1275 74.4317 11.1824 75.3652 10.6233C76.2988 10.0642 77.6696 9.78928 79.4658 9.78928ZM57.1777 10.1047H60.2607V12.9612H57.1777V16.5627C57.1777 17.6512 57.6559 18.0383 58.7656 18.0383H60.2607V21.0373H58.1328C55.0507 21.0373 53.7539 19.6643 53.7539 17.1018V12.9612H51.3047V10.1047H53.7539V6.35178H57.1777V10.1047ZM91.7969 10.1047H94.8799V12.9612H91.7969V16.5627C91.7969 17.6512 92.2742 18.0382 93.3848 18.0383H94.8799V21.0373H92.752C89.67 21.0372 88.3721 19.6642 88.3721 17.1018V12.9612H85.9229V10.1047H88.3721V6.35178H91.7969V10.1047ZM68.6904 9.78928C70.029 9.78928 71.0255 10.1967 71.7002 11.01C72.3748 11.8232 72.707 12.9411 72.707 14.3547V15.1887H69.5215V14.9348C69.5215 13.4601 68.8463 12.7278 67.4863 12.7278C65.95 12.7278 65.2021 13.6737 65.2021 15.2102V20.9358H61.7891V10.1047H65.0771L65.2021 11.5383L64.9326 12.2092C65.3269 11.4264 65.8142 10.8261 66.3857 10.4094C66.9562 9.99254 67.7246 9.78928 68.6904 9.78928ZM99.8418 20.9358H96.4277V10.1047H99.8418V20.9358ZM114.644 9.41232H105.437V12.8508H114.239V15.8908H105.437V20.9358H101.908V6.35178H114.644V9.41232ZM119.886 10.1047V20.9358H116.472V10.1047H119.886ZM78.251 16.5617C77.3894 16.5617 76.9532 16.9183 76.9531 17.6203C76.9531 18.3632 77.5033 18.7297 78.5938 18.7297H78.7383C79.8705 18.7297 80.8148 18.4345 81.5518 17.8342V16.5617H78.251ZM98.1299 5.17209C98.6789 5.17209 99.1153 5.33466 99.458 5.67014C99.79 6.00562 99.9551 6.40229 99.9551 6.8801C99.9551 7.36802 99.7899 7.77459 99.458 8.09982C99.1153 8.4252 98.6789 8.5881 98.1299 8.5881C97.5799 8.58806 97.1327 8.4255 96.8008 8.09006C96.4593 7.76472 96.293 7.3579 96.293 6.8801C96.293 6.40237 96.4593 6.00559 96.8008 5.67014C97.1327 5.3347 97.5799 5.17213 98.1299 5.17209ZM118.174 5.17209C118.724 5.17211 119.16 5.33467 119.503 5.67014C119.835 6.0056 120 6.40234 120 6.8801C120 7.36796 119.835 7.77461 119.503 8.09982C119.16 8.42518 118.724 8.58808 118.174 8.5881C117.625 8.5881 117.178 8.42554 116.846 8.09006C116.503 7.7647 116.338 7.35796 116.338 6.8801C116.338 6.40231 116.503 6.00561 116.846 5.67014C117.178 5.33465 117.625 5.17209 118.174 5.17209Z" fill="#71717B"/>
</svg>
