<svg width="84" height="28" viewBox="0 0 84 28" fill="none" xmlns="http://www.w3.org/2000/svg">
<g clip-path="url(#clip0_247_2332)">
<path d="M8.81251 9.61379C7.90453 9.24046 6.98963 8.88556 6.11852 8.43618C5.00774 7.86235 3.91078 7.06498 3.48905 5.88737C2.93597 4.34334 3.80477 2.50663 5.24741 1.72079C6.69004 0.934944 8.52675 1.11009 9.96016 1.91206C11.3936 2.71404 12.4514 4.0668 13.1819 5.53708C13.2856 5.53708 13.3893 5.53939 13.4907 5.54169C13.4907 4.1198 13.4907 2.70021 13.4907 1.27832C11.8844 0.669924 10.2229 0.167537 8.51062 0.0338744C6.79835 -0.0997881 5.02617 0.151405 3.52132 0.97873C1.05317 2.3361 -0.271934 5.2905 0.481646 8.03289C0.60609 8.48918 0.792757 8.93165 1.03704 9.33725C1.85053 10.69 3.24477 11.5911 4.67588 12.2594C6.107 12.9277 7.62337 13.4186 8.98996 14.2113C9.79885 14.6791 10.5663 15.2714 11.0456 16.0734C11.601 17.0067 11.707 18.2212 11.223 19.196C10.4902 20.6709 8.64428 21.2724 6.99885 21.1664C4.01218 20.9774 1.25136 18.7996 0.371029 15.9374C0.246584 15.9397 0.124444 15.9443 0 15.9466C0.0714403 17.8041 0.140576 19.6592 0.212016 21.5167C2.29992 22.3786 4.50996 23.0561 6.76839 23.0469C9.02683 23.0377 11.3567 22.2703 12.8892 20.611C13.8179 19.6039 14.4194 18.3042 14.5992 16.9445C14.7605 15.7208 14.5738 14.4395 13.9793 13.3609C13.2188 11.9805 11.8614 11.0265 10.4464 10.3328C9.91177 10.0701 9.36329 9.83733 8.81251 9.61149V9.61379Z" fill="#71717B"/>
<path d="M48.3018 6.38741V6.67778C47.9976 6.80453 47.7072 6.98889 47.426 7.22625C47.1449 7.46362 46.8568 7.81852 46.5665 8.29555C46.2761 8.77259 45.9419 9.3902 45.5755 10.1553C45.2068 10.9227 44.7712 11.8975 44.2758 13.0844L40.0861 22.9523H39.4362L34.7258 11.7247C34.2465 10.6047 33.8316 9.69901 33.4744 9.00765C33.1149 8.3186 32.79 7.79086 32.4996 7.42444C32.2093 7.05802 31.9097 6.81144 31.6055 6.68008V6.38971H38.4269V6.68008C37.7977 6.89671 37.4866 7.31383 37.4866 7.94066C37.4866 8.13654 37.5074 8.33243 37.5511 8.53983C37.5949 8.74494 37.671 9.00304 37.777 9.31415C37.883 9.62527 38.0374 10.0332 38.231 10.5286L41.3167 18.1958L43.2664 13.0521C43.6973 11.9067 43.9969 11.0264 44.1605 10.3996C44.3218 9.77276 44.4048 9.25424 44.4048 8.84634C44.4048 7.85539 43.8102 7.12946 42.6188 6.68008V6.38971H48.3041V6.3851L48.3018 6.38741Z" fill="#71717B"/>
<path d="M65.7721 6.3875V6.67787C65.4679 6.80462 65.1775 6.98898 64.8964 7.22635C64.6152 7.46371 64.3272 7.81861 64.0368 8.29565C63.7464 8.77268 63.4123 9.3903 63.0459 10.1554C62.6771 10.9228 62.2416 11.8976 61.7461 13.0845L57.5588 22.9524H56.9089L52.1985 11.7248C51.7191 10.6048 51.3043 9.6991 50.9471 9.00774C50.5876 8.31869 50.2627 7.79095 49.9723 7.42453C49.6819 7.05812 49.3823 6.81153 49.0781 6.68017V6.3898H55.8995V6.68017C55.2704 6.8968 54.9593 7.31392 54.9593 7.94075C54.9593 8.13663 54.98 8.33252 55.0238 8.53993C55.0676 8.74503 55.1436 9.00314 55.2496 9.31425C55.3557 9.62536 55.5101 10.0333 55.7036 10.5287L58.7894 18.1959L60.739 13.0522C61.17 11.9068 61.4696 11.0265 61.6332 10.3997C61.7945 9.77285 61.8775 9.25433 61.8775 8.84643C61.8775 7.85548 61.2829 7.12956 60.0915 6.68017V6.3898H65.7767V6.38519L65.7721 6.3875Z" fill="#71717B"/>
<path d="M77.5579 6.38742V6.67779C78.7493 7.10874 79.3439 7.83236 79.3439 8.84405C79.3439 9.25195 79.2633 9.77277 79.0996 10.3973C78.9383 11.0241 78.6295 11.9091 78.1732 13.0498L76.2581 18.1636L73.1724 10.5264C72.9765 10.0078 72.8267 9.59763 72.7184 9.29573C72.6124 8.99384 72.534 8.74265 72.4925 8.53294C72.4488 8.32783 72.428 8.12734 72.428 7.93376C72.428 7.30693 72.7391 6.8875 73.3683 6.67318V6.38281H66.5469V6.67318C66.8511 6.79993 67.1484 7.05112 67.441 7.41754C67.7314 7.78396 68.0563 8.3117 68.4158 9.00076C68.7753 9.68981 69.1902 10.5978 69.6672 11.7178L74.2486 22.5583L73.9674 23.1598L73.7969 23.5216C73.7416 23.646 73.6909 23.7682 73.631 23.888C73.5204 24.1138 73.4005 24.3351 73.2553 24.5425C72.4856 25.6533 70.9739 26.0289 69.8101 25.2661C69.681 25.1808 69.5612 25.0864 69.4552 24.9803C69.3307 24.8536 69.2201 24.7084 69.1095 24.5724C68.2084 24.7845 67.8051 26.2156 68.2799 27.0129C68.6601 27.6513 69.4137 27.9785 70.1696 28.0016C70.354 28.0062 70.5383 27.9924 70.7158 27.9624C72.1215 27.7204 73.1263 26.6557 73.8315 25.4505L73.8453 25.4251L73.8845 25.3537L73.9144 25.2938L73.9398 25.2431L73.9651 25.1924L73.9905 25.1417L74.0596 25.0057L74.1403 24.8398L74.2209 24.6646L74.32 24.4549L74.6358 23.7728L74.9169 23.1644L75.0321 22.9178L79.2195 13.0821C79.7195 11.8952 80.1505 10.9181 80.5192 10.153C80.8879 9.38561 81.2152 8.77261 81.5102 8.3094C81.8005 7.84619 82.0863 7.49129 82.3698 7.2401C82.6509 6.99351 82.9413 6.80224 83.2455 6.67318V6.38281H77.5602L77.5556 6.38742H77.5579Z" fill="#71717B"/>
<path d="M29.7769 11.4323C29.5579 10.0957 29.203 9.01022 28.703 8.18059C28.2029 7.35096 27.5276 6.74487 26.6727 6.36693C25.8177 5.98899 24.7415 5.80002 23.4417 5.80002C22.142 5.80002 20.9413 5.99129 19.8213 6.53977C19.1207 6.88545 18.4663 7.39014 18.1114 8.08611C17.9316 8.44792 17.8325 8.86965 17.957 9.25681C18.0814 9.64397 18.4156 9.94125 18.7981 10.0703C19.183 10.1971 19.6093 10.1717 19.9942 10.045C20.008 9.01483 20.3537 7.90405 21.1741 7.23113C21.8332 6.69417 22.8057 6.62734 23.6007 6.93385C23.8865 7.04446 24.1561 7.215 24.3658 7.44084C24.776 7.88331 25.1402 8.41105 25.4421 9.55179C22.6259 10.9529 20.5749 12.3564 19.2867 13.7575C18.0007 15.1587 17.3555 16.682 17.3555 18.3205C17.3555 19.2907 17.5606 20.125 17.9708 20.8278C18.381 21.5307 18.9663 22.0746 19.7222 22.4617C20.4781 22.8489 21.3584 23.0448 22.354 23.0448C23.4993 23.0448 24.4995 22.7429 25.3407 22.1368C26.1864 21.533 26.887 20.6389 27.4516 19.4497C27.6913 20.6366 28.0807 21.4892 28.6223 21.987C29.1639 22.4848 29.9981 22.7314 31.1227 22.7314H32.5838V22.441C31.9132 22.2705 31.4546 21.4247 31.1942 19.9383L29.7676 11.4277L29.7769 11.4323ZM26.0067 20.4914C25.4213 20.8785 24.8267 21.0744 24.2207 21.0744C23.2666 21.0744 22.5199 20.7287 21.9807 20.0397C21.045 18.8436 21.0197 17.0715 21.3308 15.6496C21.6419 14.2277 22.407 12.8703 23.4901 11.8655C24.1446 11.2617 24.9143 10.7801 25.6402 10.2731C25.7255 10.6188 27.341 18.8736 27.341 18.8736C27.016 19.4566 26.592 20.0996 26.0067 20.4868V20.4914Z" fill="#71717B"/>
</g>
<defs>
<clipPath id="clip0_247_2332">
<rect width="83.2464" height="28" fill="white"/>
</clipPath>
</defs>
</svg>
