<svg width="74" height="23" viewBox="0 0 74 23" fill="none" xmlns="http://www.w3.org/2000/svg">
<g clip-path="url(#clip0_247_2348)">
<g clip-path="url(#clip1_247_2348)">
<path d="M5.537 1.44699C5.594 1.63599 5.653 1.82599 5.715 2.01499C8.463 10.473 14.668 16.293 20.533 16.48C18.633 19.777 15.078 21.998 11 21.998C4.925 21.998 0 17.073 0 10.997C0 6.90899 2.229 3.34399 5.537 1.44699Z" fill="#71717B"/>
<path d="M7.20825 1.52999C9.77225 9.42299 16.1533 14.494 21.7583 13.284C21.6143 13.962 21.4093 14.616 21.1473 15.242C18.8713 15.337 16.4253 14.427 14.1023 12.591C11.1003 10.219 8.43125 6.38699 6.88725 1.63299C6.80625 1.38399 6.72925 1.13399 6.65625 0.884988C6.76025 0.839988 6.86625 0.798989 6.97225 0.756989C7.04525 1.01499 7.12425 1.27199 7.20825 1.52999Z" fill="#71717B"/>
<path d="M8.51944 0.424987L8.70644 1.04399C10.8524 7.64799 16.6064 11.698 21.5584 10.089C21.6904 10.046 21.8214 9.99799 21.9494 9.94799C21.9824 10.293 22.0014 10.643 22.0014 10.997C22.0014 11.322 21.9844 11.643 21.9564 11.961C19.6024 12.648 16.9344 11.99 14.4514 10.118C11.9064 8.19799 9.65744 5.06499 8.38544 1.14899C8.30044 0.888987 8.22244 0.627987 8.14844 0.368987C8.25944 0.338987 8.37044 0.312987 8.48144 0.286987C8.49444 0.332987 8.50644 0.378987 8.51944 0.424987Z" fill="#71717B"/>
<path d="M10.0582 0.0939873L10.1982 0.557987C11.8072 5.51199 16.4582 8.43999 20.5852 7.09899L20.9662 6.96199C21.0432 6.93199 21.1182 6.89699 21.1932 6.86399C21.4312 7.44899 21.6192 8.05799 21.7542 8.68799C21.5652 8.77199 21.3732 8.84999 21.1752 8.91499C19.1512 9.57199 16.8742 9.10499 14.7882 7.63699C12.7012 6.16799 10.8762 3.73499 9.87822 0.662987C9.81422 0.465987 9.75522 0.267987 9.69922 0.0719873C9.81322 0.0579873 9.92822 0.0469873 10.0432 0.0369873C10.0482 0.0559873 10.0522 0.0749873 10.0582 0.0939873Z" fill="#71717B"/>
<path d="M11.3203 0.00100708C15.3603 0.117007 18.8533 2.40801 20.6693 5.74701C20.5173 5.81301 20.3633 5.87401 20.2043 5.92501C16.9173 6.99301 12.8403 4.69201 11.3733 0.177007C11.3543 0.119007 11.3383 0.0600071 11.3203 0.00100708Z" fill="#71717B"/>
</g>
</g>
<path d="M38.0781 18.7471C36.61 18.7471 35.3245 18.4105 34.2217 17.7373C33.126 17.0641 32.2773 16.1224 31.6758 14.9121C31.0814 13.7018 30.7842 12.3161 30.7842 10.7549C30.7842 9.21517 31.0814 7.84375 31.6758 6.64062C32.2702 5.43034 33.1188 4.48145 34.2217 3.79395C35.3317 3.10645 36.6243 2.7627 38.0996 2.7627C39.2598 2.7627 40.2946 2.97396 41.2041 3.39648C42.1208 3.81185 42.8763 4.41699 43.4707 5.21191C44.0651 5.99967 44.4697 6.94141 44.6846 8.03711H42.6543C42.4824 7.3138 42.1888 6.69434 41.7734 6.17871C41.3652 5.65592 40.8532 5.25846 40.2373 4.98633C39.6214 4.70703 38.9268 4.56738 38.1533 4.56738C37.0648 4.56738 36.123 4.83952 35.3281 5.38379C34.5404 5.9209 33.9388 6.66211 33.5234 7.60742C33.1152 8.54557 32.9111 9.60905 32.9111 10.7979C32.9111 12.001 33.1188 13.068 33.5342 13.999C33.9495 14.9229 34.5475 15.6462 35.3281 16.1689C36.1087 16.6846 37.0326 16.9424 38.0996 16.9424C39.0592 16.9424 39.8828 16.7633 40.5703 16.4053C41.2578 16.0472 41.7985 15.5173 42.1924 14.8154C42.5863 14.1064 42.819 13.2435 42.8906 12.2266H38.1104V10.626H44.8672V11.4639C44.8672 12.9821 44.5986 14.2855 44.0615 15.374C43.5316 16.4626 42.7581 17.2969 41.7412 17.877C40.7243 18.457 39.5033 18.7471 38.0781 18.7471ZM47.8105 5.52344C47.5671 5.52344 47.3486 5.46615 47.1553 5.35156C46.9619 5.23698 46.8079 5.08301 46.6934 4.88965C46.5859 4.69629 46.5322 4.48145 46.5322 4.24512C46.5322 4.00163 46.5859 3.7832 46.6934 3.58984C46.8079 3.39648 46.9619 3.24251 47.1553 3.12793C47.3486 3.01335 47.5671 2.95605 47.8105 2.95605C48.054 2.95605 48.2725 3.01335 48.4658 3.12793C48.6592 3.24251 48.8096 3.39648 48.917 3.58984C49.0316 3.7832 49.0889 4.00163 49.0889 4.24512C49.0889 4.48145 49.0316 4.69629 48.917 4.88965C48.8096 5.08301 48.6592 5.23698 48.4658 5.35156C48.2725 5.46615 48.054 5.52344 47.8105 5.52344ZM46.8223 18.5V7.26367H48.8096V18.5H46.8223ZM56.2646 22.8828C55.3265 22.8828 54.485 22.7539 53.7402 22.4961C53.0026 22.2383 52.401 21.848 51.9355 21.3252C51.4701 20.8024 51.1872 20.1507 51.0869 19.3701H53.0635C53.221 20.0146 53.5863 20.4909 54.1592 20.7988C54.7393 21.1139 55.4518 21.2715 56.2969 21.2715C56.9987 21.2715 57.6038 21.1497 58.1123 20.9062C58.6279 20.6628 59.0254 20.2975 59.3047 19.8105C59.584 19.3236 59.7236 18.7327 59.7236 18.0381V16.0615H59.6699C59.2975 16.7419 58.7604 17.2826 58.0586 17.6836C57.3639 18.0775 56.5618 18.2744 55.6523 18.2744C54.707 18.2744 53.8584 18.0524 53.1064 17.6084C52.3617 17.1572 51.7744 16.5091 51.3447 15.6641C50.9222 14.819 50.7109 13.82 50.7109 12.667C50.7109 11.5212 50.9186 10.5257 51.334 9.68066C51.7565 8.82845 52.3402 8.17318 53.085 7.71484C53.8298 7.24935 54.682 7.0166 55.6416 7.0166C56.5511 7.0166 57.3532 7.21712 58.0479 7.61816C58.7497 8.01921 59.2904 8.56348 59.6699 9.25098H59.7236V7.26367H61.7109V18.0381C61.7109 19.0407 61.4854 19.9072 61.0342 20.6377C60.5902 21.3682 59.9564 21.9232 59.1328 22.3027C58.3164 22.6895 57.3604 22.8828 56.2646 22.8828ZM56.2432 16.502C56.9307 16.502 57.543 16.3444 58.0801 16.0293C58.6172 15.707 59.029 15.2594 59.3154 14.6865C59.609 14.1064 59.7559 13.4297 59.7559 12.6562C59.7559 11.8828 59.609 11.2025 59.3154 10.6152C59.029 10.028 58.6172 9.57682 58.0801 9.26172C57.543 8.93945 56.9271 8.77832 56.2324 8.77832C55.5378 8.77832 54.9255 8.93945 54.3955 9.26172C53.8727 9.58398 53.4609 10.0352 53.1602 10.6152C52.8665 11.1953 52.7197 11.8721 52.7197 12.6455C52.7197 13.4189 52.8665 14.0957 53.1602 14.6758C53.4609 15.2559 53.8763 15.707 54.4062 16.0293C54.9362 16.3444 55.5485 16.502 56.2432 16.502ZM67.1787 18.7148C66.4554 18.7148 65.8216 18.5788 65.2773 18.3066C64.7331 18.0345 64.3141 17.6514 64.0205 17.1572C63.734 16.6559 63.5908 16.0758 63.5908 15.417C63.5908 14.4574 63.8952 13.7161 64.5039 13.1934C65.1198 12.6634 65.9935 12.3125 67.125 12.1406L69.7998 11.7432C70.0934 11.7074 70.319 11.6572 70.4766 11.5928C70.6413 11.5212 70.7594 11.4245 70.8311 11.3027C70.9098 11.1738 70.9492 11.0091 70.9492 10.8086C70.9492 10.3861 70.8454 10.0137 70.6377 9.69141C70.43 9.36914 70.1292 9.12565 69.7354 8.96094C69.3486 8.78906 68.8975 8.70312 68.3818 8.70312C67.8734 8.70312 67.4294 8.78906 67.0498 8.96094C66.6774 9.13281 66.3802 9.37988 66.1582 9.70215C65.9434 10.0173 65.818 10.3932 65.7822 10.8301H63.8594C63.9167 10.0495 64.1351 9.37272 64.5146 8.7998C64.9014 8.22689 65.4242 7.78646 66.083 7.47852C66.7419 7.17057 67.5117 7.0166 68.3926 7.0166C69.3164 7.0166 70.1149 7.17415 70.7881 7.48926C71.4684 7.7972 71.9876 8.23763 72.3457 8.81055C72.7038 9.38346 72.8828 10.0531 72.8828 10.8193V18.5H70.9492V16.6094H70.8955C70.5661 17.2682 70.0863 17.7839 69.4561 18.1562C68.833 18.5286 68.0739 18.7148 67.1787 18.7148ZM67.6836 17.082C68.3854 17.082 68.9798 16.9173 69.4668 16.5879C69.9609 16.2513 70.3298 15.8073 70.5732 15.2559C70.8239 14.6973 70.9492 14.0957 70.9492 13.4512V12.8389C70.8346 12.932 70.6878 13.0072 70.5088 13.0645C70.3369 13.1146 70.1149 13.1647 69.8428 13.2148L67.3721 13.5801C66.8278 13.6589 66.3874 13.8379 66.0508 14.1172C65.7214 14.3965 65.5566 14.7975 65.5566 15.3203C65.5566 15.6784 65.6426 15.9899 65.8145 16.2549C65.9863 16.5199 66.2334 16.724 66.5557 16.8672C66.8851 17.0104 67.2611 17.082 67.6836 17.082Z" fill="#71717B"/>
<defs>
<clipPath id="clip0_247_2348">
<rect width="22" height="22" fill="white"/>
</clipPath>
<clipPath id="clip1_247_2348">
<rect width="22" height="22" fill="white"/>
</clipPath>
</defs>
</svg>
