<svg width="87" height="25" viewBox="0 0 87 25" fill="none" xmlns="http://www.w3.org/2000/svg">
<g clip-path="url(#clip0_247_2339)">
<path d="M12.5602 0C12.6583 0 12.7524 0.0395088 12.8218 0.109835C12.8911 0.180161 12.9301 0.275544 12.9301 0.375V14.5833C12.9336 15.4177 12.7717 16.2442 12.454 17.0139C12.1452 17.7685 11.6866 18.4507 11.1068 19.0181C10.527 19.5855 9.83838 20.0261 9.08362 20.3125C8.2489 20.6324 7.36254 20.7914 6.4702 20.7812C5.57343 20.791 4.68265 20.6321 3.84307 20.3125C3.07518 20.0252 2.37512 19.5781 1.78795 19C1.2287 18.4297 0.783272 17.7553 0.476102 17.0139C0.197501 16.3533 0.0363183 15.648 0 14.9306C0.0077528 14.8357 0.0504845 14.7473 0.119678 14.6829C0.188872 14.6186 0.279445 14.583 0.373346 14.5833H2.79496C2.88791 14.5839 2.97722 14.62 3.04513 14.6843C3.11305 14.7487 3.15457 14.8366 3.16146 14.9306C3.19972 15.7134 3.52029 16.4548 4.06228 17.0139C4.37907 17.3251 4.75497 17.5678 5.16714 17.7271C5.57932 17.8865 6.01915 17.9593 6.45992 17.941C6.90317 17.9704 7.34752 17.9038 7.76343 17.7457C8.17935 17.5876 8.55732 17.3416 8.87222 17.024C9.18712 16.7064 9.43175 16.3245 9.58986 15.9037C9.74796 15.4829 9.81592 15.0328 9.78921 14.5833V0.375C9.78921 0.275544 9.82819 0.180161 9.89756 0.109835C9.96693 0.0395088 10.061 0 10.1591 0L12.5602 0Z" fill="#71717B"/>
<path d="M21.4699 20.6805C20.6723 20.6883 19.8821 20.525 19.1511 20.2014C18.4453 19.8859 17.8075 19.4328 17.274 18.868C16.7213 18.2775 16.2904 17.581 16.0067 16.8194C15.6964 15.9804 15.5419 15.0904 15.5512 14.1944V5.90276C15.5512 5.85368 15.5608 5.80508 15.5794 5.75978C15.598 5.71448 15.6253 5.67336 15.6597 5.63882C15.6941 5.60427 15.7349 5.57698 15.7798 5.55851C15.8247 5.54005 15.8727 5.53078 15.9211 5.53124H18.1338C18.2301 5.53304 18.3219 5.57287 18.3897 5.64225C18.4575 5.71164 18.496 5.8051 18.4968 5.90276V14.1944C18.4953 14.6859 18.5921 15.1725 18.7811 15.625C18.9568 16.0554 19.2087 16.4496 19.5244 16.7882C19.8391 17.1165 20.2121 17.3816 20.6239 17.5694C21.0376 17.7572 21.4858 17.8543 21.9392 17.8542C22.4101 17.8533 22.876 17.7564 23.3092 17.5694C24.1866 17.2 24.8913 16.5043 25.2787 15.625C25.4759 15.1747 25.5763 14.6871 25.5733 14.1944V5.90276C25.5742 5.80391 25.6136 5.70942 25.6828 5.63984C25.7521 5.57026 25.8457 5.53123 25.9432 5.53124H28.1559C28.2043 5.53078 28.2523 5.54005 28.2972 5.55851C28.3421 5.57698 28.3829 5.60427 28.4173 5.63882C28.4517 5.67336 28.479 5.71448 28.4976 5.75978C28.5162 5.80508 28.5258 5.85368 28.5258 5.90276V20.1389C28.5267 20.1887 28.5178 20.2382 28.4997 20.2845C28.4815 20.3308 28.4544 20.373 28.4199 20.4085C28.3855 20.4441 28.3444 20.4723 28.2991 20.4916C28.2537 20.5109 28.2051 20.5208 28.1559 20.5208H26.3919L25.7343 19.0243C25.4323 19.3489 25.0863 19.6283 24.7067 19.8542C24.2896 20.0977 23.8459 20.2912 23.3846 20.4305C22.7622 20.6099 22.1169 20.6942 21.4699 20.6805V20.6805Z" fill="#71717B"/>
<path d="M38.3635 5.36806C39.3059 5.36391 40.2389 5.5578 41.1037 5.9375C41.9505 6.30968 42.7164 6.84776 43.3575 7.52084C44.0168 8.22137 44.5325 9.04749 44.8748 9.95139C45.2471 10.9374 45.4319 11.986 45.4194 13.0417C45.4286 14.094 45.2427 15.1388 44.8714 16.1215C44.5298 17.0258 44.014 17.8521 43.354 18.5521C42.7077 19.2308 41.932 19.7695 41.0742 20.1354C40.2164 20.5012 39.2942 20.6867 38.3635 20.6806C37.7508 20.6943 37.1397 20.6123 36.5516 20.4375C36.1056 20.3008 35.6794 20.1046 35.2843 19.8542C34.9378 19.6388 34.6161 19.3849 34.3252 19.0972C34.319 19.0912 34.3112 19.0871 34.3027 19.0854C34.2943 19.0838 34.2855 19.0847 34.2775 19.088C34.2695 19.0913 34.2627 19.0969 34.2578 19.1041C34.2529 19.1113 34.2501 19.1197 34.2499 19.1285V24.3611C34.2499 24.46 34.2114 24.5548 34.1427 24.6251C34.0741 24.6953 33.9809 24.7352 33.8834 24.7361H31.6673C31.5698 24.7352 31.4765 24.6953 31.4079 24.6251C31.3393 24.5548 31.3008 24.46 31.3008 24.3611V5.90278C31.3008 5.80425 31.3394 5.70975 31.4081 5.64007C31.4769 5.5704 31.5701 5.53125 31.6673 5.53125H33.1915C33.2638 5.53033 33.3347 5.55088 33.3956 5.59037C33.4564 5.62986 33.5046 5.68657 33.534 5.75348L34.0649 6.97917C34.0689 6.98563 34.0745 6.99095 34.0811 6.99463C34.0877 6.99832 34.0951 7.00025 34.1026 7.00025C34.1101 7.00025 34.1175 6.99832 34.1241 6.99463C34.1307 6.99095 34.1363 6.98563 34.1403 6.97917C34.4235 6.68041 34.7408 6.41697 35.0856 6.19445L35.1233 6.17362C35.5438 5.95092 35.9827 5.76618 36.4352 5.62153C37.0609 5.43514 37.7116 5.3496 38.3635 5.36806V5.36806ZM38.2026 17.8681C38.7608 17.8701 39.313 17.7517 39.8227 17.5208C40.342 17.2859 40.8083 16.9456 41.1928 16.5208C41.5953 16.0742 41.9134 15.5563 42.1313 14.9931C42.5925 13.7342 42.5925 12.3492 42.1313 11.0903C41.9134 10.527 41.5953 10.0092 41.1928 9.5625C40.8083 9.13778 40.342 8.79744 39.8227 8.5625C39.3131 8.33149 38.7608 8.21313 38.2026 8.21528C37.6421 8.21341 37.0877 8.33174 36.5756 8.5625C36.0542 8.7938 35.5873 9.13465 35.2055 9.5625C34.804 10.0126 34.4881 10.5341 34.2739 11.1007C34.0396 11.7199 33.9234 12.3785 33.9313 13.0417C33.9222 13.7083 34.0384 14.3706 34.2739 14.9931C34.4906 15.5553 34.8063 16.0729 35.2055 16.5208C35.5873 16.9487 36.0542 17.2895 36.5756 17.5208C37.0866 17.7458 37.6386 17.8593 38.1957 17.8542L38.2026 17.8681Z" fill="#71717B"/>
<path d="M49.9733 20.5208H47.7606C47.7114 20.5208 47.6628 20.5109 47.6174 20.4916C47.5721 20.4723 47.531 20.4441 47.4966 20.4085C47.4621 20.373 47.435 20.3308 47.4169 20.2845C47.3987 20.2382 47.3898 20.1887 47.3907 20.1389V8.63193C47.3907 8.53247 47.4297 8.43709 47.499 8.36677C47.5684 8.29644 47.6625 8.25693 47.7606 8.25693H49.9733C50.0224 8.25601 50.0713 8.26503 50.117 8.28346C50.1626 8.30189 50.2042 8.32937 50.2393 8.36428C50.2744 8.39919 50.3022 8.44085 50.3213 8.4868C50.3403 8.53276 50.3501 8.5821 50.3501 8.63193V20.1389C50.3505 20.1892 50.3411 20.239 50.3223 20.2856C50.3035 20.3321 50.2758 20.3744 50.2407 20.41C50.2056 20.4455 50.1639 20.4737 50.118 20.4927C50.0721 20.5117 50.0229 20.5213 49.9733 20.5208V20.5208Z" fill="#71717B"/>
<path d="M61.8219 20.2569C61.8465 20.1844 61.8581 20.1079 61.8561 20.0312C61.8561 19.3924 61.8561 18.75 61.8561 18.1076C61.8623 18.0229 61.847 17.9381 61.8116 17.8611C61.7054 17.6667 61.3732 17.8229 61.2088 17.8368C61.0443 17.8507 60.969 17.8542 60.8662 17.8542C60.5631 17.8608 60.2617 17.8051 59.9803 17.6906C59.699 17.576 59.4434 17.4049 59.2289 17.1875C59.0145 16.9702 58.8457 16.7111 58.7327 16.4258C58.6197 16.1406 58.5648 15.8351 58.5714 15.5278V8.73263C58.5722 8.63345 58.6115 8.5386 58.6807 8.46846C58.7499 8.39833 58.8434 8.35853 58.9413 8.35763H61.493C61.5897 8.35671 61.682 8.31717 61.75 8.24759C61.818 8.17801 61.8561 8.08404 61.8561 7.9861V5.90277C61.8561 5.80423 61.8175 5.70973 61.7488 5.64006C61.68 5.57038 61.5868 5.53124 61.4896 5.53124H58.9379C58.8403 5.53032 58.7471 5.49041 58.6785 5.42018C58.6098 5.34996 58.5713 5.2551 58.5714 5.15624V1.92013C58.5714 1.82159 58.5327 1.72709 58.464 1.65742C58.3953 1.58774 58.3021 1.5486 58.2049 1.5486H56.4923C56.4438 1.54814 56.3958 1.55741 56.351 1.57588C56.3061 1.59434 56.2653 1.62164 56.2309 1.65618C56.1965 1.69073 56.1692 1.73184 56.1506 1.77714C56.1319 1.82245 56.1223 1.87104 56.1223 1.92013V3.54513C56.131 3.80891 56.0856 4.07166 55.9889 4.31671C55.8922 4.56177 55.7464 4.7838 55.5606 4.96874C55.3753 5.15463 55.1547 5.30037 54.9121 5.39707C54.6695 5.49377 54.41 5.53942 54.1494 5.53124H53.3651C53.3161 5.52985 53.2673 5.53843 53.2216 5.55647C53.176 5.57452 53.1344 5.60167 53.0992 5.6363C53.0641 5.67094 53.0362 5.71237 53.0171 5.75814C52.9981 5.80391 52.9883 5.85309 52.9883 5.90277V7.9861C52.9883 8.03518 52.9979 8.08378 53.0165 8.12908C53.0351 8.17439 53.0624 8.2155 53.0968 8.25005C53.1312 8.28459 53.172 8.31188 53.2169 8.33035C53.2618 8.34882 53.3098 8.35809 53.3582 8.35763H55.2489C55.347 8.35763 55.4411 8.39714 55.5105 8.46746C55.5799 8.53779 55.6188 8.63317 55.6188 8.73263V15.5278C55.6048 16.2581 55.7208 16.985 55.9614 17.6736C56.172 18.2724 56.5019 18.8208 56.9307 19.2847C57.3433 19.7307 57.8424 20.0853 58.3967 20.3264C58.9732 20.5725 59.5933 20.6966 60.2189 20.691C60.614 20.6992 61.008 20.6453 61.3869 20.5312C61.6232 20.4444 61.7636 20.4167 61.8219 20.2569Z" fill="#71717B"/>
<path d="M76.8041 9.93402C76.4652 9.04316 75.9644 8.22463 75.3279 7.52083C74.7047 6.8416 73.9501 6.29986 73.1113 5.92942C72.2724 5.55898 71.3671 5.3678 70.4521 5.3678C69.5371 5.3678 68.6319 5.55898 67.793 5.92942C66.9541 6.29986 66.1995 6.8416 65.5764 7.52083C64.9392 8.23008 64.4396 9.05464 64.1035 9.95138C63.7284 10.9367 63.5424 11.9856 63.5555 13.0417C63.5409 14.1024 63.7269 15.1561 64.1035 16.1458C64.442 17.0492 64.9543 17.8754 65.6106 18.5764C66.2473 19.2447 67.0103 19.7761 67.8541 20.1389C68.7259 20.5143 69.6643 20.7046 70.6114 20.6979C71.3977 20.7093 72.1807 20.592 72.9303 20.3507C73.5866 20.1353 74.2017 19.8076 74.749 19.3819C75.2673 18.9766 75.7222 18.4943 76.0986 17.9514C76.3569 17.5729 76.586 17.1748 76.7836 16.7604C76.8126 16.702 76.8262 16.637 76.8231 16.5717C76.8199 16.5064 76.8001 16.443 76.7656 16.3878C76.7311 16.3325 76.6831 16.2873 76.6262 16.2564C76.5694 16.2256 76.5056 16.2102 76.4411 16.2118H74.0434C73.9894 16.2125 73.9362 16.2254 73.8877 16.2494C73.8391 16.2734 73.7964 16.308 73.7626 16.3507C73.4575 16.702 73.1126 17.0155 72.735 17.2847C72.1011 17.706 71.3512 17.9116 70.5943 17.8715C70.0843 17.8731 69.5787 17.7765 69.1043 17.5868C68.657 17.4103 68.2459 17.1513 67.8918 16.8229C67.5535 16.5007 67.27 16.1241 67.0526 15.7083C66.8622 15.3537 66.7336 14.9684 66.6724 14.5694C66.6695 14.545 66.6718 14.5201 66.679 14.4966C66.6863 14.4731 66.6985 14.4514 66.7147 14.433C66.7309 14.4146 66.7508 14.3999 66.773 14.3899C66.7953 14.3799 66.8193 14.3748 66.8437 14.375H74.8107C75.3758 14.375 75.941 14.375 76.5062 14.375C76.725 14.3887 76.9411 14.3194 77.1124 14.1805C77.2348 13.9998 77.2993 13.7852 77.2974 13.566C77.319 13.399 77.3304 13.2309 77.3316 13.0625C77.3537 11.9952 77.1747 10.9333 76.8041 9.93402V9.93402ZM74.1051 11.8715H67.1348C67.0798 11.8717 67.0254 11.8593 66.9756 11.8355C66.9259 11.8116 66.882 11.7767 66.8472 11.7335C66.8124 11.6902 66.7876 11.6397 66.7745 11.5855C66.7615 11.5313 66.7605 11.4748 66.7717 11.4201C66.9604 10.5851 67.3757 9.8202 67.9706 9.2118C68.2977 8.88073 68.6876 8.62023 69.1168 8.44598C69.5459 8.27174 70.0054 8.18735 70.4675 8.19791C70.9773 8.17299 71.4869 8.25034 71.9671 8.42552C72.4473 8.6007 72.8887 8.87026 73.2659 9.21874C73.8716 9.81879 74.2937 10.5831 74.4819 11.4201C74.4941 11.476 74.4934 11.534 74.4799 11.5896C74.4663 11.6451 74.4403 11.6968 74.4038 11.7405C74.3674 11.7842 74.3214 11.8187 74.2696 11.8415C74.2178 11.8642 74.1615 11.8745 74.1051 11.8715V11.8715Z" fill="#71717B"/>
<path d="M86.4158 8.42014H86.4363H86.4706L86.5288 8.4375C86.7343 8.48611 86.9193 8.48959 86.9193 8.20486V7.02084C86.9193 6.62153 86.9193 6.2257 86.9193 5.82639C86.8919 5.5625 86.796 5.5 86.6658 5.47917L86.3644 5.4132C86.2228 5.3902 86.0796 5.37975 85.9362 5.38195C85.3746 5.37128 84.8157 5.46181 84.2853 5.64931C83.8787 5.79739 83.4874 5.98581 83.1173 6.21181C82.835 6.40224 82.5733 6.6222 82.3364 6.86806C82.3182 6.88831 82.2954 6.90362 82.2699 6.9126C82.2445 6.92157 82.2172 6.92392 82.1906 6.91943C82.164 6.91494 82.139 6.90374 82.1178 6.88688C82.0965 6.87002 82.0798 6.84803 82.0692 6.82292L81.6102 5.78125C81.5804 5.71461 81.5322 5.65816 81.4714 5.61872C81.4106 5.57928 81.3399 5.55855 81.2677 5.55903H79.7435C79.6487 5.55603 79.5565 5.59002 79.4857 5.65399C79.415 5.71795 79.3711 5.80701 79.3633 5.90278V20.1389C79.3642 20.2381 79.4034 20.3329 79.4726 20.4031C79.5418 20.4732 79.6354 20.513 79.7332 20.5139H81.9459C82.044 20.5139 82.1381 20.4744 82.2075 20.4041C82.2768 20.3337 82.3158 20.2383 82.3158 20.1389V12.1146C82.3086 11.691 82.3735 11.2693 82.5076 10.8681C82.689 10.3462 82.9827 9.87174 83.3673 9.47917C83.6956 9.14047 84.0837 8.86722 84.5114 8.67361C84.9658 8.46764 85.459 8.36455 85.9568 8.37153C86.1116 8.37766 86.2654 8.39977 86.4158 8.4375V8.42014Z" fill="#71717B"/>
<path d="M48.8672 6.36459C50.2803 6.36459 51.4258 5.20333 51.4258 3.77084C51.4258 2.33835 50.2803 1.17709 48.8672 1.17709C47.4541 1.17709 46.3086 2.33835 46.3086 3.77084C46.3086 5.20333 47.4541 6.36459 48.8672 6.36459Z" fill="#71717B"/>
</g>
<defs>
<clipPath id="clip0_247_2339">
<rect width="87" height="25" fill="white"/>
</clipPath>
</defs>
</svg>
