<svg width="106" height="24" viewBox="0 0 106 24" fill="none" xmlns="http://www.w3.org/2000/svg">
<g clip-path="url(#clip0_247_2242)">
<path d="M27.3763 21.7653V10.1571H24.6774L24.6484 7.08096H26.5057C27.0571 7.08096 27.3183 6.79076 27.3763 6.26837V5.77502C27.6085 3.54045 29.0595 1.45099 32.571 1.45099H34.1671V4.52715H31.8165C31.178 4.52715 30.9168 4.78833 30.9168 5.39776V7.08096H33.906V10.1571H30.9749V21.7653H27.3763Z" fill="#71717B"/>
<path d="M35.8985 21.7653V7.08097H39.6131V21.7653H35.8985ZM37.7558 4.93344C36.4499 4.93344 35.4922 4.03381 35.4922 2.81496C35.4922 1.62512 36.4499 0.66745 37.7558 0.66745C39.0617 0.66745 40.0194 1.62512 40.0194 2.81496C40.0194 4.03381 39.0617 4.93344 37.7558 4.93344Z" fill="#71717B"/>
<path d="M52.1984 13.1462C52.1984 10.8826 51.2987 9.83786 49.4995 9.83786C47.4391 9.83786 45.9881 11.2599 45.9881 14.4522V21.7653H42.2734V7.08098H45.6398V9.22846C46.5685 7.51628 48.1936 6.61661 50.3991 6.61661C53.8525 6.61661 55.913 8.79315 55.913 12.4497V21.7653H52.1984V13.1462Z" fill="#71717B"/>
<path d="M64.2065 22.2296C60.2887 22.2296 57.5898 19.2405 57.5898 14.4231C57.5898 9.5767 60.2887 6.61659 64.2065 6.61659C66.2092 6.61659 67.8632 7.42916 68.9367 8.88018V1.45099H72.6223V21.7653H69.2559V19.5887C68.1823 21.2719 66.4122 22.2296 64.2065 22.2296ZM65.1642 19.0664C67.4565 19.0664 69.0236 17.2381 69.0236 14.4231C69.0236 11.6081 67.4565 9.7508 65.1642 9.7508C62.8425 9.7508 61.3915 11.6081 61.3915 14.4231C61.3915 17.2381 62.8425 19.0664 65.1642 19.0664Z" fill="#71717B"/>
<path d="M82.1115 22.2296C77.4976 22.2296 74.5664 19.1534 74.5664 14.4231C74.5664 9.75081 77.4685 6.61661 82.1115 6.61661C87.132 6.61661 89.8602 10.2732 89.1059 15.4098H78.2812C78.4842 17.8475 79.8769 19.2405 82.1115 19.2405C83.94 19.2405 85.0427 18.2828 85.3327 17.3251H89.0183C88.4378 20.1691 85.884 22.2296 82.1115 22.2296ZM78.3681 12.885H85.5072C85.478 10.8826 84.2008 9.51866 82.0246 9.51866C80.0799 9.51866 78.7165 10.6795 78.3681 12.885Z" fill="#71717B"/>
<path d="M101.112 13.1462C101.112 10.8826 100.213 9.83786 98.4134 9.83786C96.3533 9.83786 94.9023 11.2599 94.9023 14.4522V21.7653H91.1875V7.08098H94.554V9.22846C95.4829 7.51628 97.1077 6.61661 99.3131 6.61661C102.767 6.61661 104.827 8.79315 104.827 12.4497V21.7653H101.112V13.1462Z" fill="#71717B"/>
<path d="M14.8309 11.236C15.9083 11.8581 15.7929 12.9291 14.8309 13.4294L8.82812 16.3923V8.19614L14.8309 11.236Z" stroke="#71717B" stroke-width="1.2973" stroke-linejoin="round"/>
<path d="M14.8309 3.03989C15.9083 3.66194 15.7929 4.73299 14.8309 5.23323L8.82812 8.19613V0L14.8309 3.03989Z" stroke="#71717B" stroke-width="1.2973" stroke-linejoin="round"/>
<path d="M2.85915 5.15624C1.78171 4.53418 1.89715 3.46313 2.85915 2.96289L8.86198 -3.05176e-05V8.19613L2.85915 5.15624Z" stroke="#71717B" stroke-width="1.2973" stroke-linejoin="round"/>
<path d="M2.09766 12.1541V21.664C2.13184 22.7477 3.04719 23.3157 4.07456 22.614L8.86598 16.3538" stroke="#71717B" stroke-width="1.2973" stroke-linejoin="round"/>
<path d="M2.85915 13.3524C1.78171 12.7304 1.89715 11.6593 2.85915 11.1591L8.86198 8.1962V16.3923L2.85915 13.3524Z" stroke="#71717B" stroke-width="1.2973" stroke-linejoin="round"/>
<path d="M2.09375 4.00189V18.9705" stroke="#71717B" stroke-width="1.2973"/>
</g>
<defs>
<clipPath id="clip0_247_2242">
<rect width="105.081" height="24" fill="white"/>
</clipPath>
</defs>
</svg>
