<svg width="130" height="30" viewBox="0 0 130 30" fill="none" xmlns="http://www.w3.org/2000/svg">
<g clip-path="url(#clip0_247_2306)">
<g clip-path="url(#clip1_247_2306)">
<g clip-path="url(#clip2_247_2306)">
<path d="M38.4532 3.75104V1.93979C33.2059 1.93979 30.6222 5.20186 28.125 8.35783C25.7937 11.3016 23.5927 14.0806 19.2266 14.0935C14.8623 14.0806 12.6595 11.3016 10.3284 8.35783C7.83113 5.2037 5.24723 1.93979 0 1.93979V3.75104C4.38955 3.75104 6.59787 6.53927 8.93438 9.49033C9.51942 10.2295 10.1099 10.9722 10.7364 11.6803C10.5216 11.5504 10.3067 11.4205 10.0918 11.2888C7.62166 9.78304 5.06667 8.22427 0 8.22427V10.0355C4.57011 10.0355 6.80551 11.3985 9.17093 12.842C9.8697 13.2683 10.5739 13.6983 11.3413 14.0953H0V15.9065H11.3413C10.5757 16.3035 9.8697 16.7335 9.17093 17.1598C6.80551 18.6033 4.57011 19.9663 0 19.9663V21.7775C5.06667 21.7775 7.62166 20.2188 10.0918 18.7112C10.3067 18.5795 10.5216 18.4496 10.7364 18.3197C10.1099 19.0259 9.51942 19.7705 8.93438 20.5096C6.59787 23.4626 4.38955 26.249 0 26.249V28.0602C5.24723 28.0602 7.83113 24.798 10.3284 21.6422C12.6595 18.6984 14.8606 15.9193 19.2266 15.9065C23.5909 15.9193 25.7937 18.6984 28.125 21.6422C30.624 24.798 33.2059 28.0602 38.4532 28.0602V26.249C34.0637 26.249 31.8553 23.4606 29.5188 20.5096C28.9338 19.7705 28.3434 19.0277 27.7168 18.3197C27.9316 18.4496 28.1466 18.5795 28.3615 18.7112C30.8315 20.2188 33.3866 21.7775 38.455 21.7775V19.9663C33.8849 19.9663 31.6496 18.6033 29.2841 17.1598C28.5853 16.7335 27.8812 16.3035 27.1137 15.9065H38.455V14.0953H27.1137C27.8794 13.6983 28.5853 13.2683 29.2841 12.842C31.6496 11.3985 33.8849 10.0355 38.455 10.0355V8.22427C33.3884 8.22427 30.8333 9.78304 28.3615 11.2906C28.1466 11.4223 27.9316 11.5522 27.7168 11.6821C28.3434 10.9759 28.9338 10.2313 29.5188 9.49214C31.8571 6.53927 34.0637 3.75287 38.4532 3.75287V3.75104Z" fill="#71717B"/>
</g>
</g>
</g>
<g clip-path="url(#clip3_247_2306)">
<g clip-path="url(#clip4_247_2306)">
<g clip-path="url(#clip5_247_2306)">
<path d="M49.207 0.319061H51.3901V5.31347H57.5099V0.319061H59.6929V12.4989H57.5099V7.1231H51.3901V12.4989H49.207V0.319061Z" fill="#71717B"/>
<path d="M65.2638 2.80719C67.9451 2.80719 69.2875 3.78075 69.2875 6.16428V12.4971H67.311V10.8452C66.657 12.0112 65.5573 12.6896 64.0609 12.6896C62.0318 12.6896 60.8633 11.7161 60.8633 9.81841C60.8633 7.76492 62.0662 6.79134 64.5772 6.79134H67.311V6.16428C67.311 4.78917 66.657 4.31981 65.1787 4.31981C63.7004 4.31981 63.0463 4.84234 63.0463 5.97361H61.1387C61.1387 3.81559 62.5318 2.80719 65.2638 2.80719ZM67.3092 8.54781V8.23428H64.5754C63.4069 8.23428 62.8742 8.66881 62.8742 9.69555C62.8742 10.7223 63.425 11.122 64.5246 11.122C66.1244 11.122 67.3092 9.95592 67.3092 8.54781Z" fill="#71717B"/>
<path d="M71.0055 3.01624H73.0346V4.21716C73.4295 3.4526 74.1181 3.01624 75.0112 3.01624H76.8155V4.91205H74.0474C73.3934 4.91205 73.0328 5.31174 73.0328 6.00847V12.4971H71.0039V3.01624H71.0055Z" fill="#71717B"/>
<path d="M77.9102 3.01619H79.9392V4.44264C80.5589 3.4159 81.5898 2.80719 82.914 2.80719C84.4776 2.80719 85.3725 3.43423 85.6823 4.56366C86.2838 3.46723 87.3509 2.80719 88.8454 2.80719C90.9089 2.80719 91.7676 3.9201 91.7676 5.92226V12.499H89.7385V6.3403C89.7385 5.19254 89.2911 4.46097 88.0538 4.46097C86.6262 4.46097 85.8363 5.29521 85.8363 6.80966V12.499H83.8072V6.3403C83.8072 5.19254 83.3434 4.46097 82.106 4.46097C80.7129 4.46097 79.9392 5.29521 79.9392 6.80966V12.499H77.9102V3.01619Z" fill="#71717B"/>
<path d="M93.0586 7.76669C93.0586 4.5306 94.6908 2.80896 97.7526 2.80896C100.814 2.80896 102.463 4.5306 102.463 7.7502C102.463 10.9698 100.829 12.6914 97.7526 12.6914C94.6762 12.6914 93.0586 10.9863 93.0586 7.76669ZM100.381 7.74836C100.381 5.48585 99.5388 4.4426 97.7508 4.4426C95.9626 4.4426 95.1382 5.50418 95.1382 7.76485C95.1382 10.0255 95.9808 11.0541 97.7508 11.0541C99.5208 11.0541 100.381 9.99254 100.381 7.74836Z" fill="#71717B"/>
<path d="M103.766 3.01614H105.795V4.5306C106.414 3.43418 107.48 2.80896 108.976 2.80896C111.159 2.80896 112.192 3.97505 112.192 6.11472V12.5007H110.146V6.4796C110.146 5.10449 109.527 4.46092 108.152 4.46092C106.708 4.46092 105.797 5.34832 105.797 6.91412V12.4989H103.767V3.01614H103.766Z" fill="#71717B"/>
<path d="M115.97 2.03516H113.891V0H115.97V2.03516ZM115.954 12.4988H113.925V3.01607H115.954V12.4988Z" fill="#71717B"/>
<path d="M124.208 6.73999C124.139 5.27872 123.384 4.44264 121.853 4.44264C120.099 4.44264 119.275 5.4859 119.275 7.7649C119.275 10.0439 120.099 11.0542 121.853 11.0542C123.384 11.0542 124.139 10.2713 124.208 8.72199H126.203C126.15 11.2797 124.638 12.6896 121.871 12.6896C118.828 12.6896 117.195 10.9845 117.195 7.7649C117.195 4.54532 118.828 2.80719 121.871 2.80719C124.621 2.80719 126.134 4.3033 126.203 6.73999H124.208Z" fill="#71717B"/>
<path d="M49.207 14.316H54.2434C57.836 14.316 59.865 16.1605 59.865 20.4397C59.865 24.7192 57.8197 26.4939 54.209 26.4939H49.207V14.316ZM57.6312 20.4397C57.6312 17.2202 56.479 16.1256 54.2616 16.1256H51.3901V24.6861H54.2616C56.479 24.6861 57.6312 23.6245 57.6312 20.4416V20.4397Z" fill="#71717B"/>
<path d="M63.0446 16.0321H60.9648V13.9969H63.0446V16.0321ZM63.0283 26.4957H60.9993V17.013H63.0283V26.4957Z" fill="#71717B"/>
<path d="M66.3798 19.4827C66.3798 20.2473 66.7403 20.526 68.0484 20.7185L69.32 20.8927C71.7097 21.2227 72.5358 21.9891 72.5358 23.764C72.5358 25.5387 71.264 26.6865 68.4613 26.6865C65.6587 26.6865 64.2148 25.7478 64.2148 23.3807H66.1406C66.1406 24.6513 66.8798 25.172 68.4613 25.172C69.9053 25.172 70.5593 24.7889 70.5593 23.8665C70.5593 23.0489 70.1806 22.7536 68.8237 22.5611L67.5338 22.3869C65.4015 22.0918 64.4214 21.2556 64.4214 19.6551C64.4214 17.8803 65.7964 16.8022 68.3762 16.8022C70.956 16.8022 72.2786 17.7593 72.2966 19.8293H70.4235C70.4235 18.7513 69.7875 18.3149 68.378 18.3149C66.9686 18.3149 66.3834 18.7145 66.3834 19.4809L66.3798 19.4827Z" fill="#71717B"/>
<path d="M80.5403 20.7367C80.4713 19.2754 79.7159 18.4394 78.1852 18.4394C76.4313 18.4394 75.6072 19.4845 75.6072 21.7616C75.6072 24.0389 76.4313 25.0509 78.1852 25.0509C79.7159 25.0509 80.4713 24.268 80.5403 22.7205H82.535C82.4824 25.2783 80.9697 26.6863 78.2032 26.6863C75.1597 26.6863 73.5273 24.9812 73.5273 21.7616C73.5273 18.5422 75.1597 16.804 78.2032 16.804C80.9533 16.804 82.4661 18.3002 82.535 20.7367H80.5403Z" fill="#71717B"/>
<path d="M83.5977 21.7616C83.5977 18.5256 85.23 16.804 88.2917 16.804C91.3535 16.804 93.002 18.5256 93.002 21.7452C93.002 24.9647 91.3678 26.6863 88.2917 26.6863C85.2155 26.6863 83.5977 24.9812 83.5977 21.7616ZM90.9204 21.7452C90.9204 19.4827 90.078 18.4394 88.2898 18.4394C86.5018 18.4394 85.6775 19.5011 85.6775 21.7616C85.6775 24.0223 86.5198 25.0509 88.2898 25.0509C90.0598 25.0509 90.9204 23.9894 90.9204 21.7452Z" fill="#71717B"/>
<path d="M93.2284 17.0129H95.3426L97.8355 24.6512L100.413 17.0129H102.459L99.158 26.4956H96.4586L93.2266 17.0129H93.2284Z" fill="#71717B"/>
<path d="M102.68 21.7269C102.68 18.5256 104.243 16.8022 107.339 16.8022C110.436 16.8022 111.724 18.5605 111.724 21.4134C111.724 21.6922 111.689 21.9176 111.673 22.1614H104.658C104.743 24.1965 105.535 25.0674 107.408 25.0674C108.905 25.0674 109.713 24.5285 109.763 23.3623H111.671C111.517 25.5203 110.055 26.6847 107.339 26.6847C104.211 26.6847 102.68 24.9631 102.68 21.7269ZM104.691 20.7698H109.814C109.729 19.2554 109.126 18.3514 107.338 18.3514C105.687 18.3514 104.897 19.0813 104.691 20.7698Z" fill="#71717B"/>
<path d="M113.08 17.0129H115.109V18.2137C115.504 17.4474 116.192 17.0129 117.086 17.0129H118.89V18.9086H116.122C115.468 18.9086 115.107 19.3085 115.107 20.0052V26.4956H113.078V17.0129H113.08Z" fill="#71717B"/>
<path d="M129.022 17.0129L125.051 28.3052C124.603 29.5759 124.123 29.9756 122.936 29.9756H120.616V28.3052H122.592C122.953 28.3052 123.108 28.1659 123.212 27.8359L123.435 27.1226L119.395 17.0147H121.543L124.415 24.5485L126.958 17.0147H129.022V17.0129Z" fill="#71717B"/>
</g>
</g>
</g>
<defs>
<clipPath id="clip0_247_2306">
<rect width="38.4571" height="26.1204" fill="white" transform="translate(0 1.93979)"/>
</clipPath>
<clipPath id="clip1_247_2306">
<rect width="38.4571" height="26.1204" fill="white" transform="translate(0 1.93979)"/>
</clipPath>
<clipPath id="clip2_247_2306">
<rect width="38.455" height="26.1204" fill="white" transform="translate(0 1.93979)"/>
</clipPath>
<clipPath id="clip3_247_2306">
<rect width="79.8184" height="30" fill="white" transform="translate(49.207)"/>
</clipPath>
<clipPath id="clip4_247_2306">
<rect width="79.8184" height="30" fill="white" transform="translate(49.207)"/>
</clipPath>
<clipPath id="clip5_247_2306">
<rect width="79.8182" height="30" fill="white" transform="translate(49.207)"/>
</clipPath>
</defs>
</svg>
