<svg width="63" height="30" viewBox="0 0 63 30" fill="none" xmlns="http://www.w3.org/2000/svg">
<path d="M1.7 6.5H5.075V13.725H6.1L12.25 6.5H16.375L9.125 15.1L16.575 24H12.25L6.1 16.55H5.075V24H1.7V6.5Z" fill="#71717B"/>
<path d="M31.575 23.7583C30.3583 23.7583 29.3083 23.4917 28.425 22.9583C27.5417 22.4083 26.8583 21.65 26.375 20.6833C25.9083 19.7 25.675 18.5583 25.675 17.2583C25.675 15.275 26.175 13.725 27.175 12.6083C28.1917 11.475 29.6333 10.9083 31.5 10.9083C32.7 10.9083 33.75 11.1667 34.65 11.6833C35.5667 12.1833 36.275 12.8917 36.775 13.8083C37.2917 14.725 37.55 15.8083 37.55 17.0583C37.55 17.2583 37.5417 17.4667 37.525 17.6833C37.5083 17.9 37.475 18.1417 37.425 18.4083H28.825C28.8917 18.9417 29.05 19.4 29.3 19.7833C29.55 20.15 29.8667 20.4417 30.25 20.6583C30.65 20.8583 31.1 20.9583 31.6 20.9583C32.35 20.9583 32.95 20.85 33.4 20.6333C33.85 20.4167 34.2083 20.0583 34.475 19.5583L37.3 20.4083C36.8 21.4583 36.075 22.2833 35.125 22.8833C34.175 23.4667 32.9917 23.7583 31.575 23.7583ZM34.1 16.0833C34.0667 15.5833 33.9333 15.15 33.7 14.7833C33.4833 14.4 33.1833 14.1167 32.8 13.9333C32.4167 13.7333 31.975 13.6333 31.475 13.6333C31.025 13.6333 30.6167 13.7417 30.25 13.9583C29.8833 14.1583 29.5833 14.4417 29.35 14.8083C29.1333 15.175 28.9833 15.6 28.9 16.0833H34.1ZM27.25 18.7583L27.55 20.7083C27.2 21.4583 26.7333 22.0583 26.15 22.5083C25.5833 22.9583 24.95 23.2833 24.25 23.4833C23.55 23.6667 22.85 23.7583 22.15 23.7583C21.3333 23.7583 20.6083 23.625 19.975 23.3583C19.3417 23.0917 18.8417 22.6917 18.475 22.1583C18.125 21.625 17.95 20.975 17.95 20.2083C17.95 19.5583 18.075 19.0083 18.325 18.5583C18.575 18.0917 18.9167 17.7083 19.35 17.4083C19.7833 17.1083 20.2667 16.875 20.8 16.7083C21.35 16.525 21.925 16.3917 22.525 16.3083L25.65 15.8583V15.0583C25.65 14.7083 25.4833 14.3833 25.15 14.0833C24.8167 13.7833 24.325 13.6333 23.675 13.6333C23.075 13.6333 22.55 13.7833 22.1 14.0833C21.6667 14.3667 21.375 14.8 21.225 15.3833L18.475 14.3833C18.825 13.2667 19.4583 12.4083 20.375 11.8083C21.3083 11.2083 22.4583 10.9083 23.825 10.9083C25.475 10.9083 26.7083 11.325 27.525 12.1583C28.3583 12.975 28.775 14.0583 28.775 15.4083V18.0833L27.25 18.7583ZM25.65 18.1333L22.975 18.5083C22.375 18.5917 21.9417 18.7667 21.675 19.0333C21.4083 19.2833 21.275 19.5917 21.275 19.9583C21.275 20.3583 21.4333 20.65 21.75 20.8333C22.0667 21 22.4667 21.0833 22.95 21.0833C23.45 21.0833 23.9 20.9917 24.3 20.8083C24.7167 20.6083 25.0417 20.3083 25.275 19.9083C25.525 19.5083 25.65 19 25.65 18.3833V18.1333Z" fill="#71717B"/>
<path d="M38.343 6H41.543V24H38.343V6ZM43.3757 11.5H46.5757V24H43.3757V11.5ZM45.0007 9.9C44.4007 9.9 43.909 9.71667 43.5257 9.35C43.1424 8.96667 42.9507 8.5 42.9507 7.95C42.9507 7.4 43.1424 6.94167 43.5257 6.575C43.909 6.19167 44.4007 6 45.0007 6C45.5674 6 46.0424 6.19167 46.4257 6.575C46.8257 6.94167 47.0257 7.4 47.0257 7.95C47.0257 8.5 46.8257 8.96667 46.4257 9.35C46.0424 9.71667 45.5674 9.9 45.0007 9.9ZM54.088 24.175C52.8713 24.175 51.788 23.9167 50.838 23.4C49.888 22.8667 49.138 22.125 48.588 21.175C48.0546 20.2083 47.788 19.075 47.788 17.775C47.788 16.4583 48.063 15.3167 48.613 14.35C49.1796 13.3833 49.9463 12.6417 50.913 12.125C51.8796 11.5917 52.963 11.325 54.163 11.325C55.363 11.325 56.4463 11.5917 57.413 12.125C58.3796 12.6417 59.1463 13.3833 59.713 14.35C60.2796 15.3 60.563 16.425 60.563 17.725C60.563 19.0417 60.2713 20.1833 59.688 21.15C59.1213 22.1167 58.3463 22.8667 57.363 23.4C56.3963 23.9167 55.3046 24.175 54.088 24.175ZM54.063 21.3C54.5796 21.3 55.0713 21.175 55.538 20.925C56.0046 20.6583 56.388 20.2667 56.688 19.75C56.988 19.2167 57.138 18.5417 57.138 17.725C57.138 16.9417 56.9963 16.2917 56.713 15.775C56.4296 15.2417 56.0546 14.85 55.588 14.6C55.138 14.3333 54.6463 14.2 54.113 14.2C53.5963 14.2 53.113 14.3333 52.663 14.6C52.2296 14.85 51.8796 15.2417 51.613 15.775C51.363 16.2917 51.238 16.9583 51.238 17.775C51.238 18.5583 51.363 19.2167 51.613 19.75C51.863 20.2667 52.2046 20.6583 52.638 20.925C53.0713 21.175 53.5463 21.3 54.063 21.3Z" fill="#71717B"/>
</svg>
