<svg width="120" height="24" viewBox="0 0 120 24" fill="none" xmlns="http://www.w3.org/2000/svg">
<g clip-path="url(#clip0_247_2223)">
<g clip-path="url(#clip1_247_2223)">
<g clip-path="url(#clip2_247_2223)">
<mask id="mask0_247_2223" style="mask-type:luminance" maskUnits="userSpaceOnUse" x="0" y="-1" width="120" height="25">
<path d="M119.821 -0.00570679H0V23.5657H119.821V-0.00570679Z" fill="white"/>
</mask>
<g mask="url(#mask0_247_2223)">
<path d="M12.0082 12.783C12.2249 12.4121 12.2236 11.9533 12.0048 11.5837L8.43898 5.56365L5.45945 0.57032C4.99932 -0.20078 3.88137 -0.197615 3.42563 0.576074L0.866713 4.92015C0.648595 5.29042 0.648596 5.74991 0.866714 6.12019L4.0852 11.5839C4.30281 11.9534 4.30336 12.4116 4.08664 12.7816L1.55185 17.1083C1.09014 17.8964 1.65849 18.8881 2.5719 18.8881H7.76072C8.18078 18.8881 8.56929 18.6651 8.7813 18.3025L12.0082 12.783Z" fill="#71717B"/>
<path d="M19.4336 18.7503V2.53021H22.8628V15.9229H29.8166V18.7503H19.4336Z" fill="#71717B"/>
<path d="M34.6017 18.9799C33.8255 18.9799 33.1339 18.8453 32.5266 18.5761C31.9195 18.3015 31.439 17.8975 31.0852 17.3643C30.7368 16.8257 30.5625 16.1552 30.5625 15.3527C30.5625 14.6767 30.6866 14.1092 30.9348 13.6498C31.183 13.1904 31.5208 12.8209 31.9485 12.541C32.3762 12.2612 32.8619 12.05 33.4057 11.9074C33.9549 11.7649 34.5304 11.6645 35.1324 11.6064C35.8399 11.5325 36.4101 11.4639 36.8431 11.4005C37.276 11.3319 37.5902 11.2315 37.7855 11.0995C37.9809 10.9675 38.0786 10.7722 38.0786 10.5135V10.466C38.0786 9.96441 37.9202 9.57632 37.6033 9.30176C37.2918 9.0272 36.8484 8.88993 36.2728 8.88993C35.6657 8.88993 35.1825 9.02456 34.8235 9.29384C34.4644 9.55784 34.2268 9.89046 34.1106 10.2918L30.9902 10.0383C31.1486 9.29912 31.4601 8.66024 31.9248 8.12169C32.3894 7.57785 32.9886 7.16074 33.7226 6.87034C34.4617 6.57467 35.3171 6.42682 36.2886 6.42682C36.9645 6.42682 37.6113 6.50602 38.2291 6.66442C38.852 6.82282 39.4038 7.06834 39.8843 7.40098C40.37 7.73361 40.7529 8.16129 41.0327 8.684C41.3125 9.20144 41.4525 9.8218 41.4525 10.5452V18.7503H38.2528V17.0633H38.1578C37.9624 17.4435 37.7011 17.7787 37.3737 18.0692C37.0464 18.3543 36.653 18.5787 36.1936 18.7424C35.7342 18.9007 35.2037 18.9799 34.6017 18.9799ZM35.5679 16.6515C36.0642 16.6515 36.5025 16.5538 36.8826 16.3584C37.2628 16.1578 37.5611 15.8885 37.7776 15.5507C37.994 15.2127 38.1024 14.8298 38.1024 14.4022V13.1113C37.9967 13.1798 37.8515 13.2433 37.6667 13.3013C37.4872 13.3542 37.2839 13.4043 37.0569 13.4518C36.8298 13.4941 36.6028 13.5336 36.3758 13.5707C36.1487 13.6023 35.9428 13.6313 35.758 13.6578C35.362 13.7158 35.0162 13.8082 34.7205 13.935C34.4248 14.0616 34.1951 14.2332 34.0315 14.4498C33.8677 14.661 33.7859 14.925 33.7859 15.2418C33.7859 15.7011 33.9523 16.0522 34.2849 16.2951C34.6228 16.5327 35.0505 16.6515 35.5679 16.6515Z" fill="#71717B"/>
<path d="M46.5537 11.7173V18.7503H43.1797V6.58522H46.3953V8.73153H46.5378C46.8071 8.02401 47.2585 7.46434 47.8922 7.0525C48.5257 6.63538 49.294 6.42682 50.1968 6.42682C51.0416 6.42682 51.7782 6.61162 52.4065 6.98122C53.0348 7.35081 53.5232 7.87881 53.8716 8.5652C54.2202 9.24632 54.3944 10.0595 54.3944 11.0045V18.7503H51.0205V11.6064C51.0258 10.862 50.8357 10.2812 50.4502 9.86404C50.0648 9.44168 49.5342 9.23049 48.8584 9.23049C48.4042 9.23049 48.003 9.32816 47.6545 9.52352C47.3113 9.71888 47.042 10.004 46.8466 10.3789C46.6566 10.7484 46.5589 11.1947 46.5537 11.7173Z" fill="#71717B"/>
<path d="M61.6391 23.5656C60.546 23.5656 59.6089 23.4151 58.8275 23.1141C58.0513 22.8185 57.4335 22.4146 56.9742 21.9023C56.5148 21.3903 56.2165 20.8147 56.0792 20.1758L59.1997 19.756C59.2947 19.9989 59.4451 20.2261 59.6511 20.4372C59.8571 20.6483 60.1289 20.8174 60.4669 20.944C60.81 21.076 61.2271 21.142 61.7182 21.142C62.4522 21.142 63.0567 20.9626 63.5319 20.6034C64.0123 20.2498 64.2526 19.6558 64.2526 18.8215V16.5961H64.11C63.9622 16.934 63.7405 17.2534 63.4448 17.5544C63.1491 17.8553 62.7689 18.1008 62.3042 18.291C61.8396 18.4809 61.2853 18.5761 60.6411 18.5761C59.7277 18.5761 58.896 18.3648 58.1464 17.9424C57.4018 17.5147 56.8078 16.8627 56.3644 15.9862C55.9261 15.1044 55.707 13.9904 55.707 12.644C55.707 11.2659 55.9314 10.1149 56.3802 9.19089C56.8289 8.26689 57.4256 7.57521 58.17 7.11585C58.9198 6.6565 59.7409 6.42682 60.6331 6.42682C61.3142 6.42682 61.8845 6.54298 62.3439 6.7753C62.8033 7.00234 63.1729 7.28746 63.4527 7.63066C63.7378 7.96857 63.9569 8.30121 64.11 8.62857H64.2368V6.58522H67.5869V18.869C67.5869 19.9039 67.3334 20.7698 66.8265 21.4668C66.3196 22.1638 65.6174 22.6865 64.7199 23.0349C63.8276 23.3887 62.8006 23.5656 61.6391 23.5656ZM61.7102 16.0416C62.2542 16.0416 62.7135 15.9069 63.0884 15.6378C63.4685 15.3632 63.7589 14.9724 63.9596 14.4655C64.1655 13.9534 64.2685 13.341 64.2685 12.6282C64.2685 11.9153 64.1681 11.2975 63.9675 10.7749C63.7669 10.2469 63.4765 9.83771 63.0962 9.54728C62.7161 9.25689 62.2542 9.11169 61.7102 9.11169C61.156 9.11169 60.6886 9.26216 60.3085 9.56312C59.9282 9.85883 59.6406 10.2706 59.4451 10.7987C59.2498 11.3267 59.1522 11.9364 59.1522 12.6282C59.1522 13.3304 59.2498 13.9375 59.4451 14.4498C59.6458 14.9567 59.9336 15.35 60.3085 15.6298C60.6886 15.9044 61.156 16.0416 61.7102 16.0416Z" fill="#71717B"/>
<path d="M73.8638 18.9483C72.9398 18.9483 72.1029 18.7107 71.3532 18.2355C70.6086 17.7549 70.0173 17.0501 69.5791 16.1209C69.1461 15.1863 68.9297 14.0405 68.9297 12.6836C68.9297 11.2897 69.1542 10.1307 69.6029 9.20672C70.0517 8.27746 70.6484 7.58315 71.3928 7.12378C72.1426 6.65915 72.9635 6.42683 73.8559 6.42683C74.537 6.42683 75.1047 6.54298 75.5587 6.7753C76.018 7.00234 76.3876 7.28746 76.6675 7.63066C76.9527 7.96858 77.1691 8.30122 77.3169 8.62858H77.4198V2.53021H80.7858V18.7503H77.4594V16.802H77.3169C77.1585 17.1398 76.9341 17.4752 76.6438 17.8078C76.3587 18.1352 75.9864 18.407 75.5269 18.6236C75.0729 18.8401 74.5185 18.9483 73.8638 18.9483ZM74.9329 16.2634C75.4769 16.2634 75.9362 16.1156 76.3111 15.8198C76.6912 15.5189 76.9816 15.0992 77.1823 14.5607C77.3882 14.0221 77.4912 13.3911 77.4912 12.6678C77.4912 11.9444 77.3909 11.3161 77.1902 10.7828C76.9895 10.2495 76.6992 9.83772 76.3189 9.54728C75.9389 9.25689 75.4769 9.11169 74.9329 9.11169C74.3786 9.11169 73.9113 9.26217 73.5312 9.56312C73.151 9.86404 72.8633 10.2812 72.6679 10.8144C72.4726 11.3478 72.3749 11.9655 72.3749 12.6678C72.3749 13.3753 72.4726 14.0009 72.6679 14.5447C72.8685 15.0833 73.1563 15.5058 73.5312 15.812C73.9113 16.113 74.3786 16.2634 74.9329 16.2634Z" fill="#71717B"/>
<path d="M88.1634 18.9878C86.9331 18.9878 85.8692 18.7265 84.9716 18.2038C84.0792 17.6758 83.3902 16.9418 82.9045 16.0021C82.4187 15.057 82.1758 13.9613 82.1758 12.7153C82.1758 11.4587 82.4187 10.3604 82.9045 9.42056C83.3902 8.47544 84.0792 7.74154 84.9716 7.21881C85.8692 6.69082 86.9331 6.42682 88.1634 6.42682C89.3936 6.42682 90.4548 6.69082 91.3472 7.21881C92.2447 7.74154 92.9363 8.47544 93.4221 9.42056C93.9079 10.3604 94.1508 11.4587 94.1508 12.7153C94.1508 13.9613 93.9079 15.057 93.4221 16.0021C92.9363 16.9418 92.2447 17.6758 91.3472 18.2038C90.4548 18.7265 89.3936 18.9878 88.1634 18.9878ZM88.1792 16.3743C88.7388 16.3743 89.2061 16.2158 89.581 15.8991C89.9559 15.5769 90.2383 15.1387 90.4284 14.5844C90.6238 14.03 90.7214 13.3989 90.7214 12.6916C90.7214 11.984 90.6238 11.353 90.4284 10.7987C90.2383 10.2442 89.9559 9.806 89.581 9.48392C89.2061 9.16184 88.7388 9.0008 88.1792 9.0008C87.6142 9.0008 87.139 9.16184 86.7536 9.48392C86.3734 9.806 86.0856 10.2442 85.8903 10.7987C85.7002 11.353 85.6051 11.984 85.6051 12.6916C85.6051 13.3989 85.7002 14.03 85.8903 14.5844C86.0856 15.1387 86.3734 15.5769 86.7536 15.8991C87.139 16.2158 87.6142 16.3743 88.1792 16.3743Z" fill="#71717B"/>
<path d="M100.949 18.9878C99.7025 18.9878 98.631 18.7238 97.7329 18.1958C96.8406 17.6626 96.1542 16.9234 95.6738 15.9783C95.1985 15.0332 94.9609 13.9456 94.9609 12.7153C94.9609 11.4692 95.2012 10.3762 95.6816 9.4364C96.1674 8.49129 96.8565 7.75474 97.7487 7.22674C98.6409 6.69347 99.7025 6.42682 100.932 6.42682C101.994 6.42682 102.923 6.61954 103.721 7.00498C104.518 7.39041 105.149 7.93161 105.613 8.62857C106.078 9.32551 106.334 10.1439 106.381 11.0838H103.198C103.108 10.4766 102.87 9.98818 102.485 9.61856C102.105 9.24369 101.606 9.05624 100.988 9.05624C100.466 9.05624 100.009 9.1988 99.618 9.48392C99.2321 9.76376 98.9315 10.1729 98.7154 10.7116C98.4984 11.2501 98.3904 11.9022 98.3904 12.6678C98.3904 13.4438 98.4955 14.1038 98.7066 14.6478C98.9237 15.1915 99.2271 15.6061 99.618 15.8912C100.009 16.1763 100.466 16.3189 100.988 16.3189C101.373 16.3189 101.719 16.2396 102.025 16.0812C102.337 15.9229 102.593 15.6932 102.793 15.3922C103 15.086 103.134 14.7189 103.198 14.2913H106.381C106.329 15.2207 106.076 16.0389 105.621 16.7465C105.172 17.4487 104.552 17.9978 103.76 18.3938C102.968 18.7898 102.031 18.9878 100.949 18.9878Z" fill="#71717B"/>
<path d="M110.704 15.2496L110.713 11.2025H111.203L115.1 6.58523H118.973L113.738 12.6994H112.938L110.704 15.2496ZM107.648 18.7503V2.53021H111.021V18.7503H107.648ZM115.251 18.7503L111.671 13.4518L113.921 11.0679L119.203 18.7503H115.251Z" fill="#71717B"/>
</g>
</g>
</g>
</g>
<defs>
<clipPath id="clip0_247_2223">
<rect width="120" height="23.56" fill="white"/>
</clipPath>
<clipPath id="clip1_247_2223">
<rect width="120" height="23.56" fill="white"/>
</clipPath>
<clipPath id="clip2_247_2223">
<rect width="120" height="23.5714" fill="white" transform="translate(0 -0.00570679)"/>
</clipPath>
</defs>
</svg>
